Codee Sans - Mono Regular.ufo
<glyph name="exclam" format="1">
  <advance width="550"/>
  <unicode hex="0021"/>
  <outline>
    <contour>
      <point x="201" y="690" type="line"/>
      <point x="208" y="244" type="line"/>
      <point x="290" y="244" type="line"/>
      <point x="297" y="690" type="line"/>
    </contour>
    <contour>
      <point x="300" y="99" type="line"/>
      <point x="204" y="99" type="line"/>
      <point x="204" y="0" type="line"/>
      <point x="300" y="0" type="line"/>
    </contour>
  </outline>
</glyph>
<glyph name="numbersign" format="1">
  <advance width="550"/>
  <unicode hex="0023"/>
  <outline>
    <contour>
      <point x="249" y="498" type="line"/>
      <point x="207" y="0" type="line"/>
      <point x="152" y="0" type="line"/>
      <point x="192" y="498" type="line"/>
    </contour>
    <contour>
      <point x="402" y="498" type="line"/>
      <point x="362" y="0" type="line"/>
      <point x="302" y="0" type="line"/>
      <point x="342" y="498" type="line"/>
    </contour>
    <contour>
      <point x="498" y="303" type="line"/>
      <point x="100" y="303" type="line"/>
      <point x="100" y="349" type="line"/>
      <point x="498" y="349" type="line"/>
    </contour>
    <contour>
      <point x="450" y="149" type="line"/>
      <point x="52" y="149" type="line"/>
      <point x="52" y="199" type="line"/>
      <point x="450" y="199" type="line"/>
    </contour>
  </outline>
</glyph>
<glyph name="dollar" format="1">
  <advance width="600"/>
  <unicode hex="0024"/>
  <outline>
    <contour>
      <point x="485" y="178" type="curve" smooth="yes"/>
      <point x="485" y="26"/>
      <point x="366" y="27"/>
      <point x="275" y="27" type="curve" smooth="yes"/>
      <point x="184" y="27"/>
      <point x="145" y="45"/>
      <point x="114" y="53" type="curve"/>
      <point x="114" y="131" type="line"/>
      <point x="114" y="131"/>
      <point x="201" y="93"/>
      <point x="277" y="93" type="curve" smooth="yes"/>
      <point x="338" y="93"/>
      <point x="415" y="101"/>
      <point x="415" y="175" type="curve" smooth="yes"/>
      <point x="415" y="282"/>
      <point x="121" y="281"/>
      <point x="121" y="451" type="curve" smooth="yes"/>
      <point x="121" y="531"/>
      <point x="184" y="595"/>
      <point x="297" y="595" type="curve" smooth="yes"/>
      <point x="385" y="595"/>
      <point x="458" y="564"/>
      <point x="458" y="564" type="curve"/>
      <point x="458" y="501" type="line"/>
      <point x="458" y="501"/>
      <point x="375" y="533"/>
      <point x="306" y="533" type="curve" smooth="yes"/>
      <point x="222" y="533"/>
      <point x="192" y="501"/>
      <point x="192" y="450" type="curve" smooth="yes"/>
      <point x="192" y="349"/>
      <point x="485" y="329"/>
    </contour>
    <contour>
      <point x="276" y="-99" type="curve"/>
      <point x="276" y="676" type="line"/>
      <point x="337" y="676" type="line"/>
      <point x="337" y="-99" type="line"/>
      <point x="337" y="-99"/>
      <point x="276" y="-99"/>
    </contour>
  </outline>
</glyph>
<glyph name="percent" format="1">
  <advance width="600"/>
  <unicode hex="0025"/>
  <outline>
    <contour>
      <point x="293" y="568"/>
      <point x="260" y="625"/>
      <point x="172" y="625" type="curve" smooth="yes"/>
      <point x="84" y="625"/>
      <point x="56" y="568"/>
      <point x="56" y="495" type="curve" smooth="yes"/>
      <point x="56" y="422"/>
      <point x="84" y="360"/>
      <point x="172" y="360" type="curve" smooth="yes"/>
      <point x="260" y="360"/>
      <point x="293" y="422"/>
      <point x="293" y="495" type="curve" smooth="yes"/>
    </contour>
    <contour>
      <point x="113" y="534"/>
      <point x="118" y="573"/>
      <point x="173" y="573" type="curve" smooth="yes"/>
      <point x="229" y="573"/>
      <point x="238" y="534"/>
      <point x="238" y="494" type="curve" smooth="yes"/>
      <point x="238" y="454"/>
      <point x="229" y="413"/>
      <point x="173" y="413" type="curve" smooth="yes"/>
      <point x="118" y="413"/>
      <point x="113" y="454"/>
      <point x="113" y="494" type="curve" smooth="yes"/>
    </contour>
    <contour>
      <point x="556" y="602" type="line"/>
      <point x="109" y="27" type="line"/>
      <point x="37" y="27" type="line"/>
      <point x="483" y="602" type="line"/>
    </contour>
    <contour>
      <point x="562" y="208"/>
      <point x="529" y="265"/>
      <point x="441" y="265" type="curve" smooth="yes"/>
      <point x="353" y="265"/>
      <point x="325" y="208"/>
      <point x="325" y="135" type="curve" smooth="yes"/>
      <point x="325" y="62"/>
      <point x="353" y="0"/>
      <point x="441" y="0" type="curve" smooth="yes"/>
      <point x="529" y="0"/>
      <point x="562" y="62"/>
      <point x="562" y="135" type="curve" smooth="yes"/>
    </contour>
    <contour>
      <point x="382" y="174"/>
      <point x="387" y="213"/>
      <point x="442" y="213" type="curve" smooth="yes"/>
      <point x="498" y="213"/>
      <point x="507" y="174"/>
      <point x="507" y="134" type="curve" smooth="yes"/>
      <point x="507" y="94"/>
      <point x="498" y="53"/>
      <point x="442" y="53" type="curve" smooth="yes"/>
      <point x="387" y="53"/>
      <point x="382" y="94"/>
      <point x="382" y="134" type="curve" smooth="yes"/>
    </contour>
  </outline>
</glyph>
<glyph name="ampersand" format="1">
  <advance width="550"/>
  <unicode hex="0026"/>
  <outline>
    <contour>
      <point x="549" y="0" type="line"/>
      <point x="199" y="427" type="line"/>
      <point x="199" y="427"/>
      <point x="136" y="499"/>
      <point x="136" y="546" type="curve" smooth="yes"/>
      <point x="136" y="596"/>
      <point x="163" y="628"/>
      <point x="223" y="628" type="curve" smooth="yes"/>
      <point x="283" y="628"/>
      <point x="321" y="598"/>
      <point x="323" y="551" type="curve"/>
      <point x="398" y="551" type="line"/>
      <point x="397" y="639"/>
      <point x="331" y="695"/>
      <point x="229" y="695" type="curve" smooth="yes"/>
      <point x="122" y="695"/>
      <point x="54" y="636"/>
      <point x="54" y="544" type="curve" smooth="yes"/>
      <point x="54" y="467"/>
      <point x="136" y="382"/>
      <point x="136" y="382" type="curve"/>
      <point x="445" y="0" type="line"/>
    </contour>
    <contour>
      <point x="181" y="407" type="line"/>
      <point x="139" y="382" type="line"/>
      <point x="139" y="382"/>
      <point x="18" y="320"/>
      <point x="18" y="178" type="curve" smooth="yes"/>
      <point x="18" y="76"/>
      <point x="117" y="-6"/>
      <point x="238" y="-6" type="curve" smooth="yes"/>
      <point x="387" y="-6"/>
      <point x="493" y="84"/>
      <point x="493" y="209" type="curve"/>
      <point x="493" y="310" type="line"/>
      <point x="420" y="310" type="line"/>
      <point x="420" y="209" type="line"/>
      <point x="420" y="122"/>
      <point x="350" y="59"/>
      <point x="253" y="59" type="curve" smooth="yes"/>
      <point x="159" y="59"/>
      <point x="99" y="105"/>
      <point x="99" y="177" type="curve" smooth="yes"/>
      <point x="99" y="276"/>
      <point x="178" y="327"/>
      <point x="178" y="327" type="curve"/>
      <point x="230" y="357" type="line"/>
    </contour>
  </outline>
</glyph>
<glyph name="quotesingle" format="1">
  <advance width="600"/>
  <unicode hex="0027"/>
  <outline>
    <contour>
      <point x="259" y="675" type="line"/>
      <point x="266" y="384" type="line"/>
      <point x="341" y="384" type="line"/>
      <point x="341" y="675" type="line"/>
    </contour>
  </outline>
</glyph>
<glyph name="parenleft" format="1">
  <advance width="600"/>
  <unicode hex="0028"/>
  <outline>
    <contour>
      <point x="402" y="626" type="line"/>
      <point x="402" y="626"/>
      <point x="267" y="484"/>
      <point x="267" y="239" type="curve" smooth="yes"/>
      <point x="267" y="-6"/>
      <point x="401" y="-158"/>
      <point x="401" y="-158" type="curve"/>
      <point x="358" y="-198" type="line"/>
      <point x="358" y="-198"/>
      <point x="197" y="-10"/>
      <point x="197" y="239" type="curve" smooth="yes"/>
      <point x="197" y="488"/>
      <point x="358" y="675"/>
      <point x="358" y="675" type="curve"/>
    </contour>
  </outline>
</glyph>
<glyph name="parenright" format="1">
  <advance width="600"/>
  <unicode hex="0029"/>
  <outline>
    <contour>
      <point x="197" y="626" type="curve"/>
      <point x="241" y="675" type="line"/>
      <point x="241" y="675"/>
      <point x="402" y="488"/>
      <point x="402" y="239" type="curve" smooth="yes"/>
      <point x="402" y="-10"/>
      <point x="241" y="-198"/>
      <point x="241" y="-198" type="curve"/>
      <point x="198" y="-158" type="line"/>
      <point x="198" y="-158"/>
      <point x="332" y="-6"/>
      <point x="332" y="239" type="curve" smooth="yes"/>
      <point x="332" y="484"/>
      <point x="197" y="626"/>
    </contour>
  </outline>
</glyph>
<glyph name="asterisk" format="1">
  <advance width="550"/>
  <unicode hex="002A"/>
  <outline>
    <contour>
      <point x="299" y="207" type="line"/>
      <point x="297" y="307" type="line"/>
      <point x="380" y="250" type="line"/>
      <point x="406" y="289" type="line"/>
      <point x="314" y="348" type="line"/>
      <point x="406" y="408" type="line"/>
      <point x="380" y="447" type="line"/>
      <point x="298" y="390" type="line"/>
      <point x="299" y="490" type="line"/>
      <point x="251" y="490" type="line"/>
      <point x="253" y="390" type="line"/>
      <point x="170" y="447" type="line"/>
      <point x="144" y="408" type="line"/>
      <point x="236" y="349" type="line"/>
      <point x="144" y="289" type="line"/>
      <point x="170" y="250" type="line"/>
      <point x="252" y="307" type="line"/>
      <point x="251" y="207" type="line"/>
    </contour>
  </outline>
</glyph>
<glyph name="plus" format="1">
  <advance width="600"/>
  <unicode hex="002B"/>
  <outline>
    <contour>
      <point x="323" y="440" type="line"/>
      <point x="323" y="99" type="line"/>
      <point x="275" y="99" type="line"/>
      <point x="275" y="440" type="line"/>
    </contour>
    <contour>
      <point x="470" y="246" type="line"/>
      <point x="129" y="246" type="line"/>
      <point x="129" y="293" type="line"/>
      <point x="470" y="293" type="line"/>
    </contour>
  </outline>
</glyph>
<glyph name="comma" format="1">
  <advance width="600"/>
  <unicode hex="002C"/>
  <outline>
    <contour>
      <point x="393" y="146" type="line"/>
      <point x="257" y="146" type="line"/>
      <point x="257" y="0" type="line"/>
      <point x="206" y="-147" type="line"/>
      <point x="307" y="-147" type="line"/>
      <point x="393" y="0" type="line"/>
    </contour>
  </outline>
</glyph>
<glyph name="hyphen" format="1">
  <advance width="550"/>
  <unicode hex="002D"/>
  <outline>
    <contour>
      <point x="455" y="193" type="line"/>
      <point x="95" y="193" type="line"/>
      <point x="95" y="273" type="line"/>
      <point x="455" y="273" type="line"/>
    </contour>
  </outline>
</glyph>
<glyph name="period" format="1">
  <advance width="600"/>
  <unicode hex="002E"/>
  <outline>
    <contour>
      <point x="363" y="146" type="line"/>
      <point x="237" y="146" type="line"/>
      <point x="237" y="0" type="line"/>
      <point x="363" y="0" type="line"/>
    </contour>
  </outline>
</glyph>
<glyph name="slash" format="1">
  <advance width="600"/>
  <unicode hex="002F"/>
  <outline>
    <contour>
      <point x="507" y="636" type="line"/>
      <point x="166" y="-98" type="line"/>
      <point x="93" y="-98" type="line"/>
      <point x="434" y="636" type="line"/>
    </contour>
  </outline>
</glyph>
<glyph name="zero" format="1">
  <advance width="600"/>
  <unicode hex="0030"/>
  <outline>
    <contour>
      <point x="299" y="63" type="curve" smooth="yes"/>
      <point x="204" y="63"/>
      <point x="161" y="140"/>
      <point x="161" y="312" type="curve" smooth="yes"/>
      <point x="161" y="485"/>
      <point x="204" y="563"/>
      <point x="299" y="563" type="curve" smooth="yes"/>
      <point x="394" y="563"/>
      <point x="437" y="485"/>
      <point x="437" y="312" type="curve" smooth="yes"/>
      <point x="437" y="140"/>
      <point x="394" y="63"/>
    </contour>
    <contour>
      <point x="112" y="176" type="line"/>
      <point x="161" y="127" type="line"/>
      <point x="485" y="450" type="line"/>
      <point x="436" y="499" type="line"/>
    </contour>
    <contour>
      <point x="299" y="632" type="curve" smooth="yes"/>
      <point x="146" y="632"/>
      <point x="78" y="533"/>
      <point x="78" y="312" type="curve" smooth="yes"/>
      <point x="78" y="93"/>
      <point x="146" y="-6"/>
      <point x="299" y="-6" type="curve" smooth="yes"/>
      <point x="453" y="-6"/>
      <point x="521" y="93"/>
      <point x="521" y="312" type="curve" smooth="yes"/>
      <point x="521" y="533"/>
      <point x="453" y="632"/>
    </contour>
  </outline>
</glyph>
<glyph name="one" format="1">
  <advance width="600"/>
  <unicode hex="0031"/>
  <outline>
    <contour>
      <point x="347" y="69" type="line"/>
      <point x="347" y="626" type="line"/>
      <point x="252" y="626" type="line"/>
      <point x="142" y="599" type="line"/>
      <point x="142" y="529" type="line"/>
      <point x="252" y="543" type="line"/>
      <point x="252" y="69" type="line"/>
      <point x="101" y="69" type="line"/>
      <point x="101" y="0" type="line"/>
      <point x="499" y="0" type="line"/>
      <point x="499" y="69" type="line"/>
    </contour>
  </outline>
</glyph>
<glyph name="two" format="1">
  <advance width="600"/>
  <unicode hex="0032"/>
  <outline>
    <contour>
      <point x="392" y="455" type="curve" smooth="yes"/>
      <point x="392" y="518"/>
      <point x="351" y="553"/>
      <point x="274" y="553" type="curve" smooth="yes"/>
      <point x="181" y="553"/>
      <point x="80" y="479"/>
      <point x="80" y="479" type="curve"/>
      <point x="80" y="566" type="line"/>
      <point x="80" y="566"/>
      <point x="170" y="632"/>
      <point x="282" y="632" type="curve" smooth="yes"/>
      <point x="411" y="632"/>
      <point x="479" y="571"/>
      <point x="479" y="457" type="curve" smooth="yes"/>
      <point x="479" y="365"/>
      <point x="416" y="304"/>
      <point x="416" y="304" type="curve"/>
      <point x="201" y="80" type="line"/>
      <point x="519" y="80" type="line"/>
      <point x="519" y="0" type="line"/>
      <point x="81" y="0" type="line"/>
      <point x="81" y="69" type="line"/>
      <point x="358" y="357" type="line"/>
      <point x="358" y="357"/>
      <point x="392" y="390"/>
    </contour>
  </outline>
</glyph>
<glyph name="seven" format="1">
  <advance width="600"/>
  <unicode hex="0037"/>
  <outline>
    <contour>
      <point x="511" y="538" type="line" smooth="yes"/>
      <point x="511" y="626" type="line"/>
      <point x="89" y="626" type="line"/>
      <point x="89" y="539" type="line"/>
      <point x="416" y="539" type="line"/>
      <point x="154" y="0" type="line"/>
      <point x="260" y="0" type="line"/>
    </contour>
  </outline>
</glyph>
<glyph name="colon" format="1">
  <advance width="600"/>
  <unicode hex="003A"/>
  <outline>
    <contour>
      <point x="363" y="146" type="line"/>
      <point x="237" y="146" type="line"/>
      <point x="237" y="0" type="line"/>
      <point x="363" y="0" type="line"/>
    </contour>
    <contour>
      <point x="363" y="488" type="line"/>
      <point x="237" y="488" type="line"/>
      <point x="237" y="342" type="line"/>
      <point x="363" y="342" type="line"/>
    </contour>
  </outline>
</glyph>
<glyph name="semicolon" format="1">
  <advance width="600"/>
  <unicode hex="003B"/>
  <outline>
    <contour>
      <point x="271" y="342" type="line"/>
      <point x="379" y="342" type="line"/>
    </contour>
    <contour>
      <point x="388" y="488" type="line"/>
      <point x="262" y="488" type="line"/>
      <point x="262" y="342" type="line"/>
      <point x="388" y="342" type="line"/>
    </contour>
    <contour>
      <point x="388" y="146" type="line"/>
      <point x="262" y="146" type="line"/>
      <point x="262" y="0" type="line"/>
      <point x="211" y="-147" type="line"/>
      <point x="312" y="-147" type="line"/>
      <point x="388" y="0" type="line"/>
    </contour>
  </outline>
</glyph>
<glyph name="less" format="1">
  <advance width="550"/>
  <unicode hex="003C"/>
  <outline>
    <contour>
      <point x="449" y="499" type="line"/>
      <point x="101" y="300" type="line"/>
      <point x="101" y="300"/>
      <point x="101" y="200"/>
      <point x="101" y="200" type="curve"/>
      <point x="449" y="-6" type="line"/>
      <point x="449" y="87" type="line"/>
      <point x="178" y="250" type="line"/>
      <point x="449" y="411" type="line"/>
    </contour>
  </outline>
</glyph>
<glyph name="equal" format="1">
  <advance width="550"/>
  <unicode hex="003D"/>
  <outline>
    <contour>
      <point x="450" y="200" type="line"/>
      <point x="100" y="200" type="line"/>
      <point x="100" y="249" type="line"/>
      <point x="450" y="249" type="line"/>
    </contour>
    <contour>
      <point x="450" y="350" type="line"/>
      <point x="100" y="350" type="line"/>
      <point x="100" y="399" type="line"/>
      <point x="450" y="399" type="line"/>
    </contour>
  </outline>
</glyph>
<glyph name="greater" format="1">
  <advance width="550"/>
  <unicode hex="003E"/>
  <outline>
    <contour>
      <point x="101" y="499" type="line"/>
      <point x="101" y="411" type="line"/>
      <point x="372" y="250" type="line"/>
      <point x="101" y="87" type="line"/>
      <point x="101" y="-6" type="line"/>
      <point x="449" y="200" type="line"/>
      <point x="449" y="200"/>
      <point x="449" y="300"/>
      <point x="449" y="300" type="curve"/>
    </contour>
  </outline>
</glyph>
<glyph name="question" format="1">
  <advance width="550"/>
  <unicode hex="003F"/>
  <outline>
    <contour>
      <point x="204" y="282" type="line" smooth="yes"/>
      <point x="204" y="403"/>
      <point x="385" y="432"/>
      <point x="385" y="514" type="curve" smooth="yes"/>
      <point x="385" y="620"/>
      <point x="256" y="610"/>
      <point x="256" y="610" type="curve"/>
      <point x="140" y="610"/>
      <point x="94" y="547"/>
      <point x="94" y="547" type="curve"/>
      <point x="48" y="605" type="line"/>
      <point x="48" y="605"/>
      <point x="132" y="690"/>
      <point x="256" y="690" type="curve" smooth="yes"/>
      <point x="395" y="690"/>
      <point x="477" y="621"/>
      <point x="477" y="505" type="curve" smooth="yes"/>
      <point x="477" y="399"/>
      <point x="300" y="367"/>
      <point x="300" y="279" type="curve" smooth="yes"/>
      <point x="300" y="244" type="line"/>
      <point x="204" y="244" type="line"/>
    </contour>
    <contour>
      <point x="300" y="99" type="line"/>
      <point x="204" y="99" type="line"/>
      <point x="204" y="0" type="line"/>
      <point x="300" y="0" type="line"/>
    </contour>
  </outline>
</glyph>
<glyph name="at" format="1">
  <advance width="550"/>
  <unicode hex="0040"/>
  <outline>
    <contour>
      <point x="345" y="326" type="curve"/>
      <point x="350" y="397" type="line"/>
      <point x="350" y="397"/>
      <point x="284" y="412"/>
      <point x="208" y="412" type="curve" smooth="yes"/>
      <point x="102" y="412"/>
      <point x="0" y="371"/>
      <point x="0" y="209" type="curve" smooth="yes"/>
      <point x="0" y="47"/>
      <point x="90" y="-11"/>
      <point x="173" y="-11" type="curve" smooth="yes"/>
      <point x="278" y="-11"/>
      <point x="309" y="98"/>
      <point x="309" y="98" type="curve"/>
      <point x="292" y="140" type="line"/>
      <point x="292" y="140"/>
      <point x="253" y="51"/>
      <point x="174" y="51" type="curve" smooth="yes"/>
      <point x="123" y="51"/>
      <point x="84" y="103"/>
      <point x="84" y="206" type="curve" smooth="yes"/>
      <point x="84" y="305"/>
      <point x="125" y="341"/>
      <point x="204" y="341" type="curve" smooth="yes"/>
      <point x="272" y="341"/>
      <point x="345" y="326"/>
    </contour>
    <contour>
      <point x="275" y="95" type="line"/>
      <point x="275" y="95"/>
      <point x="264" y="-6"/>
      <point x="377" y="-6" type="curve" smooth="yes"/>
      <point x="460" y="-6"/>
      <point x="509" y="107"/>
      <point x="509" y="296" type="curve" smooth="yes"/>
      <point x="509" y="516"/>
      <point x="409" y="647"/>
      <point x="242" y="647" type="curve" smooth="yes"/>
      <point x="107" y="647"/>
      <point x="33" y="555"/>
      <point x="33" y="555" type="curve"/>
      <point x="92" y="517" type="line" smooth="yes"/>
      <point x="92" y="517"/>
      <point x="134" y="586"/>
      <point x="246" y="586" type="curve" smooth="yes"/>
      <point x="375" y="586"/>
      <point x="451" y="483"/>
      <point x="451" y="311" type="curve" smooth="yes"/>
      <point x="451" y="145"/>
      <point x="422" y="46"/>
      <point x="374" y="46" type="curve" smooth="yes"/>
      <point x="347" y="46"/>
      <point x="350" y="95"/>
      <point x="350" y="95" type="curve"/>
      <point x="350" y="397" type="line"/>
      <point x="275" y="369" type="line"/>
    </contour>
  </outline>
</glyph>
<glyph name="A" format="1">
  <advance width="550"/>
  <unicode hex="0041"/>
  <outline>
    <contour>
      <point x="548" y="0" type="line"/>
      <point x="317" y="640" type="line"/>
      <point x="233" y="640" type="line"/>
      <point x="2" y="0" type="line"/>
      <point x="98" y="0" type="line"/>
      <point x="277" y="524" type="line"/>
      <point x="275" y="524" type="line"/>
      <point x="273" y="524" type="line"/>
      <point x="452" y="0" type="line"/>
    </contour>
    <contour>
      <point x="447" y="157" type="line"/>
      <point x="447" y="217" type="line"/>
      <point x="102" y="217" type="line"/>
      <point x="102" y="157" type="line"/>
    </contour>
    <contour>
      <point x="277" y="514" type="move"/>
    </contour>
  </outline>
</glyph>
<glyph name="C" format="1">
  <advance width="600"/>
  <unicode hex="0043"/>
  <outline>
    <contour>
      <point x="337" y="559" type="curve" smooth="yes"/>
      <point x="439" y="559"/>
      <point x="520" y="528"/>
      <point x="520" y="528" type="curve"/>
      <point x="520" y="596" type="line"/>
      <point x="520" y="596"/>
      <point x="458" y="632"/>
      <point x="329" y="632" type="curve" smooth="yes"/>
      <point x="173" y="632"/>
      <point x="80" y="513"/>
      <point x="80" y="312" type="curve" smooth="yes"/>
      <point x="80" y="113"/>
      <point x="173" y="-6"/>
      <point x="329" y="-6" type="curve" smooth="yes"/>
      <point x="458" y="-6"/>
      <point x="520" y="30"/>
      <point x="520" y="30" type="curve"/>
      <point x="520" y="112" type="line"/>
      <point x="520" y="112"/>
      <point x="449" y="70"/>
      <point x="343" y="70" type="curve" smooth="yes"/>
      <point x="240" y="70"/>
      <point x="180" y="160"/>
      <point x="180" y="312" type="curve" smooth="yes"/>
      <point x="180" y="467"/>
      <point x="238" y="559"/>
    </contour>
  </outline>
</glyph>
<glyph name="D" format="1">
  <advance width="600"/>
  <unicode hex="0044"/>
  <outline>
    <contour>
      <point x="159" y="1" type="line"/>
      <point x="66" y="1" type="line"/>
      <point x="66" y="626" type="line"/>
      <point x="159" y="626" type="line"/>
    </contour>
    <contour>
      <point x="237" y="550" type="curve" smooth="yes"/>
      <point x="89" y="550" type="line"/>
      <point x="89" y="626" type="line"/>
      <point x="89" y="626"/>
      <point x="99" y="626"/>
      <point x="143" y="626" type="curve" smooth="yes"/>
      <point x="165" y="626"/>
      <point x="196" y="626"/>
      <point x="239" y="626" type="curve" smooth="yes"/>
      <point x="439" y="625"/>
      <point x="534" y="528"/>
      <point x="534" y="325" type="curve" smooth="yes"/>
      <point x="534" y="105"/>
      <point x="442" y="0"/>
      <point x="247" y="0" type="curve" smooth="yes"/>
      <point x="119" y="0"/>
      <point x="84" y="1"/>
      <point x="84" y="1" type="curve"/>
      <point x="84" y="77" type="line"/>
      <point x="224" y="77" type="line" smooth="yes"/>
      <point x="381" y="77"/>
      <point x="456" y="157"/>
      <point x="456" y="325" type="curve" smooth="yes"/>
      <point x="456" y="477"/>
      <point x="385" y="550"/>
    </contour>
  </outline>
</glyph>
<glyph name="E" format="1">
  <advance width="600"/>
  <unicode hex="0045"/>
  <outline>
    <contour>
      <point x="395" y="286" type="line"/>
      <point x="101" y="286" type="line"/>
      <point x="101" y="354" type="line"/>
      <point x="395" y="354" type="line"/>
    </contour>
    <contour>
      <point x="499" y="0" type="line"/>
      <point x="101" y="0" type="line"/>
      <point x="101" y="68" type="line"/>
      <point x="499" y="68" type="line"/>
    </contour>
    <contour>
      <point x="194" y="0" type="line"/>
      <point x="101" y="0" type="line"/>
      <point x="101" y="623" type="line"/>
      <point x="194" y="623" type="line"/>
    </contour>
    <contour>
      <point x="499" y="558" type="line"/>
      <point x="101" y="558" type="line"/>
      <point x="101" y="626" type="line"/>
      <point x="499" y="626" type="line"/>
    </contour>
  </outline>
</glyph>
<glyph name="L" format="1">
  <advance width="600"/>
  <unicode hex="004C"/>
  <outline>
    <contour>
      <point x="499" y="0" type="line"/>
      <point x="101" y="0" type="line"/>
      <point x="101" y="69" type="line"/>
      <point x="499" y="69" type="line"/>
    </contour>
    <contour>
      <point x="196" y="0" type="line"/>
      <point x="101" y="0" type="line"/>
      <point x="101" y="626" type="line"/>
      <point x="196" y="626" type="line"/>
    </contour>
  </outline>
</glyph>
<glyph name="N" format="1">
  <advance width="600"/>
  <unicode hex="004E"/>
  <outline>
    <contour>
      <point x="172" y="625" type="line"/>
      <point x="510" y="0" type="line"/>
      <point x="427" y="0" type="line"/>
      <point x="121" y="564" type="line"/>
    </contour>
    <contour>
      <point x="172" y="0" type="line"/>
      <point x="82" y="0" type="line"/>
      <point x="82" y="626" type="line"/>
      <point x="172" y="626" type="line"/>
    </contour>
    <contour>
      <point x="517" y="0" type="line"/>
      <point x="427" y="0" type="line"/>
      <point x="427" y="626" type="line"/>
      <point x="517" y="626" type="line"/>
    </contour>
  </outline>
</glyph>
<glyph name="P" format="1">
  <advance width="600"/>
  <unicode hex="0050"/>
  <outline>
    <contour>
      <point x="186" y="299" type="curve"/>
      <point x="186" y="549" type="line"/>
      <point x="365" y="549"/>
      <point x="417" y="521"/>
      <point x="417" y="429" type="curve" smooth="yes"/>
      <point x="417" y="329"/>
      <point x="365" y="299"/>
    </contour>
    <contour>
      <point x="506" y="432" type="curve" smooth="yes"/>
      <point x="506" y="578"/>
      <point x="433" y="621"/>
      <point x="186" y="623" type="curve"/>
      <point x="186" y="623" type="line"/>
      <point x="93" y="623" type="line"/>
      <point x="93" y="0" type="line"/>
      <point x="186" y="0" type="line"/>
      <point x="186" y="225" type="line"/>
      <point x="433" y="228"/>
      <point x="506" y="275"/>
    </contour>
  </outline>
</glyph>
<glyph name="S" format="1">
  <advance width="600"/>
  <unicode hex="0053"/>
  <outline>
    <contour>
      <point x="511" y="173" type="curve" smooth="yes"/>
      <point x="511" y="3"/>
      <point x="369" y="-6"/>
      <point x="268" y="-6" type="curve" smooth="yes"/>
      <point x="166" y="-6"/>
      <point x="122" y="14"/>
      <point x="88" y="23" type="curve"/>
      <point x="88" y="110" type="line"/>
      <point x="88" y="110"/>
      <point x="185" y="73"/>
      <point x="270" y="73" type="curve" smooth="yes"/>
      <point x="338" y="73"/>
      <point x="427" y="87"/>
      <point x="427" y="170" type="curve" smooth="yes"/>
      <point x="427" y="290"/>
      <point x="96" y="256"/>
      <point x="96" y="468" type="curve" smooth="yes"/>
      <point x="96" y="557"/>
      <point x="166" y="628"/>
      <point x="292" y="628" type="curve" smooth="yes"/>
      <point x="391" y="628"/>
      <point x="472" y="594"/>
      <point x="472" y="594" type="curve"/>
      <point x="472" y="515" type="line"/>
      <point x="472" y="515"/>
      <point x="380" y="549"/>
      <point x="302" y="549" type="curve" smooth="yes"/>
      <point x="208" y="549"/>
      <point x="183" y="514"/>
      <point x="183" y="456" type="curve" smooth="yes"/>
      <point x="183" y="343"/>
      <point x="511" y="356"/>
    </contour>
  </outline>
</glyph>
<glyph name="T" format="1">
  <advance width="600"/>
  <unicode hex="0054"/>
  <outline>
    <contour>
      <point x="499" y="625" type="line"/>
      <point x="101" y="625" type="line"/>
      <point x="101" y="556" type="line"/>
      <point x="253" y="556" type="line"/>
      <point x="253" y="1" type="line"/>
      <point x="348" y="1" type="line"/>
      <point x="348" y="556" type="line"/>
      <point x="499" y="556" type="line"/>
    </contour>
  </outline>
</glyph>
<glyph name="U" format="1">
  <advance width="600"/>
  <unicode hex="0055"/>
  <outline>
    <contour>
      <point x="530" y="626" type="line"/>
      <point x="441" y="626" type="line"/>
      <point x="441" y="244" type="line" smooth="yes"/>
      <point x="441" y="126"/>
      <point x="394" y="67"/>
      <point x="300" y="67" type="curve" smooth="yes"/>
      <point x="206" y="67"/>
      <point x="159" y="126"/>
      <point x="159" y="244" type="curve" smooth="yes"/>
      <point x="159" y="626" type="line"/>
      <point x="70" y="626" type="line"/>
      <point x="70" y="244" type="line" smooth="yes"/>
      <point x="70" y="77"/>
      <point x="147" y="-6"/>
      <point x="300" y="-6" type="curve" smooth="yes"/>
      <point x="453" y="-6"/>
      <point x="530" y="77"/>
      <point x="530" y="244" type="curve" smooth="yes"/>
    </contour>
  </outline>
</glyph>
<glyph name="Y" format="1">
  <advance width="600"/>
  <unicode hex="0059"/>
  <outline>
    <contour>
      <point x="455" y="626" type="line"/>
      <point x="294" y="353" type="line"/>
      <point x="311" y="353" type="line"/>
      <point x="145" y="626" type="line"/>
      <point x="56" y="626" type="line"/>
      <point x="266" y="295" type="line"/>
      <point x="257" y="332" type="line"/>
      <point x="257" y="0" type="line"/>
      <point x="348" y="0" type="line"/>
      <point x="348" y="335" type="line"/>
      <point x="341" y="297" type="line"/>
      <point x="544" y="626" type="line"/>
    </contour>
  </outline>
</glyph>
<glyph name="bracketleft" format="1">
  <advance width="600"/>
  <unicode hex="005B"/>
  <outline>
    <contour>
      <point x="397" y="-198" type="line"/>
      <point x="397" y="-148" type="line"/>
      <point x="248" y="-148" type="line"/>
      <point x="248" y="636" type="line"/>
      <point x="397" y="636" type="line"/>
      <point x="397" y="675" type="line"/>
      <point x="203" y="675" type="line"/>
      <point x="203" y="-198" type="line"/>
    </contour>
  </outline>
</glyph>
<glyph name="backslash" format="1">
  <advance width="550"/>
  <unicode hex="005C"/>
  <outline>
    <contour>
      <point x="78" y="650" type="line"/>
      <point x="153" y="650" type="line"/>
      <point x="501" y="-100" type="line"/>
      <point x="427" y="-100" type="line"/>
    </contour>
  </outline>
</glyph>
<glyph name="bracketright" format="1">
  <advance width="600"/>
  <unicode hex="005D"/>
  <outline>
    <contour>
      <point x="203" y="-198" type="line"/>
      <point x="203" y="-148" type="line"/>
      <point x="322" y="-148" type="line"/>
      <point x="322" y="636" type="line"/>
      <point x="203" y="636" type="line"/>
      <point x="203" y="675" type="line"/>
      <point x="397" y="675" type="line"/>
      <point x="397" y="-198" type="line"/>
    </contour>
  </outline>
</glyph>
<glyph name="underscore" format="1">
  <advance width="600"/>
  <unicode hex="005F"/>
  <outline>
    <contour>
      <point x="567" y="-198" type="line"/>
      <point x="32" y="-198" type="line"/>
      <point x="32" y="-139" type="line"/>
      <point x="567" y="-139" type="line"/>
    </contour>
  </outline>
</glyph>
<glyph name="a" format="1">
  <advance width="600"/>
  <unicode hex="0061"/>
  <outline>
    <contour>
      <point x="423" y="295" type="curve"/>
      <point x="423" y="246" type="line"/>
      <point x="389" y="246"/>
      <point x="179" y="266"/>
      <point x="179" y="150" type="curve" smooth="yes"/>
      <point x="179" y="92"/>
      <point x="216" y="57"/>
      <point x="275" y="57" type="curve" smooth="yes"/>
      <point x="345" y="57"/>
      <point x="425" y="111"/>
      <point x="425" y="111" type="curve"/>
      <point x="445" y="55" type="line"/>
      <point x="445" y="55"/>
      <point x="376" y="-5"/>
      <point x="247" y="-5" type="curve" smooth="yes"/>
      <point x="157" y="-5"/>
      <point x="101" y="47"/>
      <point x="101" y="130" type="curve"/>
      <point x="101" y="349"/>
      <point x="361" y="295"/>
    </contour>
    <contour>
      <point x="121" y="425" type="line"/>
      <point x="121" y="425"/>
      <point x="208" y="489"/>
      <point x="299" y="489" type="curve" smooth="yes"/>
      <point x="439" y="489"/>
      <point x="498" y="437"/>
      <point x="498" y="315" type="curve" smooth="yes"/>
      <point x="498" y="197"/>
      <point x="498" y="1"/>
      <point x="498" y="1" type="curve"/>
      <point x="414" y="1" type="line"/>
      <point x="414" y="1"/>
      <point x="414" y="256"/>
      <point x="414" y="312" type="curve" smooth="yes"/>
      <point x="414" y="390"/>
      <point x="379" y="424"/>
      <point x="295" y="424" type="curve" smooth="yes"/>
      <point x="204" y="424"/>
      <point x="157" y="372"/>
      <point x="157" y="372" type="curve"/>
    </contour>
  </outline>
</glyph>
<glyph name="d" format="1">
  <advance width="600"/>
  <unicode hex="0064"/>
  <outline>
    <contour>
      <point x="499" y="675" type="line"/>
      <point x="499" y="0" type="line"/>
      <point x="416" y="0" type="line"/>
      <point x="416" y="675" type="line"/>
    </contour>
    <contour>
      <point x="499" y="398" type="line"/>
      <point x="499" y="398"/>
      <point x="417" y="424"/>
      <point x="331" y="424" type="curve" smooth="yes"/>
      <point x="232" y="424"/>
      <point x="183" y="367"/>
      <point x="183" y="253" type="curve" smooth="yes"/>
      <point x="183" y="130"/>
      <point x="218" y="69"/>
      <point x="289" y="69" type="curve" smooth="yes"/>
      <point x="385" y="69"/>
      <point x="435" y="181"/>
      <point x="435" y="181" type="curve"/>
      <point x="444" y="121" type="line"/>
      <point x="444" y="121"/>
      <point x="380" y="-6"/>
      <point x="288" y="-6" type="curve" smooth="yes"/>
      <point x="163" y="-6"/>
      <point x="101" y="79"/>
      <point x="101" y="250" type="curve" smooth="yes"/>
      <point x="101" y="409"/>
      <point x="177" y="488"/>
      <point x="327" y="488" type="curve" smooth="yes"/>
      <point x="416" y="488"/>
      <point x="499" y="470"/>
      <point x="499" y="470" type="curve"/>
    </contour>
  </outline>
</glyph>
<glyph name="f" format="1">
  <advance width="600"/>
  <unicode hex="0066"/>
  <outline>
    <contour>
      <point x="499" y="338" type="line"/>
      <point x="101" y="338" type="line"/>
      <point x="101" y="407" type="line"/>
      <point x="499" y="407" type="line"/>
    </contour>
    <contour>
      <point x="302" y="488" type="curve" smooth="yes"/>
      <point x="302" y="0" type="line"/>
      <point x="220" y="0" type="line"/>
      <point x="220" y="0"/>
      <point x="220" y="411"/>
      <point x="220" y="488" type="curve" smooth="yes"/>
      <point x="220" y="628"/>
      <point x="260" y="680"/>
      <point x="369" y="680" type="curve" smooth="yes"/>
      <point x="452" y="680"/>
      <point x="486" y="660"/>
      <point x="486" y="660" type="curve"/>
      <point x="486" y="590" type="line"/>
      <point x="486" y="590"/>
      <point x="449" y="610"/>
      <point x="373" y="610" type="curve" smooth="yes"/>
      <point x="316" y="610"/>
      <point x="302" y="586"/>
    </contour>
  </outline>
</glyph>
<glyph name="h" format="1">
  <advance width="600"/>
  <unicode hex="0068"/>
  <outline>
    <contour>
      <point x="101" y="675" type="line"/>
      <point x="101" y="0" type="line"/>
      <point x="184" y="0" type="line"/>
      <point x="184" y="675" type="line"/>
    </contour>
    <contour>
      <point x="499" y="232" type="line" smooth="yes"/>
      <point x="499" y="364"/>
      <point x="458" y="488"/>
      <point x="325" y="488" type="curve" smooth="yes"/>
      <point x="246" y="488"/>
      <point x="202" y="427"/>
      <point x="156" y="361" type="curve"/>
      <point x="165" y="301" type="line"/>
      <point x="192" y="368"/>
      <point x="234" y="413"/>
      <point x="307" y="413" type="curve" smooth="yes"/>
      <point x="397" y="413"/>
      <point x="417" y="319"/>
      <point x="417" y="229" type="curve" smooth="yes"/>
      <point x="417" y="0" type="line"/>
      <point x="499" y="0" type="line"/>
    </contour>
  </outline>
</glyph>
<glyph name="j" format="1">
  <advance width="600"/>
  <unicode hex="006A"/>
  <outline>
    <contour>
      <point x="459" y="411" type="line"/>
      <point x="201" y="411" type="line"/>
      <point x="201" y="479" type="line"/>
      <point x="459" y="479" type="line"/>
    </contour>
    <contour>
      <point x="469" y="616" type="curve" smooth="yes"/>
      <point x="469" y="652"/>
      <point x="441" y="680"/>
      <point x="406" y="680" type="curve" smooth="yes"/>
      <point x="369" y="680"/>
      <point x="341" y="652"/>
      <point x="341" y="616" type="curve" smooth="yes"/>
      <point x="341" y="580"/>
      <point x="369" y="552"/>
      <point x="406" y="552" type="curve" smooth="yes"/>
      <point x="441" y="552"/>
      <point x="469" y="580"/>
    </contour>
    <contour>
      <point x="381" y="82" type="curve" smooth="yes"/>
      <point x="381" y="479" type="line"/>
      <point x="463" y="479" type="line"/>
      <point x="463" y="479"/>
      <point x="463" y="159"/>
      <point x="463" y="82" type="curve" smooth="yes"/>
      <point x="463" y="-132"/>
      <point x="415" y="-206"/>
      <point x="278" y="-206" type="curve" smooth="yes"/>
      <point x="217" y="-206"/>
      <point x="179" y="-202"/>
      <point x="130" y="-186" type="curve"/>
      <point x="130" y="-109" type="line"/>
      <point x="182" y="-125"/>
      <point x="216" y="-131"/>
      <point x="265" y="-131" type="curve" smooth="yes"/>
      <point x="351" y="-131"/>
      <point x="381" y="-76"/>
    </contour>
  </outline>
</glyph>
<glyph name="l" format="1">
  <advance width="600"/>
  <unicode hex="006C"/>
  <outline>
    <contour>
      <point x="395" y="69" type="curve" smooth="yes"/>
      <point x="325" y="69"/>
      <point x="318" y="145"/>
      <point x="318" y="218" type="curve" smooth="yes"/>
      <point x="318" y="228"/>
      <point x="318" y="238"/>
      <point x="318" y="248" type="curve" smooth="yes"/>
      <point x="318" y="626" type="line"/>
      <point x="147" y="626" type="line"/>
      <point x="147" y="558" type="line"/>
      <point x="235" y="558" type="line"/>
      <point x="235" y="283" type="line" smooth="yes"/>
      <point x="235" y="136"/>
      <point x="236" y="-6"/>
      <point x="383" y="-6" type="curve" smooth="yes"/>
      <point x="408" y="-6"/>
      <point x="430" y="-2"/>
      <point x="453" y="5" type="curve"/>
      <point x="453" y="75" type="line"/>
      <point x="434" y="71"/>
      <point x="414" y="69"/>
    </contour>
  </outline>
</glyph>
<glyph name="n" format="1">
  <advance width="600"/>
  <unicode hex="006E"/>
  <outline>
    <contour>
      <point x="184" y="0" type="line"/>
      <point x="184" y="479" type="line"/>
      <point x="101" y="479" type="line"/>
      <point x="101" y="0" type="line"/>
    </contour>
    <contour>
      <point x="499" y="232" type="line" smooth="yes"/>
      <point x="499" y="406"/>
      <point x="442" y="488"/>
      <point x="322" y="488" type="curve" smooth="yes"/>
      <point x="231" y="488"/>
      <point x="156" y="361"/>
      <point x="156" y="361" type="curve"/>
      <point x="165" y="301" type="line"/>
      <point x="165" y="301"/>
      <point x="215" y="413"/>
      <point x="311" y="413" type="curve" smooth="yes"/>
      <point x="383" y="413"/>
      <point x="417" y="354"/>
      <point x="417" y="229" type="curve" smooth="yes"/>
      <point x="417" y="0" type="line"/>
      <point x="499" y="0" type="line"/>
    </contour>
  </outline>
</glyph>
<glyph name="p" format="1">
  <advance width="600"/>
  <unicode hex="0070"/>
  <outline>
    <contour>
      <point x="326" y="0" type="move"/>
    </contour>
    <contour>
      <point x="101" y="-198" type="line"/>
      <point x="101" y="479" type="line"/>
      <point x="184" y="479" type="line"/>
      <point x="184" y="-198" type="line"/>
    </contour>
    <contour>
      <point x="101" y="84" type="line"/>
      <point x="156" y="68"/>
      <point x="224" y="59"/>
      <point x="264" y="59" type="curve" smooth="yes"/>
      <point x="368" y="59"/>
      <point x="417" y="120"/>
      <point x="417" y="227" type="curve" smooth="yes"/>
      <point x="417" y="291"/>
      <point x="399" y="413"/>
      <point x="311" y="413" type="curve" smooth="yes"/>
      <point x="248" y="413"/>
      <point x="195" y="362"/>
      <point x="155" y="301" type="curve"/>
      <point x="156" y="361" type="line"/>
      <point x="196" y="429"/>
      <point x="238" y="487"/>
      <point x="319" y="488" type="curve" smooth="yes"/>
      <point x="444" y="490"/>
      <point x="499" y="351"/>
      <point x="499" y="230" type="curve" smooth="yes"/>
      <point x="499" y="78"/>
      <point x="419" y="-7"/>
      <point x="254" y="-6" type="curve" smooth="yes"/>
      <point x="189" y="-6"/>
      <point x="158" y="8"/>
      <point x="101" y="18" type="curve"/>
    </contour>
  </outline>
</glyph>
<glyph name="t" format="1">
  <advance width="600"/>
  <unicode hex="0074"/>
  <outline>
    <contour>
      <point x="499" y="79" type="line"/>
      <point x="460" y="71"/>
      <point x="439" y="69"/>
      <point x="418" y="69" type="curve" smooth="yes"/>
      <point x="327" y="69"/>
      <point x="302" y="104"/>
      <point x="302" y="225" type="curve" smooth="yes"/>
      <point x="302" y="675" type="line"/>
      <point x="220" y="675" type="line"/>
      <point x="220" y="675"/>
      <point x="220" y="302"/>
      <point x="220" y="225" type="curve" smooth="yes"/>
      <point x="220" y="44"/>
      <point x="260" y="-6"/>
      <point x="407" y="-6" type="curve" smooth="yes"/>
      <point x="436" y="-6"/>
      <point x="462" y="-4"/>
      <point x="499" y="3" type="curve"/>
    </contour>
    <contour>
      <point x="499" y="411" type="line"/>
      <point x="499" y="479" type="line"/>
      <point x="101" y="479" type="line"/>
      <point x="101" y="411" type="line"/>
    </contour>
  </outline>
</glyph>
<glyph name="u" format="1">
  <advance width="600"/>
  <unicode hex="0075"/>
  <outline>
    <contour>
      <point x="416" y="479" type="line"/>
      <point x="416" y="0" type="line"/>
      <point x="499" y="0" type="line"/>
      <point x="499" y="479" type="line"/>
    </contour>
    <contour>
      <point x="101" y="250" type="line"/>
      <point x="101" y="120"/>
      <point x="148" y="-6"/>
      <point x="279" y="-6" type="curve" smooth="yes"/>
      <point x="358" y="-6"/>
      <point x="400" y="56"/>
      <point x="444" y="121" type="curve"/>
      <point x="435" y="181" type="line"/>
      <point x="406" y="114"/>
      <point x="362" y="69"/>
      <point x="289" y="69" type="curve" smooth="yes"/>
      <point x="201" y="69"/>
      <point x="183" y="165"/>
      <point x="183" y="253" type="curve" smooth="yes"/>
      <point x="183" y="479" type="line"/>
      <point x="101" y="479" type="line"/>
    </contour>
  </outline>
</glyph>
<glyph name="x" format="1">
  <advance width="600"/>
  <unicode hex="0078"/>
  <outline>
    <contour>
      <point x="546" y="479" type="line"/>
      <point x="447" y="479" type="line"/>
      <point x="290" y="279" type="line"/>
      <point x="310" y="279" type="line"/>
      <point x="157" y="479" type="line"/>
      <point x="53" y="479" type="line"/>
      <point x="250" y="233" type="line"/>
      <point x="256" y="248" type="line"/>
      <point x="58" y="0" type="line"/>
      <point x="157" y="0" type="line"/>
      <point x="305" y="194" type="line"/>
      <point x="289" y="194" type="line"/>
      <point x="441" y="0" type="line"/>
      <point x="546" y="0" type="line"/>
      <point x="347" y="248" type="line"/>
      <point x="347" y="231" type="line"/>
    </contour>
  </outline>
</glyph>
<glyph name="z" format="1">
  <advance width="600"/>
  <unicode hex="007A"/>
  <outline>
    <contour>
      <point x="487" y="411" type="line"/>
      <point x="113" y="411" type="line"/>
      <point x="113" y="479" type="line"/>
      <point x="487" y="479" type="line"/>
    </contour>
    <contour>
      <point x="499" y="0" type="line"/>
      <point x="101" y="0" type="line"/>
      <point x="101" y="68" type="line"/>
      <point x="499" y="68" type="line"/>
    </contour>
    <contour>
      <point x="487" y="411" type="line"/>
      <point x="154" y="24" type="line"/>
      <point x="102" y="68" type="line"/>
      <point x="435" y="455" type="line"/>
    </contour>
  </outline>
</glyph>
<glyph name="braceleft" format="1">
  <advance width="550"/>
  <unicode hex="007B"/>
  <outline>
    <contour>
      <point x="326" y="485" type="curve" smooth="yes"/>
      <point x="326" y="585"/>
      <point x="346" y="624"/>
      <point x="466" y="624" type="curve"/>
      <point x="466" y="695" type="line"/>
      <point x="347" y="695"/>
      <point x="244" y="676"/>
      <point x="244" y="485" type="curve" smooth="yes"/>
      <point x="244" y="304"/>
      <point x="226" y="285"/>
      <point x="84" y="285" type="curve"/>
      <point x="84" y="285"/>
      <point x="84" y="217"/>
      <point x="84" y="217" type="curve"/>
      <point x="226" y="207"/>
      <point x="244" y="188"/>
      <point x="244" y="7" type="curve" smooth="yes"/>
      <point x="244" y="-184"/>
      <point x="347" y="-203"/>
      <point x="466" y="-203" type="curve"/>
      <point x="466" y="-132" type="line"/>
      <point x="346" y="-132"/>
      <point x="326" y="-93"/>
      <point x="326" y="7" type="curve" smooth="yes"/>
      <point x="326" y="169"/>
      <point x="312" y="224"/>
      <point x="208" y="246" type="curve"/>
      <point x="312" y="271"/>
      <point x="326" y="343"/>
    </contour>
  </outline>
</glyph>
<glyph name="bar" format="1">
  <advance width="550"/>
  <unicode hex="007C"/>
  <outline>
    <contour>
      <point x="251" y="-202" type="curve"/>
      <point x="251" y="690" type="line"/>
      <point x="251" y="690"/>
      <point x="300" y="690"/>
      <point x="300" y="690" type="curve"/>
      <point x="300" y="-202" type="line"/>
      <point x="300" y="-202"/>
      <point x="251" y="-202"/>
    </contour>
  </outline>
</glyph>
<glyph name="braceright" format="1">
  <advance width="550"/>
  <unicode hex="007D"/>
  <outline>
    <contour>
      <point x="224" y="485" type="curve" smooth="yes"/>
      <point x="224" y="343"/>
      <point x="238" y="271"/>
      <point x="342" y="246" type="curve"/>
      <point x="238" y="224"/>
      <point x="224" y="169"/>
      <point x="224" y="7" type="curve" smooth="yes"/>
      <point x="224" y="-93"/>
      <point x="204" y="-132"/>
      <point x="84" y="-132" type="curve"/>
      <point x="84" y="-203" type="line"/>
      <point x="203" y="-203"/>
      <point x="306" y="-184"/>
      <point x="306" y="7" type="curve" smooth="yes"/>
      <point x="306" y="188"/>
      <point x="324" y="207"/>
      <point x="466" y="217" type="curve"/>
      <point x="466" y="217"/>
      <point x="466" y="285"/>
      <point x="466" y="285" type="curve"/>
      <point x="324" y="285"/>
      <point x="306" y="304"/>
      <point x="306" y="485" type="curve" smooth="yes"/>
      <point x="306" y="676"/>
      <point x="203" y="695"/>
      <point x="84" y="695" type="curve"/>
      <point x="84" y="624" type="line"/>
      <point x="204" y="624"/>
      <point x="224" y="585"/>
    </contour>
  </outline>
</glyph>
<glyph name="asciitilde" format="1">
  <advance width="550"/>
  <unicode hex="007E"/>
  <outline>
    <contour>
      <point x="98" y="256"/>
      <point x="136" y="328"/>
      <point x="205" y="328" type="curve" smooth="yes"/>
      <point x="274" y="328"/>
      <point x="302" y="274"/>
      <point x="345" y="274" type="curve" smooth="yes"/>
      <point x="385" y="274"/>
      <point x="409" y="321"/>
      <point x="409" y="321" type="curve"/>
      <point x="409" y="321"/>
      <point x="451" y="281"/>
      <point x="451" y="281" type="curve"/>
      <point x="451" y="281"/>
      <point x="405" y="211"/>
      <point x="344" y="211" type="curve" smooth="yes"/>
      <point x="283" y="211"/>
      <point x="241" y="264"/>
      <point x="202" y="264" type="curve" smooth="yes"/>
      <point x="163" y="264"/>
      <point x="140" y="217"/>
      <point x="140" y="217" type="curve"/>
      <point x="98" y="256" type="line"/>
    </contour>
  </outline>
</glyph>
<glyph name="exclamdown" format="1">
  <advance width="600"/>
  <unicode hex="00A1"/>
  <outline>
    <contour>
      <point x="343" y="-198" type="line"/>
      <point x="336" y="239" type="line"/>
      <point x="264" y="239" type="line"/>
      <point x="257" y="-198" type="line"/>
    </contour>
    <contour>
      <point x="260" y="364" type="line"/>
      <point x="341" y="364" type="line"/>
      <point x="341" y="477" type="line"/>
      <point x="260" y="477" type="line"/>
    </contour>
  </outline>
</glyph>
<glyph name="cent" format="1">
  <advance width="550"/>
  <unicode hex="00A2"/>
  <outline>
    <contour>
      <point x="253" y="-51" type="line"/>
      <point x="253" y="-51"/>
      <point x="300" y="-51"/>
      <point x="300" y="-51" type="curve"/>
      <point x="300" y="690" type="line"/>
      <point x="300" y="690"/>
      <point x="253" y="690"/>
      <point x="253" y="690" type="curve"/>
    </contour>
    <contour>
      <point x="62" y="316" type="curve"/>
      <point x="68" y="175"/>
      <point x="115" y="90"/>
      <point x="256" y="90" type="curve" smooth="yes"/>
      <point x="367" y="90"/>
      <point x="427" y="124"/>
      <point x="427" y="124" type="curve"/>
      <point x="427" y="193" type="line"/>
      <point x="427" y="193"/>
      <point x="361" y="160"/>
      <point x="279" y="160" type="curve" smooth="yes"/>
      <point x="199" y="160"/>
      <point x="147" y="178"/>
      <point x="145" y="316" type="curve" smooth="yes"/>
      <point x="147" y="454"/>
      <point x="200" y="475"/>
      <point x="280" y="475" type="curve" smooth="yes"/>
      <point x="362" y="475"/>
      <point x="428" y="441"/>
      <point x="428" y="441" type="curve"/>
      <point x="428" y="511" type="line"/>
      <point x="428" y="511"/>
      <point x="368" y="545"/>
      <point x="257" y="545" type="curve" smooth="yes"/>
      <point x="116" y="545"/>
      <point x="68" y="457"/>
    </contour>
  </outline>
</glyph>
<glyph name="guillemotleft" format="1">
  <advance width="600"/>
  <unicode hex="00AB"/>
  <outline>
    <contour>
      <point x="300" y="405" type="line"/>
      <point x="300" y="318" type="line"/>
      <point x="215" y="241" type="line"/>
      <point x="300" y="164" type="line"/>
      <point x="300" y="80" type="line"/>
      <point x="161" y="199" type="line"/>
      <point x="161" y="279" type="line"/>
    </contour>
    <contour>
      <point x="439" y="405" type="line"/>
      <point x="439" y="318" type="line"/>
      <point x="354" y="241" type="line"/>
      <point x="439" y="164" type="line"/>
      <point x="439" y="80" type="line"/>
      <point x="300" y="199" type="line"/>
      <point x="300" y="279" type="line"/>
    </contour>
  </outline>
</glyph>
<glyph name="plusminus" format="1">
  <advance width="550"/>
  <unicode hex="00B1"/>
  <outline>
    <contour>
      <point x="449" y="0" type="line"/>
      <point x="100" y="0" type="line"/>
      <point x="100" y="49" type="line"/>
      <point x="449" y="49" type="line"/>
    </contour>
    <contour>
      <point x="300" y="500" type="line"/>
      <point x="300" y="150" type="line"/>
      <point x="249" y="150" type="line"/>
      <point x="249" y="500" type="line"/>
    </contour>
    <contour>
      <point x="449" y="299" type="line"/>
      <point x="100" y="299" type="line"/>
      <point x="100" y="349" type="line"/>
      <point x="449" y="349" type="line"/>
    </contour>
  </outline>
</glyph>
<glyph name="uni00B5" format="1">
  <advance width="550"/>
  <unicode hex="00B5"/>
  <outline>
    <contour>
      <point x="395" y="490" type="line"/>
      <point x="395" y="0" type="line"/>
      <point x="479" y="0" type="line"/>
      <point x="479" y="490" type="line"/>
    </contour>
    <contour>
      <point x="73" y="256" type="line"/>
      <point x="73" y="63"/>
      <point x="154" y="-6"/>
      <point x="254" y="-6" type="curve" smooth="yes"/>
      <point x="347" y="-6"/>
      <point x="423" y="124"/>
      <point x="423" y="124" type="curve"/>
      <point x="414" y="185" type="line"/>
      <point x="414" y="185"/>
      <point x="363" y="71"/>
      <point x="265" y="71" type="curve" smooth="yes"/>
      <point x="196" y="71"/>
      <point x="156" y="130"/>
      <point x="156" y="259" type="curve" smooth="yes"/>
      <point x="156" y="490" type="line"/>
      <point x="73" y="490" type="line"/>
    </contour>
    <contour>
      <point x="71" y="490" type="line"/>
      <point x="71" y="-203" type="line"/>
      <point x="155" y="-203" type="line"/>
      <point x="155" y="490" type="line"/>
    </contour>
  </outline>
</glyph>
<glyph name="periodcentered" format="1">
  <advance width="600"/>
  <unicode hex="00B7"/>
  <outline>
    <contour>
      <point x="364" y="361" type="line"/>
      <point x="236" y="361" type="line"/>
      <point x="236" y="199" type="line"/>
      <point x="364" y="199" type="line"/>
    </contour>
  </outline>
</glyph>
<glyph name="guillemotright" format="1">
  <advance width="600"/>
  <unicode hex="00BB"/>
  <outline>
    <contour>
      <point x="300" y="405" type="line"/>
      <point x="439" y="279" type="line"/>
      <point x="439" y="199" type="line"/>
      <point x="300" y="80" type="line"/>
      <point x="300" y="164" type="line"/>
      <point x="385" y="241" type="line"/>
      <point x="300" y="318" type="line"/>
    </contour>
    <contour>
      <point x="161" y="405" type="line"/>
      <point x="300" y="279" type="line"/>
      <point x="300" y="199" type="line"/>
      <point x="161" y="80" type="line"/>
      <point x="161" y="164" type="line"/>
      <point x="246" y="241" type="line"/>
      <point x="161" y="318" type="line"/>
    </contour>
  </outline>
</glyph>
<glyph name="onequarter" format="1">
  <advance width="550"/>
  <unicode hex="00BC"/>
  <outline>
    <contour>
      <point x="164" y="327" type="line"/>
      <point x="164" y="573" type="line"/>
      <point x="122" y="573" type="line"/>
      <point x="73" y="562" type="line"/>
      <point x="73" y="530" type="line"/>
      <point x="122" y="537" type="line"/>
      <point x="122" y="327" type="line"/>
      <point x="56" y="327" type="line"/>
      <point x="56" y="297" type="line"/>
      <point x="232" y="297" type="line"/>
      <point x="232" y="327" type="line"/>
    </contour>
    <contour>
      <point x="484" y="23" type="line"/>
      <point x="427" y="23" type="line"/>
      <point x="427" y="203" type="line"/>
      <point x="390" y="203" type="line"/>
      <point x="275" y="23" type="line"/>
      <point x="275" y="-7" type="line"/>
      <point x="390" y="-7" type="line"/>
      <point x="390" y="-73" type="line"/>
      <point x="427" y="-73" type="line"/>
      <point x="427" y="-7" type="line"/>
      <point x="484" y="-7" type="line"/>
    </contour>
    <contour>
      <point x="312" y="23" type="line"/>
      <point x="390" y="146" type="line"/>
      <point x="390" y="23" type="line"/>
    </contour>
    <contour>
      <point x="142" y="72" type="line"/>
      <point x="456" y="388" type="line"/>
      <point x="424" y="420" type="line"/>
      <point x="109" y="105" type="line"/>
    </contour>
  </outline>
</glyph>
<glyph name="onehalf" format="1">
  <advance width="600"/>
  <unicode hex="00BD"/>
  <outline>
    <contour>
      <point x="175" y="320" type="line"/>
      <point x="175" y="561" type="line"/>
      <point x="133" y="561" type="line"/>
      <point x="85" y="550" type="line"/>
      <point x="85" y="518" type="line"/>
      <point x="133" y="525" type="line"/>
      <point x="133" y="320" type="line"/>
      <point x="69" y="320" type="line"/>
      <point x="69" y="291" type="line"/>
      <point x="240" y="291" type="line"/>
      <point x="240" y="320" type="line"/>
    </contour>
    <contour>
      <point x="152" y="71" type="line"/>
      <point x="459" y="380" type="line"/>
      <point x="428" y="412" type="line"/>
      <point x="120" y="103" type="line"/>
    </contour>
    <contour>
      <point x="476" y="124" type="curve" smooth="yes"/>
      <point x="476" y="150"/>
      <point x="457" y="166"/>
      <point x="425" y="166" type="curve" smooth="yes"/>
      <point x="384" y="166"/>
      <point x="341" y="133"/>
      <point x="341" y="133" type="curve"/>
      <point x="341" y="171" type="line"/>
      <point x="341" y="171"/>
      <point x="380" y="199"/>
      <point x="428" y="199" type="curve" smooth="yes"/>
      <point x="484" y="199"/>
      <point x="513" y="173"/>
      <point x="513" y="124" type="curve" smooth="yes"/>
      <point x="513" y="84"/>
      <point x="486" y="57"/>
      <point x="486" y="57" type="curve"/>
      <point x="393" y="-38" type="line"/>
      <point x="531" y="-38" type="line"/>
      <point x="531" y="-73" type="line"/>
      <point x="341" y="-73" type="line"/>
      <point x="341" y="-44" type="line"/>
      <point x="460" y="81" type="line"/>
      <point x="460" y="81"/>
      <point x="476" y="96"/>
    </contour>
  </outline>
</glyph>
<glyph name="threequarters" format="1">
  <advance width="600"/>
  <unicode hex="00BE"/>
  <outline>
    <contour>
      <point x="89" y="306" type="curve"/>
      <point x="89" y="270" type="line"/>
      <point x="89" y="270"/>
      <point x="113" y="264"/>
      <point x="159" y="264" type="curve" smooth="yes"/>
      <point x="222" y="264"/>
      <point x="256" y="291"/>
      <point x="256" y="341" type="curve" smooth="yes"/>
      <point x="256" y="386"/>
      <point x="236" y="410"/>
      <point x="198" y="410" type="curve"/>
      <point x="228" y="410"/>
      <point x="242" y="430"/>
      <point x="242" y="469" type="curve" smooth="yes"/>
      <point x="242" y="516"/>
      <point x="213" y="541"/>
      <point x="159" y="541" type="curve" smooth="yes"/>
      <point x="107" y="541"/>
      <point x="89" y="531"/>
      <point x="89" y="531" type="curve"/>
      <point x="89" y="502" type="line"/>
      <point x="89" y="502"/>
      <point x="113" y="513"/>
      <point x="152" y="513" type="curve" smooth="yes"/>
      <point x="189" y="513"/>
      <point x="209" y="499"/>
      <point x="209" y="472" type="curve" smooth="yes"/>
      <point x="209" y="439"/>
      <point x="194" y="424"/>
      <point x="165" y="424" type="curve" smooth="yes"/>
      <point x="131" y="424" type="line"/>
      <point x="131" y="390" type="line"/>
      <point x="168" y="390" type="line" smooth="yes"/>
      <point x="200" y="390"/>
      <point x="219" y="375"/>
      <point x="219" y="340" type="curve" smooth="yes"/>
      <point x="219" y="311"/>
      <point x="198" y="299"/>
      <point x="159" y="299" type="curve" smooth="yes"/>
      <point x="117" y="299"/>
      <point x="89" y="306"/>
    </contour>
    <contour>
      <point x="176" y="72" type="line"/>
      <point x="483" y="382" type="line"/>
      <point x="452" y="413" type="line"/>
      <point x="145" y="105" type="line"/>
    </contour>
    <contour>
      <point x="510" y="24" type="line"/>
      <point x="456" y="24" type="line"/>
      <point x="456" y="201" type="line"/>
      <point x="419" y="201" type="line"/>
      <point x="306" y="24" type="line"/>
      <point x="306" y="-5" type="line"/>
      <point x="419" y="-5" type="line"/>
      <point x="419" y="-69" type="line"/>
      <point x="456" y="-69" type="line"/>
      <point x="456" y="-5" type="line"/>
      <point x="510" y="-5" type="line"/>
    </contour>
    <contour>
      <point x="342" y="24" type="line"/>
      <point x="419" y="144" type="line"/>
      <point x="419" y="24" type="line"/>
    </contour>
  </outline>
</glyph>
<glyph name="questiondown" format="1">
  <advance width="600"/>
  <unicode hex="00BF"/>
  <outline>
    <contour>
      <point x="243" y="211" type="curve" smooth="yes"/>
      <point x="243" y="248" type="line"/>
      <point x="336" y="248" type="line"/>
      <point x="336" y="214" type="line" smooth="yes"/>
      <point x="336" y="128"/>
      <point x="510" y="97"/>
      <point x="510" y="-7" type="curve" smooth="yes"/>
      <point x="510" y="-133"/>
      <point x="394" y="-188"/>
      <point x="293" y="-188" type="curve" smooth="yes"/>
      <point x="172" y="-188"/>
      <point x="90" y="-105"/>
      <point x="90" y="-105" type="curve"/>
      <point x="135" y="-48" type="line"/>
      <point x="135" y="-48"/>
      <point x="180" y="-110"/>
      <point x="293" y="-110" type="curve"/>
      <point x="293" y="-110"/>
      <point x="420" y="-119"/>
      <point x="420" y="-16" type="curve" smooth="yes"/>
      <point x="420" y="65"/>
      <point x="243" y="93"/>
    </contour>
    <contour>
      <point x="336" y="390" type="line"/>
      <point x="336" y="487" type="line"/>
      <point x="243" y="487" type="line"/>
      <point x="243" y="390" type="line"/>
    </contour>
  </outline>
</glyph>
<glyph name="Agrave" format="1">
  <advance width="550"/>
  <unicode hex="00C0"/>
  <outline>
    <contour>
      <point x="317" y="706" type="line"/>
      <point x="232" y="706" type="line"/>
      <point x="93" y="810" type="line"/>
      <point x="214" y="810" type="line"/>
    </contour>
    <component base="glyph00317" xOffset="2"/>
    <component base="glyph00317" xOffset="2"/>
    <component base="glyph00317" xOffset="2"/>
    <component base="glyph00317" xOffset="2"/>
    <component base="glyph00317" xOffset="2"/>
    <component base="glyph00317" xOffset="2"/>
    <component base="A"/>
  </outline>
</glyph>
<glyph name="Agrave" format="1">
  <advance width="545"/>
  <unicode hex="00C0"/>
  <outline>
    <contour>
      <point x="315" y="706" type="line"/>
      <point x="230" y="706" type="line"/>
      <point x="91" y="810" type="line"/>
      <point x="212" y="810" type="line"/>
    </contour>
    <contour>
      <point x="546" y="0" type="line"/>
      <point x="315" y="640" type="line"/>
      <point x="231" y="640" type="line"/>
      <point x="0" y="0" type="line"/>
      <point x="96" y="0" type="line"/>
      <point x="273" y="518" type="line"/>
      <point x="450" y="0" type="line"/>
    </contour>
    <contour>
      <point x="445" y="157" type="line"/>
      <point x="445" y="217" type="line"/>
      <point x="100" y="217" type="line"/>
      <point x="100" y="157" type="line"/>
    </contour>
    <component base="glyph00317"/>
    <component base="glyph00317"/>
    <component base="glyph00317"/>
    <component base="glyph00317"/>
    <component base="glyph00317"/>
    <component base="glyph00317"/>
  </outline>
</glyph>
<glyph name="Aacute" format="1">
  <advance width="600"/>
  <unicode hex="00C1"/>
  <outline>
    <contour>
      <point x="227" y="691" type="line"/>
      <point x="328" y="792" type="line"/>
      <point x="446" y="792" type="line"/>
      <point x="310" y="691" type="line"/>
    </contour>
    <component base="A"/>
  </outline>
</glyph>
<glyph name="Aacute" format="1">
  <advance width="550"/>
  <unicode hex="00C1"/>
  <outline>
    <contour>
      <point x="232" y="706" type="line"/>
      <point x="335" y="810" type="line"/>
      <point x="456" y="810" type="line"/>
      <point x="317" y="706" type="line"/>
    </contour>
    <contour>
      <point x="548" y="0" type="line"/>
      <point x="317" y="640" type="line"/>
      <point x="233" y="640" type="line"/>
      <point x="2" y="0" type="line"/>
      <point x="98" y="0" type="line"/>
      <point x="275" y="518" type="line"/>
      <point x="452" y="0" type="line"/>
    </contour>
    <contour>
      <point x="447" y="157" type="line"/>
      <point x="447" y="217" type="line"/>
      <point x="102" y="217" type="line"/>
      <point x="102" y="157" type="line"/>
    </contour>
  </outline>
</glyph>
<glyph name="Acircumflex" format="1">
  <advance width="550"/>
  <unicode hex="00C2"/>
  <outline>
    <contour>
      <point x="548" y="0" type="line"/>
      <point x="317" y="640" type="line"/>
      <point x="233" y="640" type="line"/>
      <point x="2" y="0" type="line"/>
      <point x="98" y="0" type="line"/>
      <point x="275" y="518" type="line"/>
      <point x="452" y="0" type="line"/>
    </contour>
    <contour>
      <point x="447" y="157" type="line"/>
      <point x="447" y="217" type="line"/>
      <point x="102" y="217" type="line"/>
      <point x="102" y="157" type="line"/>
    </contour>
    <contour>
      <point x="442" y="702" type="line"/>
      <point x="353" y="702" type="line"/>
      <point x="274" y="789" type="line"/>
      <point x="196" y="702" type="line"/>
      <point x="109" y="702" type="line"/>
      <point x="231" y="843" type="line"/>
      <point x="313" y="843" type="line"/>
    </contour>
  </outline>
</glyph>
<glyph name="Atilde" format="1">
  <advance width="545"/>
  <unicode hex="00C3"/>
  <outline>
    <contour>
      <point x="546" y="0" type="line"/>
      <point x="315" y="640" type="line"/>
      <point x="231" y="640" type="line"/>
      <point x="0" y="0" type="line"/>
      <point x="96" y="0" type="line"/>
      <point x="273" y="518" type="line"/>
      <point x="450" y="0" type="line"/>
    </contour>
    <contour>
      <point x="445" y="157" type="line"/>
      <point x="445" y="217" type="line"/>
      <point x="100" y="217" type="line"/>
      <point x="100" y="157" type="line"/>
    </contour>
    <contour>
      <point x="96" y="744"/>
      <point x="134" y="816"/>
      <point x="203" y="816" type="curve" smooth="yes"/>
      <point x="272" y="816"/>
      <point x="300" y="762"/>
      <point x="343" y="762" type="curve" smooth="yes"/>
      <point x="383" y="762"/>
      <point x="407" y="809"/>
      <point x="407" y="809" type="curve"/>
      <point x="407" y="809"/>
      <point x="449" y="769"/>
      <point x="449" y="769" type="curve"/>
      <point x="449" y="769"/>
      <point x="403" y="699"/>
      <point x="342" y="699" type="curve" smooth="yes"/>
      <point x="281" y="699"/>
      <point x="239" y="752"/>
      <point x="200" y="752" type="curve" smooth="yes"/>
      <point x="161" y="752"/>
      <point x="138" y="705"/>
      <point x="138" y="705" type="curve"/>
      <point x="96" y="744" type="line"/>
    </contour>
  </outline>
</glyph>
<glyph name="Adieresis" format="1">
  <advance width="545"/>
  <unicode hex="00C4"/>
  <outline>
    <contour>
      <point x="220" y="745" type="curve" smooth="yes"/>
      <point x="220" y="775"/>
      <point x="196" y="800"/>
      <point x="165" y="800" type="curve" smooth="yes"/>
      <point x="135" y="800"/>
      <point x="111" y="775"/>
      <point x="111" y="745" type="curve" smooth="yes"/>
      <point x="111" y="715"/>
      <point x="135" y="690"/>
      <point x="165" y="690" type="curve" smooth="yes"/>
      <point x="196" y="690"/>
      <point x="220" y="715"/>
    </contour>
    <contour>
      <point x="434" y="745" type="curve" smooth="yes"/>
      <point x="434" y="775"/>
      <point x="410" y="800"/>
      <point x="379" y="800" type="curve" smooth="yes"/>
      <point x="349" y="800"/>
      <point x="325" y="775"/>
      <point x="325" y="745" type="curve" smooth="yes"/>
      <point x="325" y="715"/>
      <point x="349" y="690"/>
      <point x="379" y="690" type="curve" smooth="yes"/>
      <point x="410" y="690"/>
      <point x="434" y="715"/>
    </contour>
    <contour>
      <point x="546" y="0" type="line"/>
      <point x="315" y="640" type="line"/>
      <point x="231" y="640" type="line"/>
      <point x="0" y="0" type="line"/>
      <point x="96" y="0" type="line"/>
      <point x="273" y="518" type="line"/>
      <point x="450" y="0" type="line"/>
    </contour>
    <contour>
      <point x="445" y="157" type="line"/>
      <point x="445" y="217" type="line"/>
      <point x="100" y="217" type="line"/>
      <point x="100" y="157" type="line"/>
    </contour>
  </outline>
</glyph>
<glyph name="Aring" format="1">
  <advance width="600"/>
  <unicode hex="00C5"/>
  <outline>
    <contour>
      <point x="269" y="869" type="curve" smooth="yes"/>
      <point x="215" y="869"/>
      <point x="172" y="826"/>
      <point x="172" y="773" type="curve" smooth="yes"/>
      <point x="172" y="719"/>
      <point x="215" y="676"/>
      <point x="269" y="676" type="curve" smooth="yes"/>
      <point x="322" y="676"/>
      <point x="365" y="719"/>
      <point x="365" y="773" type="curve" smooth="yes"/>
      <point x="365" y="826"/>
      <point x="322" y="869"/>
    </contour>
    <contour>
      <point x="269" y="729" type="curve" smooth="yes"/>
      <point x="245" y="729"/>
      <point x="225" y="748"/>
      <point x="225" y="773" type="curve" smooth="yes"/>
      <point x="225" y="796"/>
      <point x="245" y="816"/>
      <point x="269" y="816" type="curve" smooth="yes"/>
      <point x="293" y="816"/>
      <point x="312" y="796"/>
      <point x="312" y="773" type="curve" smooth="yes"/>
      <point x="312" y="748"/>
      <point x="293" y="729"/>
    </contour>
    <component base="A"/>
  </outline>
</glyph>
<glyph name="Aring" format="1">
  <advance width="545"/>
  <unicode hex="00C5"/>
  <outline>
    <contour>
      <point x="273" y="888" type="curve" smooth="yes"/>
      <point x="218" y="888"/>
      <point x="174" y="844"/>
      <point x="174" y="790" type="curve" smooth="yes"/>
      <point x="174" y="735"/>
      <point x="218" y="691"/>
      <point x="273" y="691" type="curve" smooth="yes"/>
      <point x="327" y="691"/>
      <point x="371" y="735"/>
      <point x="371" y="790" type="curve" smooth="yes"/>
      <point x="371" y="844"/>
      <point x="327" y="888"/>
    </contour>
    <contour>
      <point x="273" y="745" type="curve" smooth="yes"/>
      <point x="248" y="745"/>
      <point x="228" y="765"/>
      <point x="228" y="790" type="curve" smooth="yes"/>
      <point x="228" y="814"/>
      <point x="248" y="834"/>
      <point x="273" y="834" type="curve" smooth="yes"/>
      <point x="297" y="834"/>
      <point x="317" y="814"/>
      <point x="317" y="790" type="curve" smooth="yes"/>
      <point x="317" y="765"/>
      <point x="297" y="745"/>
    </contour>
    <contour>
      <point x="546" y="0" type="line"/>
      <point x="315" y="640" type="line"/>
      <point x="231" y="640" type="line"/>
      <point x="0" y="0" type="line"/>
      <point x="96" y="0" type="line"/>
      <point x="273" y="518" type="line"/>
      <point x="450" y="0" type="line"/>
    </contour>
    <contour>
      <point x="445" y="157" type="line"/>
      <point x="445" y="217" type="line"/>
      <point x="100" y="217" type="line"/>
      <point x="100" y="157" type="line"/>
    </contour>
  </outline>
</glyph>
<glyph name="AE" format="1">
  <advance width="545"/>
  <unicode hex="00C6"/>
  <outline>
    <contour>
      <point x="231" y="640" type="line"/>
      <point x="0.0" y="0.0" type="line"/>
      <point x="96.0" y="0.0" type="line"/>
      <point x="293" y="568" type="line"/>
      <point x="293" y="640" type="line"/>
    </contour>
    <contour>
      <point x="329" y="157" type="line"/>
      <point x="329" y="217" type="line"/>
      <point x="100" y="217" type="line"/>
      <point x="100" y="157" type="line"/>
    </contour>
    <contour>
      <point x="293" y="0" type="line"/>
      <point x="557" y="0" type="line"/>
      <point x="557" y="70" type="line"/>
      <point x="367" y="70" type="line"/>
      <point x="367" y="292" type="line"/>
      <point x="511" y="292" type="line"/>
      <point x="511" y="355" type="line"/>
      <point x="367" y="355" type="line"/>
      <point x="367" y="570" type="line"/>
      <point x="557" y="570" type="line"/>
      <point x="557" y="640" type="line"/>
      <point x="293" y="640" type="line"/>
    </contour>
  </outline>
</glyph>
<glyph name="AE" format="1">
  <advance width="550"/>
  <unicode hex="00C6"/>
  <outline>
    <contour>
      <point x="243" y="640" type="line"/>
      <point x="11" y="0" type="line"/>
      <point x="91" y="0" type="line"/>
      <point x="289" y="568" type="line"/>
      <point x="289" y="640" type="line"/>
    </contour>
    <contour>
      <point x="325" y="164" type="line"/>
      <point x="325" y="217" type="line"/>
      <point x="96" y="217" type="line"/>
      <point x="96" y="164" type="line"/>
    </contour>
    <contour>
      <point x="289" y="0" type="line"/>
      <point x="553" y="0" type="line"/>
      <point x="553" y="63" type="line"/>
      <point x="350" y="63" type="line"/>
      <point x="350" y="299" type="line"/>
      <point x="507" y="299" type="line"/>
      <point x="507" y="355" type="line"/>
      <point x="350" y="355" type="line"/>
      <point x="350" y="577" type="line"/>
      <point x="553" y="577" type="line"/>
      <point x="553" y="640" type="line"/>
      <point x="289" y="640" type="line"/>
    </contour>
  </outline>
</glyph>
<glyph name="Ccedilla" format="1">
  <advance width="600"/>
  <unicode hex="00C7"/>
  <outline>
    <contour>
      <point x="371" y="43" type="line"/>
      <point x="245" y="43" type="line"/>
      <point x="245" y="0" type="line"/>
      <point x="192" y="-170" type="line"/>
      <point x="263" y="-170" type="line"/>
      <point x="371" y="0" type="line"/>
    </contour>
    <component base="C"/>
  </outline>
</glyph>
<glyph name="Ccedilla" format="1">
  <advance width="545"/>
  <unicode hex="00C7"/>
  <outline>
    <contour>
      <point x="300" y="571" type="curve" smooth="yes"/>
      <point x="404" y="571"/>
      <point x="487" y="540"/>
      <point x="487" y="540" type="curve"/>
      <point x="487" y="609" type="line"/>
      <point x="487" y="609"/>
      <point x="423" y="646"/>
      <point x="292" y="646" type="curve" smooth="yes"/>
      <point x="102" y="646"/>
      <point x="37" y="449"/>
      <point x="37" y="319" type="curve" smooth="yes"/>
      <point x="37" y="189"/>
      <point x="102" y="-6"/>
      <point x="292" y="-6" type="curve" smooth="yes"/>
      <point x="423" y="-6"/>
      <point x="487" y="31"/>
      <point x="487" y="31" type="curve"/>
      <point x="487" y="114" type="line"/>
      <point x="487" y="114"/>
      <point x="414" y="72"/>
      <point x="306" y="72" type="curve" smooth="yes"/>
      <point x="198" y="72"/>
      <point x="139" y="198"/>
      <point x="139" y="319" type="curve" smooth="yes"/>
      <point x="139" y="443"/>
      <point x="183" y="571"/>
    </contour>
    <contour>
      <point x="366" y="44" type="line"/>
      <point x="237" y="44" type="line"/>
      <point x="237" y="0" type="line"/>
      <point x="183" y="-174" type="line"/>
      <point x="256" y="-174" type="line"/>
      <point x="366" y="0" type="line"/>
    </contour>
  </outline>
</glyph>
<glyph name="Egrave" format="1">
  <advance width="600"/>
  <unicode hex="00C8"/>
  <outline>
    <contour>
      <point x="320" y="691" type="line"/>
      <point x="237" y="691" type="line"/>
      <point x="101" y="792" type="line"/>
      <point x="219" y="792" type="line"/>
    </contour>
    <component base="E" xOffset="10"/>
  </outline>
</glyph>
<glyph name="Eacute" format="1">
  <advance width="550"/>
  <unicode hex="00C9"/>
  <outline>
    <contour>
      <point x="232" y="706" type="line"/>
      <point x="335" y="810" type="line"/>
      <point x="456" y="810" type="line"/>
      <point x="317" y="706" type="line"/>
    </contour>
    <component base="E"/>
  </outline>
</glyph>
<glyph name="Eacute" format="1">
  <advance width="545"/>
  <unicode hex="00C9"/>
  <outline>
    <contour>
      <point x="230" y="706" type="line"/>
      <point x="333" y="810" type="line"/>
      <point x="454" y="810" type="line"/>
      <point x="315" y="706" type="line"/>
    </contour>
    <contour>
      <point x="370" y="292" type="line"/>
      <point x="70" y="292" type="line"/>
      <point x="70" y="362" type="line"/>
      <point x="370" y="362" type="line"/>
    </contour>
    <contour>
      <point x="476" y="0" type="line"/>
      <point x="70" y="0" type="line"/>
      <point x="70" y="70" type="line"/>
      <point x="476" y="70" type="line"/>
    </contour>
    <contour>
      <point x="165" y="0" type="line"/>
      <point x="70" y="0" type="line"/>
      <point x="70" y="637" type="line"/>
      <point x="165" y="637" type="line"/>
    </contour>
    <contour>
      <point x="476" y="570" type="line"/>
      <point x="70" y="570" type="line"/>
      <point x="70" y="640" type="line"/>
      <point x="476" y="640" type="line"/>
    </contour>
  </outline>
</glyph>
<glyph name="Ecircumflex" format="1">
  <advance width="550"/>
  <unicode hex="00CA"/>
  <outline>
    <contour>
      <point x="442" y="702" type="line"/>
      <point x="353" y="702" type="line"/>
      <point x="274" y="789" type="line"/>
      <point x="196" y="702" type="line"/>
      <point x="109" y="702" type="line"/>
      <point x="231" y="843" type="line"/>
      <point x="313" y="843" type="line"/>
    </contour>
    <component base="E"/>
  </outline>
</glyph>
<glyph name="Ecircumflex" format="1">
  <advance width="550"/>
  <unicode hex="00CA"/>
  <outline>
    <contour>
      <point x="372" y="292" type="line"/>
      <point x="72" y="292" type="line"/>
      <point x="72" y="362" type="line"/>
      <point x="372" y="362" type="line"/>
    </contour>
    <contour>
      <point x="478" y="0" type="line"/>
      <point x="72" y="0" type="line"/>
      <point x="72" y="70" type="line"/>
      <point x="478" y="70" type="line"/>
    </contour>
    <contour>
      <point x="167" y="0" type="line"/>
      <point x="72" y="0" type="line"/>
      <point x="72" y="637" type="line"/>
      <point x="167" y="637" type="line"/>
    </contour>
    <contour>
      <point x="478" y="570" type="line"/>
      <point x="72" y="570" type="line"/>
      <point x="72" y="640" type="line"/>
      <point x="478" y="640" type="line"/>
    </contour>
    <contour>
      <point x="442" y="702" type="line"/>
      <point x="353" y="702" type="line"/>
      <point x="274" y="789" type="line"/>
      <point x="196" y="702" type="line"/>
      <point x="109" y="702" type="line"/>
      <point x="231" y="843" type="line"/>
      <point x="313" y="843" type="line"/>
    </contour>
  </outline>
</glyph>
<glyph name="Edieresis" format="1">
  <advance width="600"/>
  <unicode hex="00CB"/>
  <outline>
    <contour>
      <point x="217" y="729" type="curve" smooth="yes"/>
      <point x="217" y="758"/>
      <point x="194" y="783"/>
      <point x="163" y="783" type="curve" smooth="yes"/>
      <point x="134" y="783"/>
      <point x="111" y="758"/>
      <point x="111" y="729" type="curve" smooth="yes"/>
      <point x="111" y="699"/>
      <point x="134" y="675"/>
      <point x="163" y="675" type="curve" smooth="yes"/>
      <point x="194" y="675"/>
      <point x="217" y="699"/>
    </contour>
    <contour>
      <point x="427" y="729" type="curve" smooth="yes"/>
      <point x="427" y="758"/>
      <point x="403" y="783"/>
      <point x="373" y="783" type="curve" smooth="yes"/>
      <point x="343" y="783"/>
      <point x="320" y="758"/>
      <point x="320" y="729" type="curve" smooth="yes"/>
      <point x="320" y="699"/>
      <point x="343" y="675"/>
      <point x="373" y="675" type="curve" smooth="yes"/>
      <point x="403" y="675"/>
      <point x="427" y="699"/>
    </contour>
    <component base="E"/>
  </outline>
</glyph>
<glyph name="Edieresis" format="1">
  <advance width="550"/>
  <unicode hex="00CB"/>
  <outline>
    <contour>
      <point x="222" y="745" type="curve" smooth="yes"/>
      <point x="222" y="775"/>
      <point x="198" y="800"/>
      <point x="167" y="800" type="curve" smooth="yes"/>
      <point x="137" y="800"/>
      <point x="113" y="775"/>
      <point x="113" y="745" type="curve" smooth="yes"/>
      <point x="113" y="715"/>
      <point x="137" y="690"/>
      <point x="167" y="690" type="curve" smooth="yes"/>
      <point x="198" y="690"/>
      <point x="222" y="715"/>
    </contour>
    <contour>
      <point x="436" y="745" type="curve" smooth="yes"/>
      <point x="436" y="775"/>
      <point x="412" y="800"/>
      <point x="381" y="800" type="curve" smooth="yes"/>
      <point x="351" y="800"/>
      <point x="327" y="775"/>
      <point x="327" y="745" type="curve" smooth="yes"/>
      <point x="327" y="715"/>
      <point x="351" y="690"/>
      <point x="381" y="690" type="curve" smooth="yes"/>
      <point x="412" y="690"/>
      <point x="436" y="715"/>
    </contour>
    <component base="E"/>
  </outline>
</glyph>
<glyph name="Igrave" format="1">
  <advance width="550"/>
  <unicode hex="00CC"/>
  <outline>
    <contour>
      <point x="316" y="706" type="line"/>
      <point x="231" y="706" type="line"/>
      <point x="92" y="810" type="line"/>
      <point x="213" y="810" type="line"/>
    </contour>
    <component base="I"/>
  </outline>
</glyph>
<glyph name="Igrave" format="1">
  <advance width="545"/>
  <unicode hex="00CC"/>
  <outline>
    <contour>
      <point x="323" y="0" type="line"/>
      <point x="226" y="0" type="line"/>
      <point x="226" y="637" type="line"/>
      <point x="323" y="637" type="line"/>
    </contour>
    <contour>
      <point x="477" y="569" type="line"/>
      <point x="71" y="569" type="line"/>
      <point x="71" y="640" type="line"/>
      <point x="477" y="640" type="line"/>
    </contour>
    <contour>
      <point x="477" y="0" type="line"/>
      <point x="71" y="0" type="line"/>
      <point x="71" y="71" type="line"/>
      <point x="477" y="71" type="line"/>
    </contour>
    <contour>
      <point x="315" y="706" type="line"/>
      <point x="230" y="706" type="line"/>
      <point x="91" y="810" type="line"/>
      <point x="212" y="810" type="line"/>
    </contour>
  </outline>
</glyph>
<glyph name="Iacute" format="1">
  <advance width="550"/>
  <unicode hex="00CD"/>
  <outline>
    <contour>
      <point x="231" y="706" type="line"/>
      <point x="334" y="810" type="line"/>
      <point x="455" y="810" type="line"/>
      <point x="316" y="706" type="line"/>
    </contour>
    <component base="I"/>
  </outline>
</glyph>
<glyph name="Iacute" format="1">
  <advance width="550"/>
  <unicode hex="00CD"/>
  <outline>
    <contour>
      <point x="324" y="0" type="line"/>
      <point x="227" y="0" type="line"/>
      <point x="227" y="637" type="line"/>
      <point x="324" y="637" type="line"/>
    </contour>
    <contour>
      <point x="478" y="569" type="line"/>
      <point x="72" y="569" type="line"/>
      <point x="72" y="640" type="line"/>
      <point x="478" y="640" type="line"/>
    </contour>
    <contour>
      <point x="478" y="0" type="line"/>
      <point x="72" y="0" type="line"/>
      <point x="72" y="71" type="line"/>
      <point x="478" y="71" type="line"/>
    </contour>
    <contour>
      <point x="231" y="706" type="line"/>
      <point x="334" y="810" type="line"/>
      <point x="455" y="810" type="line"/>
      <point x="316" y="706" type="line"/>
    </contour>
  </outline>
</glyph>
<glyph name="Icircumflex" format="1">
  <advance width="550"/>
  <unicode hex="00CE"/>
  <outline>
    <contour>
      <point x="442" y="702" type="line"/>
      <point x="353" y="702" type="line"/>
      <point x="274" y="789" type="line"/>
      <point x="196" y="702" type="line"/>
      <point x="109" y="702" type="line"/>
      <point x="231" y="843" type="line"/>
      <point x="313" y="843" type="line"/>
    </contour>
    <component base="I"/>
  </outline>
</glyph>
<glyph name="Icircumflex" format="1">
  <advance width="545"/>
  <unicode hex="00CE"/>
  <outline>
    <contour>
      <point x="404" y="706" type="line"/>
      <point x="315" y="706" type="line"/>
      <point x="273" y="756" type="line"/>
      <point x="231" y="706" type="line"/>
      <point x="144" y="706" type="line"/>
      <point x="230" y="810" type="line"/>
      <point x="312" y="810" type="line"/>
    </contour>
    <contour>
      <point x="323" y="0" type="line"/>
      <point x="226" y="0" type="line"/>
      <point x="226" y="637" type="line"/>
      <point x="323" y="637" type="line"/>
    </contour>
    <contour>
      <point x="477" y="569" type="line"/>
      <point x="71" y="569" type="line"/>
      <point x="71" y="640" type="line"/>
      <point x="477" y="640" type="line"/>
    </contour>
    <contour>
      <point x="477" y="0" type="line"/>
      <point x="71" y="0" type="line"/>
      <point x="71" y="71" type="line"/>
      <point x="477" y="71" type="line"/>
    </contour>
  </outline>
</glyph>
<glyph name="Idieresis" format="1">
  <advance width="550"/>
  <unicode hex="00CF"/>
  <outline>
    <contour>
      <point x="221" y="745" type="curve" smooth="yes"/>
      <point x="221" y="775"/>
      <point x="197" y="800"/>
      <point x="166" y="800" type="curve" smooth="yes"/>
      <point x="136" y="800"/>
      <point x="112" y="775"/>
      <point x="112" y="745" type="curve" smooth="yes"/>
      <point x="112" y="715"/>
      <point x="136" y="690"/>
      <point x="166" y="690" type="curve" smooth="yes"/>
      <point x="197" y="690"/>
      <point x="221" y="715"/>
    </contour>
    <contour>
      <point x="435" y="745" type="curve" smooth="yes"/>
      <point x="435" y="775"/>
      <point x="411" y="800"/>
      <point x="380" y="800" type="curve" smooth="yes"/>
      <point x="350" y="800"/>
      <point x="326" y="775"/>
      <point x="326" y="745" type="curve" smooth="yes"/>
      <point x="326" y="715"/>
      <point x="350" y="690"/>
      <point x="380" y="690" type="curve" smooth="yes"/>
      <point x="411" y="690"/>
      <point x="435" y="715"/>
    </contour>
    <component base="I"/>
  </outline>
</glyph>
<glyph name="Idieresis" format="1">
  <advance width="550"/>
  <unicode hex="00CF"/>
  <outline>
    <contour>
      <point x="221" y="745" type="curve" smooth="yes"/>
      <point x="221" y="775"/>
      <point x="197" y="800"/>
      <point x="166" y="800" type="curve" smooth="yes"/>
      <point x="136" y="800"/>
      <point x="112" y="775"/>
      <point x="112" y="745" type="curve" smooth="yes"/>
      <point x="112" y="715"/>
      <point x="136" y="690"/>
      <point x="166" y="690" type="curve" smooth="yes"/>
      <point x="197" y="690"/>
      <point x="221" y="715"/>
    </contour>
    <contour>
      <point x="435" y="745" type="curve" smooth="yes"/>
      <point x="435" y="775"/>
      <point x="411" y="800"/>
      <point x="380" y="800" type="curve" smooth="yes"/>
      <point x="350" y="800"/>
      <point x="326" y="775"/>
      <point x="326" y="745" type="curve" smooth="yes"/>
      <point x="326" y="715"/>
      <point x="350" y="690"/>
      <point x="380" y="690" type="curve" smooth="yes"/>
      <point x="411" y="690"/>
      <point x="435" y="715"/>
    </contour>
    <contour>
      <point x="324" y="0" type="line"/>
      <point x="227" y="0" type="line"/>
      <point x="227" y="637" type="line"/>
      <point x="324" y="637" type="line"/>
    </contour>
    <contour>
      <point x="478" y="569" type="line"/>
      <point x="72" y="569" type="line"/>
      <point x="72" y="640" type="line"/>
      <point x="478" y="640" type="line"/>
    </contour>
    <contour>
      <point x="478" y="0" type="line"/>
      <point x="72" y="0" type="line"/>
      <point x="72" y="71" type="line"/>
      <point x="478" y="71" type="line"/>
    </contour>
  </outline>
</glyph>
<glyph name="Eth" format="1">
  <advance width="600"/>
  <unicode hex="00D0"/>
  <outline>
    <contour>
      <point x="403" y="286" type="line"/>
      <point x="51" y="286" type="line"/>
      <point x="51" y="351" type="line"/>
      <point x="403" y="351" type="line"/>
    </contour>
    <component base="D" xOffset="35"/>
  </outline>
</glyph>
<glyph name="Eth" format="1">
  <advance width="550"/>
  <unicode hex="00D0"/>
  <outline>
    <contour>
      <point x="151" y="1" type="line"/>
      <point x="56" y="1" type="line"/>
      <point x="56" y="640" type="line"/>
      <point x="151" y="640" type="line"/>
    </contour>
    <contour>
      <point x="231" y="562" type="curve" smooth="yes"/>
      <point x="79" y="562" type="line"/>
      <point x="79" y="640" type="line"/>
      <point x="79" y="640"/>
      <point x="102" y="641"/>
      <point x="233" y="640" type="curve" smooth="yes"/>
      <point x="489" y="639"/>
      <point x="534" y="462"/>
      <point x="534" y="332" type="curve" smooth="yes"/>
      <point x="534" y="202"/>
      <point x="491" y="0"/>
      <point x="241" y="0" type="curve" smooth="yes"/>
      <point x="110" y="0"/>
      <point x="74" y="1"/>
      <point x="74" y="1" type="curve"/>
      <point x="74" y="79" type="line"/>
      <point x="74" y="79"/>
      <point x="109" y="79"/>
      <point x="217" y="79" type="curve" smooth="yes"/>
      <point x="421" y="79"/>
      <point x="454" y="247"/>
      <point x="454" y="332" type="curve" smooth="yes"/>
      <point x="454" y="422"/>
      <point x="418" y="562"/>
    </contour>
    <contour>
      <point x="376" y="292" type="line"/>
      <point x="16" y="292" type="line"/>
      <point x="16" y="359" type="line"/>
      <point x="376" y="359" type="line"/>
    </contour>
  </outline>
</glyph>
<glyph name="Ntilde" format="1">
  <advance width="550"/>
  <unicode hex="00D1"/>
  <outline>
    <contour>
      <point x="98" y="744"/>
      <point x="136" y="816"/>
      <point x="205" y="816" type="curve" smooth="yes"/>
      <point x="274" y="816"/>
      <point x="302" y="762"/>
      <point x="345" y="762" type="curve" smooth="yes"/>
      <point x="385" y="762"/>
      <point x="409" y="809"/>
      <point x="409" y="809" type="curve"/>
      <point x="409" y="809"/>
      <point x="451" y="769"/>
      <point x="451" y="769" type="curve"/>
      <point x="451" y="769"/>
      <point x="405" y="699"/>
      <point x="344" y="699" type="curve" smooth="yes"/>
      <point x="283" y="699"/>
      <point x="241" y="752"/>
      <point x="202" y="752" type="curve" smooth="yes"/>
      <point x="163" y="752"/>
      <point x="140" y="705"/>
      <point x="140" y="705" type="curve"/>
      <point x="98" y="744" type="line"/>
    </contour>
    <component base="N"/>
  </outline>
</glyph>
<glyph name="Ntilde" format="1">
  <advance width="545"/>
  <unicode hex="00D1"/>
  <outline>
    <contour>
      <point x="488" y="0" type="line"/>
    </contour>
    <contour>
      <point x="142" y="640" type="line"/>
    </contour>
    <contour>
      <point x="495" y="0" type="line"/>
    </contour>
    <contour>
      <point x="142" y="639" type="line"/>
      <point x="488" y="0" type="line"/>
      <point x="403" y="0" type="line"/>
      <point x="90" y="577" type="line"/>
    </contour>
    <contour>
      <point x="142" y="0" type="line"/>
      <point x="50" y="0" type="line"/>
      <point x="50" y="640" type="line"/>
      <point x="142" y="640" type="line"/>
    </contour>
    <contour>
      <point x="495" y="0" type="line"/>
      <point x="403" y="0" type="line"/>
      <point x="403" y="640" type="line"/>
      <point x="495" y="640" type="line"/>
    </contour>
    <contour>
      <point x="96" y="744"/>
      <point x="134" y="816"/>
      <point x="203" y="816" type="curve" smooth="yes"/>
      <point x="272" y="816"/>
      <point x="300" y="762"/>
      <point x="343" y="762" type="curve" smooth="yes"/>
      <point x="383" y="762"/>
      <point x="407" y="809"/>
      <point x="407" y="809" type="curve"/>
      <point x="407" y="809"/>
      <point x="449" y="769"/>
      <point x="449" y="769" type="curve"/>
      <point x="449" y="769"/>
      <point x="403" y="699"/>
      <point x="342" y="699" type="curve" smooth="yes"/>
      <point x="281" y="699"/>
      <point x="239" y="752"/>
      <point x="200" y="752" type="curve" smooth="yes"/>
      <point x="161" y="752"/>
      <point x="138" y="705"/>
      <point x="138" y="705" type="curve"/>
      <point x="96" y="744" type="line"/>
    </contour>
  </outline>
</glyph>
<glyph name="Ograve" format="1">
  <advance width="550"/>
  <unicode hex="00D2"/>
  <outline>
    <contour>
      <point x="319" y="706" type="line"/>
      <point x="234" y="706" type="line"/>
      <point x="95" y="810" type="line"/>
      <point x="216" y="810" type="line"/>
    </contour>
    <component base="O"/>
  </outline>
</glyph>
<glyph name="Ograve" format="1">
  <advance width="550"/>
  <unicode hex="00D2"/>
  <outline>
    <contour>
      <point x="319" y="706" type="line"/>
      <point x="234" y="706" type="line"/>
      <point x="95" y="810" type="line"/>
      <point x="216" y="810" type="line"/>
    </contour>
    <component base="O"/>
  </outline>
</glyph>
<glyph name="Oacute" format="1">
  <advance width="545"/>
  <unicode hex="00D3"/>
  <outline>
    <contour>
      <point x="271" y="72" type="curve" smooth="yes"/>
      <point x="138" y="72"/>
      <point x="107" y="211"/>
      <point x="107" y="319" type="curve" smooth="yes"/>
      <point x="107" y="418"/>
      <point x="146" y="568"/>
      <point x="271" y="568" type="curve" smooth="yes"/>
      <point x="396" y="568"/>
      <point x="435" y="418"/>
      <point x="435" y="319" type="curve" smooth="yes"/>
      <point x="435" y="214"/>
      <point x="404" y="72"/>
    </contour>
    <contour>
      <point x="271" y="646" type="curve" smooth="yes"/>
      <point x="81" y="646"/>
      <point x="16" y="449"/>
      <point x="16" y="319" type="curve" smooth="yes"/>
      <point x="16" y="179"/>
      <point x="73" y="-6"/>
      <point x="271" y="-6" type="curve" smooth="yes"/>
      <point x="469" y="-6"/>
      <point x="526" y="182"/>
      <point x="526" y="319" type="curve" smooth="yes"/>
      <point x="526" y="449"/>
      <point x="461" y="646"/>
    </contour>
    <contour>
      <point x="230" y="706" type="line"/>
      <point x="333" y="810" type="line"/>
      <point x="454" y="810" type="line"/>
      <point x="315" y="706" type="line"/>
    </contour>
  </outline>
</glyph>
<glyph name="Ocircumflex" format="1">
  <advance width="600"/>
  <unicode hex="00D4"/>
  <outline>
    <contour>
      <point x="399" y="691" type="line"/>
      <point x="312" y="691" type="line"/>
      <point x="271" y="740" type="line"/>
      <point x="230" y="691" type="line"/>
      <point x="145" y="691" type="line"/>
      <point x="229" y="792" type="line"/>
      <point x="309" y="792" type="line"/>
    </contour>
    <component base="O"/>
  </outline>
</glyph>
<glyph name="Ocircumflex" format="1">
  <advance width="545"/>
  <unicode hex="00D4"/>
  <outline>
    <contour>
      <point x="271" y="72" type="curve" smooth="yes"/>
      <point x="138" y="72"/>
      <point x="107" y="211"/>
      <point x="107" y="319" type="curve" smooth="yes"/>
      <point x="107" y="418"/>
      <point x="146" y="568"/>
      <point x="271" y="568" type="curve" smooth="yes"/>
      <point x="396" y="568"/>
      <point x="435" y="418"/>
      <point x="435" y="319" type="curve" smooth="yes"/>
      <point x="435" y="214"/>
      <point x="404" y="72"/>
    </contour>
    <contour>
      <point x="271" y="646" type="curve" smooth="yes"/>
      <point x="81" y="646"/>
      <point x="16" y="449"/>
      <point x="16" y="319" type="curve" smooth="yes"/>
      <point x="16" y="179"/>
      <point x="73" y="-6"/>
      <point x="271" y="-6" type="curve" smooth="yes"/>
      <point x="469" y="-6"/>
      <point x="526" y="182"/>
      <point x="526" y="319" type="curve" smooth="yes"/>
      <point x="526" y="449"/>
      <point x="461" y="646"/>
    </contour>
    <contour>
      <point x="404" y="706" type="line"/>
      <point x="315" y="706" type="line"/>
      <point x="273" y="756" type="line"/>
      <point x="231" y="706" type="line"/>
      <point x="144" y="706" type="line"/>
      <point x="230" y="810" type="line"/>
      <point x="312" y="810" type="line"/>
    </contour>
  </outline>
</glyph>
<glyph name="Otilde" format="1">
  <advance width="550"/>
  <unicode hex="00D5"/>
  <outline>
    <contour>
      <point x="100" y="744"/>
      <point x="138" y="816"/>
      <point x="207" y="816" type="curve" smooth="yes"/>
      <point x="276" y="816"/>
      <point x="304" y="762"/>
      <point x="347" y="762" type="curve" smooth="yes"/>
      <point x="387" y="762"/>
      <point x="411" y="809"/>
      <point x="411" y="809" type="curve"/>
      <point x="411" y="809"/>
      <point x="453" y="769"/>
      <point x="453" y="769" type="curve"/>
      <point x="453" y="769"/>
      <point x="407" y="699"/>
      <point x="346" y="699" type="curve" smooth="yes"/>
      <point x="285" y="699"/>
      <point x="243" y="752"/>
      <point x="204" y="752" type="curve" smooth="yes"/>
      <point x="165" y="752"/>
      <point x="142" y="705"/>
      <point x="142" y="705" type="curve"/>
      <point x="100" y="744" type="line"/>
    </contour>
    <component base="O"/>
  </outline>
</glyph>
<glyph name="Otilde" format="1">
  <advance width="545"/>
  <unicode hex="00D5"/>
  <outline>
    <contour>
      <point x="96" y="744"/>
      <point x="134" y="816"/>
      <point x="203" y="816" type="curve" smooth="yes"/>
      <point x="272" y="816"/>
      <point x="300" y="762"/>
      <point x="343" y="762" type="curve" smooth="yes"/>
      <point x="383" y="762"/>
      <point x="407" y="809"/>
      <point x="407" y="809" type="curve"/>
      <point x="407" y="809"/>
      <point x="449" y="769"/>
      <point x="449" y="769" type="curve"/>
      <point x="449" y="769"/>
      <point x="403" y="699"/>
      <point x="342" y="699" type="curve" smooth="yes"/>
      <point x="281" y="699"/>
      <point x="239" y="752"/>
      <point x="200" y="752" type="curve" smooth="yes"/>
      <point x="161" y="752"/>
      <point x="138" y="705"/>
      <point x="138" y="705" type="curve"/>
      <point x="96" y="744" type="line"/>
    </contour>
    <contour>
      <point x="271" y="72" type="curve" smooth="yes"/>
      <point x="138" y="72"/>
      <point x="107" y="211"/>
      <point x="107" y="319" type="curve" smooth="yes"/>
      <point x="107" y="418"/>
      <point x="146" y="568"/>
      <point x="271" y="568" type="curve" smooth="yes"/>
      <point x="396" y="568"/>
      <point x="435" y="418"/>
      <point x="435" y="319" type="curve" smooth="yes"/>
      <point x="435" y="214"/>
      <point x="404" y="72"/>
    </contour>
    <contour>
      <point x="271" y="646" type="curve" smooth="yes"/>
      <point x="81" y="646"/>
      <point x="16" y="449"/>
      <point x="16" y="319" type="curve" smooth="yes"/>
      <point x="16" y="179"/>
      <point x="73" y="-6"/>
      <point x="271" y="-6" type="curve" smooth="yes"/>
      <point x="469" y="-6"/>
      <point x="526" y="182"/>
      <point x="526" y="319" type="curve" smooth="yes"/>
      <point x="526" y="449"/>
      <point x="461" y="646"/>
    </contour>
  </outline>
</glyph>
<glyph name="Odieresis" format="1">
  <advance width="545"/>
  <unicode hex="00D6"/>
  <outline>
    <contour>
      <point x="220" y="745" type="curve" smooth="yes"/>
      <point x="220" y="775"/>
      <point x="196" y="800"/>
      <point x="165" y="800" type="curve" smooth="yes"/>
      <point x="135" y="800"/>
      <point x="111" y="775"/>
      <point x="111" y="745" type="curve" smooth="yes"/>
      <point x="111" y="715"/>
      <point x="135" y="690"/>
      <point x="165" y="690" type="curve" smooth="yes"/>
      <point x="196" y="690"/>
      <point x="220" y="715"/>
    </contour>
    <contour>
      <point x="434" y="745" type="curve" smooth="yes"/>
      <point x="434" y="775"/>
      <point x="410" y="800"/>
      <point x="379" y="800" type="curve" smooth="yes"/>
      <point x="349" y="800"/>
      <point x="325" y="775"/>
      <point x="325" y="745" type="curve" smooth="yes"/>
      <point x="325" y="715"/>
      <point x="349" y="690"/>
      <point x="379" y="690" type="curve" smooth="yes"/>
      <point x="410" y="690"/>
      <point x="434" y="715"/>
    </contour>
    <contour>
      <point x="271" y="72" type="curve" smooth="yes"/>
      <point x="138" y="72"/>
      <point x="107" y="211"/>
      <point x="107" y="319" type="curve" smooth="yes"/>
      <point x="107" y="418"/>
      <point x="146" y="568"/>
      <point x="271" y="568" type="curve" smooth="yes"/>
      <point x="396" y="568"/>
      <point x="435" y="418"/>
      <point x="435" y="319" type="curve" smooth="yes"/>
      <point x="435" y="214"/>
      <point x="404" y="72"/>
    </contour>
    <contour>
      <point x="271" y="646" type="curve" smooth="yes"/>
      <point x="81" y="646"/>
      <point x="16" y="449"/>
      <point x="16" y="319" type="curve" smooth="yes"/>
      <point x="16" y="179"/>
      <point x="73" y="-6"/>
      <point x="271" y="-6" type="curve" smooth="yes"/>
      <point x="469" y="-6"/>
      <point x="526" y="182"/>
      <point x="526" y="319" type="curve" smooth="yes"/>
      <point x="526" y="449"/>
      <point x="461" y="646"/>
    </contour>
  </outline>
</glyph>
<glyph name="multiply" format="1">
  <advance width="550"/>
  <unicode hex="00D7"/>
  <outline>
    <contour>
      <point x="169" y="416" type="line"/>
      <point x="416" y="169" type="line"/>
      <point x="381" y="134" type="line"/>
      <point x="134" y="381" type="line"/>
    </contour>
    <contour>
      <point x="416" y="382" type="line"/>
      <point x="169" y="135" type="line"/>
      <point x="135" y="169" type="line"/>
      <point x="382" y="416" type="line"/>
    </contour>
  </outline>
</glyph>
<glyph name="Oslash" format="1">
  <advance width="550"/>
  <unicode hex="00D8"/>
  <outline>
    <contour>
      <point x="501" y="650" type="line"/>
      <point x="426" y="650" type="line"/>
      <point x="78" y="-100" type="line"/>
      <point x="152" y="-100" type="line"/>
    </contour>
    <component base="O"/>
  </outline>
</glyph>
<glyph name="Oslash" format="1">
  <advance width="545"/>
  <unicode hex="00D8"/>
  <outline>
    <contour>
      <point x="271" y="72" type="curve" smooth="yes"/>
      <point x="138" y="72"/>
      <point x="107" y="211"/>
      <point x="107" y="319" type="curve" smooth="yes"/>
      <point x="107" y="418"/>
      <point x="146" y="568"/>
      <point x="271" y="568" type="curve" smooth="yes"/>
      <point x="396" y="568"/>
      <point x="435" y="418"/>
      <point x="435" y="319" type="curve" smooth="yes"/>
      <point x="435" y="214"/>
      <point x="404" y="72"/>
    </contour>
    <contour>
      <point x="271" y="646" type="curve" smooth="yes"/>
      <point x="81" y="646"/>
      <point x="16" y="449"/>
      <point x="16" y="319" type="curve" smooth="yes"/>
      <point x="16" y="179"/>
      <point x="73" y="-6"/>
      <point x="271" y="-6" type="curve" smooth="yes"/>
      <point x="469" y="-6"/>
      <point x="526" y="182"/>
      <point x="526" y="319" type="curve" smooth="yes"/>
      <point x="526" y="449"/>
      <point x="461" y="646"/>
    </contour>
    <contour>
      <point x="486" y="690" type="line"/>
      <point x="391" y="690" type="line"/>
      <point x="57" y="-98" type="line"/>
      <point x="151" y="-98" type="line"/>
    </contour>
  </outline>
</glyph>
<glyph name="Ugrave" format="1">
  <advance width="550"/>
  <unicode hex="00D9"/>
  <outline>
    <contour>
      <point x="317" y="706" type="line"/>
      <point x="232" y="706" type="line"/>
      <point x="93" y="810" type="line"/>
      <point x="214" y="810" type="line"/>
    </contour>
    <component base="U"/>
  </outline>
</glyph>
<glyph name="Ugrave" format="1">
  <advance width="550"/>
  <unicode hex="00D9"/>
  <outline>
    <contour>
      <point x="317" y="706" type="line"/>
      <point x="232" y="706" type="line"/>
      <point x="93" y="810" type="line"/>
      <point x="214" y="810" type="line"/>
    </contour>
    <component base="U"/>
  </outline>
</glyph>
<glyph name="Uacute" format="1">
  <advance width="600"/>
  <unicode hex="00DA"/>
  <outline>
    <contour>
      <point x="229" y="691" type="line"/>
      <point x="330" y="792" type="line"/>
      <point x="448" y="792" type="line"/>
      <point x="312" y="691" type="line"/>
    </contour>
    <component base="U"/>
  </outline>
</glyph>
<glyph name="Uacute" format="1">
  <advance width="545"/>
  <unicode hex="00DA"/>
  <outline>
    <contour>
      <point x="506" y="640" type="line"/>
      <point x="415" y="640" type="line"/>
      <point x="415" y="249" type="line" smooth="yes"/>
      <point x="415" y="144"/>
      <point x="386" y="68"/>
      <point x="271" y="68" type="curve" smooth="yes"/>
      <point x="156" y="68"/>
      <point x="127" y="141"/>
      <point x="127" y="249" type="curve" smooth="yes"/>
      <point x="127" y="640" type="line"/>
      <point x="36" y="640" type="line"/>
      <point x="36" y="249" type="line" smooth="yes"/>
      <point x="36" y="109"/>
      <point x="93" y="-6"/>
      <point x="271" y="-6" type="curve" smooth="yes"/>
      <point x="449" y="-6"/>
      <point x="506" y="112"/>
      <point x="506" y="249" type="curve" smooth="yes"/>
    </contour>
    <contour>
      <point x="230" y="706" type="line"/>
      <point x="333" y="810" type="line"/>
      <point x="454" y="810" type="line"/>
      <point x="315" y="706" type="line"/>
    </contour>
  </outline>
</glyph>
<glyph name="Ucircumflex" format="1">
  <advance width="550"/>
  <unicode hex="00DB"/>
  <outline>
    <contour>
      <point x="148" y="706" type="line"/>
    </contour>
    <contour>
      <point x="510" y="640" type="line"/>
      <point x="419" y="640" type="line"/>
      <point x="419" y="249" type="line" smooth="yes"/>
      <point x="419" y="144"/>
      <point x="390" y="68"/>
      <point x="275" y="68" type="curve" smooth="yes"/>
      <point x="160" y="68"/>
      <point x="131" y="141"/>
      <point x="131" y="249" type="curve" smooth="yes"/>
      <point x="131" y="640" type="line"/>
      <point x="40" y="640" type="line"/>
      <point x="40" y="249" type="line" smooth="yes"/>
      <point x="40" y="109"/>
      <point x="97" y="-6"/>
      <point x="275" y="-6" type="curve" smooth="yes"/>
      <point x="453" y="-6"/>
      <point x="510" y="112"/>
      <point x="510" y="249" type="curve" smooth="yes"/>
    </contour>
    <contour>
      <point x="442" y="702" type="line"/>
      <point x="353" y="702" type="line"/>
      <point x="274" y="789" type="line"/>
      <point x="196" y="702" type="line"/>
      <point x="109" y="702" type="line"/>
      <point x="231" y="843" type="line"/>
      <point x="313" y="843" type="line"/>
    </contour>
  </outline>
</glyph>
<glyph name="Ucircumflex" format="1">
  <advance width="545"/>
  <unicode hex="00DB"/>
  <outline>
    <contour>
      <point x="404" y="706" type="line"/>
      <point x="315" y="706" type="line"/>
      <point x="273" y="756" type="line"/>
      <point x="231" y="706" type="line"/>
      <point x="144" y="706" type="line"/>
      <point x="230" y="810" type="line"/>
      <point x="312" y="810" type="line"/>
    </contour>
    <contour>
      <point x="506" y="640" type="line"/>
      <point x="415" y="640" type="line"/>
      <point x="415" y="249" type="line" smooth="yes"/>
      <point x="415" y="144"/>
      <point x="386" y="68"/>
      <point x="271" y="68" type="curve" smooth="yes"/>
      <point x="156" y="68"/>
      <point x="127" y="141"/>
      <point x="127" y="249" type="curve" smooth="yes"/>
      <point x="127" y="640" type="line"/>
      <point x="36" y="640" type="line"/>
      <point x="36" y="249" type="line" smooth="yes"/>
      <point x="36" y="109"/>
      <point x="93" y="-6"/>
      <point x="271" y="-6" type="curve" smooth="yes"/>
      <point x="449" y="-6"/>
      <point x="506" y="112"/>
      <point x="506" y="249" type="curve" smooth="yes"/>
    </contour>
  </outline>
</glyph>
<glyph name="Udieresis" format="1">
  <advance width="600"/>
  <unicode hex="00DC"/>
  <outline>
    <contour>
      <point x="219" y="729" type="curve" smooth="yes"/>
      <point x="219" y="758"/>
      <point x="196" y="783"/>
      <point x="165" y="783" type="curve" smooth="yes"/>
      <point x="136" y="783"/>
      <point x="113" y="758"/>
      <point x="113" y="729" type="curve" smooth="yes"/>
      <point x="113" y="699"/>
      <point x="136" y="675"/>
      <point x="165" y="675" type="curve" smooth="yes"/>
      <point x="196" y="675"/>
      <point x="219" y="699"/>
    </contour>
    <contour>
      <point x="428" y="729" type="curve" smooth="yes"/>
      <point x="428" y="758"/>
      <point x="405" y="783"/>
      <point x="375" y="783" type="curve" smooth="yes"/>
      <point x="345" y="783"/>
      <point x="322" y="758"/>
      <point x="322" y="729" type="curve" smooth="yes"/>
      <point x="322" y="699"/>
      <point x="345" y="675"/>
      <point x="375" y="675" type="curve" smooth="yes"/>
      <point x="405" y="675"/>
      <point x="428" y="699"/>
    </contour>
    <component base="U"/>
  </outline>
</glyph>
<glyph name="Udieresis" format="1">
  <advance width="545"/>
  <unicode hex="00DC"/>
  <outline>
    <contour>
      <point x="506" y="640" type="line"/>
      <point x="415" y="640" type="line"/>
      <point x="415" y="249" type="line" smooth="yes"/>
      <point x="415" y="144"/>
      <point x="386" y="68"/>
      <point x="271" y="68" type="curve" smooth="yes"/>
      <point x="156" y="68"/>
      <point x="127" y="141"/>
      <point x="127" y="249" type="curve" smooth="yes"/>
      <point x="127" y="640" type="line"/>
      <point x="36" y="640" type="line"/>
      <point x="36" y="249" type="line" smooth="yes"/>
      <point x="36" y="109"/>
      <point x="93" y="-6"/>
      <point x="271" y="-6" type="curve" smooth="yes"/>
      <point x="449" y="-6"/>
      <point x="506" y="112"/>
      <point x="506" y="249" type="curve" smooth="yes"/>
    </contour>
    <contour>
      <point x="220" y="745" type="curve" smooth="yes"/>
      <point x="220" y="775"/>
      <point x="196" y="800"/>
      <point x="165" y="800" type="curve" smooth="yes"/>
      <point x="135" y="800"/>
      <point x="111" y="775"/>
      <point x="111" y="745" type="curve" smooth="yes"/>
      <point x="111" y="715"/>
      <point x="135" y="690"/>
      <point x="165" y="690" type="curve" smooth="yes"/>
      <point x="196" y="690"/>
      <point x="220" y="715"/>
    </contour>
    <contour>
      <point x="434" y="745" type="curve" smooth="yes"/>
      <point x="434" y="775"/>
      <point x="410" y="800"/>
      <point x="379" y="800" type="curve" smooth="yes"/>
      <point x="349" y="800"/>
      <point x="325" y="775"/>
      <point x="325" y="745" type="curve" smooth="yes"/>
      <point x="325" y="715"/>
      <point x="349" y="690"/>
      <point x="379" y="690" type="curve" smooth="yes"/>
      <point x="410" y="690"/>
      <point x="434" y="715"/>
    </contour>
  </outline>
</glyph>
<glyph name="Yacute" format="1">
  <advance width="600"/>
  <unicode hex="00DD"/>
  <outline>
    <contour>
      <point x="226" y="691" type="line"/>
      <point x="327" y="792" type="line"/>
      <point x="445" y="792" type="line"/>
      <point x="309" y="691" type="line"/>
    </contour>
    <component base="Y"/>
  </outline>
</glyph>
<glyph name="Yacute" format="1">
  <advance width="545"/>
  <unicode hex="00DD"/>
  <outline>
    <contour>
      <point x="432" y="640" type="line"/>
      <point x="268" y="361" type="line"/>
      <point x="285" y="361" type="line"/>
      <point x="116" y="640" type="line"/>
      <point x="25" y="640" type="line"/>
      <point x="239" y="302" type="line"/>
      <point x="230" y="339" type="line"/>
      <point x="230" y="0" type="line"/>
      <point x="323" y="0" type="line"/>
      <point x="323" y="342" type="line"/>
      <point x="316" y="304" type="line"/>
      <point x="523" y="640" type="line"/>
    </contour>
    <contour>
      <point x="230" y="706" type="line"/>
      <point x="333" y="810" type="line"/>
      <point x="454" y="810" type="line"/>
      <point x="315" y="706" type="line"/>
    </contour>
  </outline>
</glyph>
<glyph name="Thorn" format="1">
  <advance width="550"/>
  <unicode hex="00DE"/>
  <outline>
    <contour>
      <point x="158" y="158" type="curve"/>
      <point x="158" y="413" type="line"/>
      <point x="338" y="413"/>
      <point x="395" y="384"/>
      <point x="395" y="291" type="curve" smooth="yes"/>
      <point x="395" y="190"/>
      <point x="338" y="158"/>
    </contour>
    <contour>
      <point x="486" y="294" type="curve" smooth="yes"/>
      <point x="486" y="440"/>
      <point x="407" y="487"/>
      <point x="158" y="489" type="curve"/>
      <point x="158" y="489" type="line"/>
      <point x="158" y="640" type="line"/>
      <point x="63" y="640" type="line"/>
      <point x="63" y="0" type="line"/>
      <point x="158" y="0" type="line"/>
      <point x="158" y="82" type="line"/>
      <point x="407" y="85"/>
      <point x="486" y="136"/>
    </contour>
  </outline>
</glyph>
<glyph name="agrave" format="1">
  <advance width="600"/>
  <unicode hex="00E0"/>
  <outline>
    <contour>
      <point x="320" y="573" type="line"/>
      <point x="237" y="573" type="line"/>
      <point x="101" y="675" type="line"/>
      <point x="219" y="675" type="line"/>
    </contour>
    <component base="a" xOffset="2"/>
  </outline>
</glyph>
<glyph name="aacute" format="1">
  <advance width="550"/>
  <unicode hex="00E1"/>
  <outline>
    <contour>
      <point x="240" y="586" type="line"/>
      <point x="343" y="690" type="line"/>
      <point x="464" y="690" type="line"/>
      <point x="325" y="586" type="line"/>
    </contour>
    <component base="a"/>
  </outline>
</glyph>
<glyph name="acircumflex" format="1">
  <advance width="545"/>
  <unicode hex="00E2"/>
  <outline>
    <contour>
      <point x="404" y="586" type="line"/>
      <point x="315" y="586" type="line"/>
      <point x="273" y="636" type="line"/>
      <point x="231" y="586" type="line"/>
      <point x="144" y="586" type="line"/>
      <point x="230" y="690" type="line"/>
      <point x="312" y="690" type="line"/>
    </contour>
    <contour>
      <point x="391" y="301" type="curve"/>
      <point x="391" y="250" type="line"/>
      <point x="356" y="250"/>
      <point x="141" y="271"/>
      <point x="141" y="152" type="curve" smooth="yes"/>
      <point x="141" y="75"/>
      <point x="188" y="57"/>
      <point x="239" y="57" type="curve" smooth="yes"/>
      <point x="311" y="57"/>
      <point x="393" y="112"/>
      <point x="393" y="112" type="curve"/>
      <point x="413" y="55" type="line"/>
      <point x="413" y="55"/>
      <point x="343" y="-6"/>
      <point x="211" y="-6" type="curve" smooth="yes"/>
      <point x="123" y="-6"/>
      <point x="62" y="53"/>
      <point x="62" y="132" type="curve" smooth="yes"/>
      <point x="62" y="356"/>
      <point x="327" y="301"/>
    </contour>
    <contour>
      <point x="82" y="433" type="line"/>
      <point x="82" y="433"/>
      <point x="171" y="499"/>
      <point x="264" y="499" type="curve" smooth="yes"/>
      <point x="364" y="499"/>
      <point x="467" y="462"/>
      <point x="467" y="321" type="curve" smooth="yes"/>
      <point x="467" y="200"/>
      <point x="467" y="0"/>
      <point x="467" y="0" type="curve"/>
      <point x="382" y="0" type="line"/>
      <point x="382" y="0"/>
      <point x="382" y="261"/>
      <point x="382" y="318" type="curve" smooth="yes"/>
      <point x="382" y="407"/>
      <point x="324" y="432"/>
      <point x="260" y="432" type="curve" smooth="yes"/>
      <point x="167" y="432"/>
      <point x="119" y="379"/>
      <point x="119" y="379" type="curve"/>
    </contour>
  </outline>
</glyph>
<glyph name="atilde" format="1">
  <advance width="545"/>
  <unicode hex="00E3"/>
  <outline>
    <contour>
      <point x="96" y="617"/>
      <point x="134" y="689"/>
      <point x="203" y="689" type="curve" smooth="yes"/>
      <point x="272" y="689"/>
      <point x="300" y="635"/>
      <point x="343" y="635" type="curve" smooth="yes"/>
      <point x="383" y="635"/>
      <point x="407" y="682"/>
      <point x="407" y="682" type="curve"/>
      <point x="407" y="682"/>
      <point x="449" y="642"/>
      <point x="449" y="642" type="curve"/>
      <point x="449" y="642"/>
      <point x="403" y="572"/>
      <point x="342" y="572" type="curve" smooth="yes"/>
      <point x="281" y="572"/>
      <point x="239" y="625"/>
      <point x="200" y="625" type="curve" smooth="yes"/>
      <point x="161" y="625"/>
      <point x="138" y="578"/>
      <point x="138" y="578" type="curve"/>
      <point x="96" y="617" type="line"/>
    </contour>
    <contour>
      <point x="391" y="301" type="curve"/>
      <point x="391" y="250" type="line"/>
      <point x="356" y="250"/>
      <point x="141" y="271"/>
      <point x="141" y="152" type="curve" smooth="yes"/>
      <point x="141" y="75"/>
      <point x="188" y="57"/>
      <point x="239" y="57" type="curve" smooth="yes"/>
      <point x="311" y="57"/>
      <point x="393" y="112"/>
      <point x="393" y="112" type="curve"/>
      <point x="413" y="55" type="line"/>
      <point x="413" y="55"/>
      <point x="343" y="-6"/>
      <point x="211" y="-6" type="curve" smooth="yes"/>
      <point x="123" y="-6"/>
      <point x="62" y="53"/>
      <point x="62" y="132" type="curve" smooth="yes"/>
      <point x="62" y="356"/>
      <point x="327" y="301"/>
    </contour>
    <contour>
      <point x="82" y="433" type="line"/>
      <point x="82" y="433"/>
      <point x="171" y="499"/>
      <point x="264" y="499" type="curve" smooth="yes"/>
      <point x="364" y="499"/>
      <point x="467" y="462"/>
      <point x="467" y="321" type="curve" smooth="yes"/>
      <point x="467" y="200"/>
      <point x="467" y="0"/>
      <point x="467" y="0" type="curve"/>
      <point x="382" y="0" type="line"/>
      <point x="382" y="0"/>
      <point x="382" y="261"/>
      <point x="382" y="318" type="curve" smooth="yes"/>
      <point x="382" y="407"/>
      <point x="324" y="432"/>
      <point x="260" y="432" type="curve" smooth="yes"/>
      <point x="167" y="432"/>
      <point x="119" y="379"/>
      <point x="119" y="379" type="curve"/>
    </contour>
  </outline>
</glyph>
<glyph name="adieresis" format="1">
  <advance width="545"/>
  <unicode hex="00E4"/>
  <outline>
    <contour>
      <point x="391" y="301" type="curve"/>
      <point x="391" y="250" type="line"/>
      <point x="356" y="250"/>
      <point x="141" y="271"/>
      <point x="141" y="152" type="curve" smooth="yes"/>
      <point x="141" y="75"/>
      <point x="188" y="57"/>
      <point x="239" y="57" type="curve" smooth="yes"/>
      <point x="311" y="57"/>
      <point x="393" y="112"/>
      <point x="393" y="112" type="curve"/>
      <point x="413" y="55" type="line"/>
      <point x="413" y="55"/>
      <point x="343" y="-6"/>
      <point x="211" y="-6" type="curve" smooth="yes"/>
      <point x="123" y="-6"/>
      <point x="62" y="53"/>
      <point x="62" y="132" type="curve" smooth="yes"/>
      <point x="62" y="356"/>
      <point x="327" y="301"/>
    </contour>
    <contour>
      <point x="82" y="433" type="line"/>
      <point x="82" y="433"/>
      <point x="171" y="499"/>
      <point x="264" y="499" type="curve" smooth="yes"/>
      <point x="364" y="499"/>
      <point x="467" y="462"/>
      <point x="467" y="321" type="curve" smooth="yes"/>
      <point x="467" y="200"/>
      <point x="467" y="0"/>
      <point x="467" y="0" type="curve"/>
      <point x="382" y="0" type="line"/>
      <point x="382" y="0"/>
      <point x="382" y="261"/>
      <point x="382" y="318" type="curve" smooth="yes"/>
      <point x="382" y="407"/>
      <point x="324" y="432"/>
      <point x="260" y="432" type="curve" smooth="yes"/>
      <point x="167" y="432"/>
      <point x="119" y="379"/>
      <point x="119" y="379" type="curve"/>
    </contour>
    <contour>
      <point x="220" y="635" type="curve" smooth="yes"/>
      <point x="220" y="665"/>
      <point x="196" y="690"/>
      <point x="165" y="690" type="curve" smooth="yes"/>
      <point x="135" y="690"/>
      <point x="111" y="665"/>
      <point x="111" y="635" type="curve" smooth="yes"/>
      <point x="111" y="605"/>
      <point x="135" y="580"/>
      <point x="165" y="580" type="curve" smooth="yes"/>
      <point x="196" y="580"/>
      <point x="220" y="605"/>
    </contour>
    <contour>
      <point x="434" y="635" type="curve" smooth="yes"/>
      <point x="434" y="665"/>
      <point x="410" y="690"/>
      <point x="379" y="690" type="curve" smooth="yes"/>
      <point x="349" y="690"/>
      <point x="325" y="665"/>
      <point x="325" y="635" type="curve" smooth="yes"/>
      <point x="325" y="605"/>
      <point x="349" y="580"/>
      <point x="379" y="580" type="curve" smooth="yes"/>
      <point x="410" y="580"/>
      <point x="434" y="605"/>
    </contour>
  </outline>
</glyph>
<glyph name="aring" format="1">
  <advance width="600"/>
  <unicode hex="00E5"/>
  <outline>
    <contour>
      <point x="277" y="731" type="curve" smooth="yes"/>
      <point x="223" y="731"/>
      <point x="180" y="688"/>
      <point x="180" y="635" type="curve" smooth="yes"/>
      <point x="180" y="581"/>
      <point x="223" y="538"/>
      <point x="277" y="538" type="curve" smooth="yes"/>
      <point x="330" y="538"/>
      <point x="373" y="581"/>
      <point x="373" y="635" type="curve" smooth="yes"/>
      <point x="373" y="688"/>
      <point x="330" y="731"/>
    </contour>
    <contour>
      <point x="277" y="591" type="curve" smooth="yes"/>
      <point x="252" y="591"/>
      <point x="233" y="610"/>
      <point x="233" y="635" type="curve" smooth="yes"/>
      <point x="233" y="658"/>
      <point x="252" y="678"/>
      <point x="277" y="678" type="curve" smooth="yes"/>
      <point x="300" y="678"/>
      <point x="320" y="658"/>
      <point x="320" y="635" type="curve" smooth="yes"/>
      <point x="320" y="610"/>
      <point x="300" y="591"/>
    </contour>
    <component base="a"/>
  </outline>
</glyph>
<glyph name="ccedilla" format="1">
  <advance width="550"/>
  <unicode hex="00E7"/>
  <outline>
    <contour>
      <point x="368" y="44" type="line"/>
      <point x="239" y="44" type="line"/>
      <point x="239" y="0" type="line"/>
      <point x="185" y="-174" type="line"/>
      <point x="258" y="-174" type="line"/>
      <point x="369" y="2" type="line"/>
    </contour>
    <contour>
      <point x="72" y="245" type="curve"/>
      <point x="78" y="88"/>
      <point x="131" y="-6"/>
      <point x="287" y="-6" type="curve" smooth="yes"/>
      <point x="411" y="-6"/>
      <point x="477" y="31"/>
      <point x="477" y="31" type="curve"/>
      <point x="477" y="108" type="line"/>
      <point x="477" y="108"/>
      <point x="404" y="71"/>
      <point x="313" y="71" type="curve" smooth="yes"/>
      <point x="224" y="71"/>
      <point x="166" y="92"/>
      <point x="164" y="245" type="curve" smooth="yes"/>
      <point x="166" y="398"/>
      <point x="225" y="422"/>
      <point x="314" y="422" type="curve" smooth="yes"/>
      <point x="405" y="422"/>
      <point x="478" y="384"/>
      <point x="478" y="384" type="curve"/>
      <point x="478" y="461" type="line"/>
      <point x="478" y="461"/>
      <point x="412" y="499"/>
      <point x="288" y="499" type="curve" smooth="yes"/>
      <point x="132" y="499"/>
      <point x="78" y="402"/>
    </contour>
  </outline>
</glyph>
<glyph name="egrave" format="1">
  <advance width="550"/>
  <unicode hex="00E8"/>
  <outline>
    <contour>
      <point x="317" y="586" type="line"/>
      <point x="232" y="586" type="line"/>
      <point x="93" y="690" type="line"/>
      <point x="214" y="690" type="line"/>
    </contour>
    <component base="e"/>
  </outline>
</glyph>
<glyph name="eacute" format="1">
  <advance width="600"/>
  <unicode hex="00E9"/>
  <outline>
    <contour>
      <point x="227" y="573" type="line"/>
      <point x="328" y="675" type="line"/>
      <point x="446" y="675" type="line"/>
      <point x="310" y="573" type="line"/>
    </contour>
    <component base="e"/>
  </outline>
</glyph>
<glyph name="ecircumflex" format="1">
  <advance width="550"/>
  <unicode hex="00EA"/>
  <outline>
    <contour>
      <point x="406" y="586" type="line"/>
      <point x="317" y="586" type="line"/>
      <point x="275" y="636" type="line"/>
      <point x="233" y="586" type="line"/>
      <point x="146" y="586" type="line"/>
      <point x="232" y="690" type="line"/>
      <point x="314" y="690" type="line"/>
    </contour>
    <component base="e"/>
  </outline>
</glyph>
<glyph name="edieresis" format="1">
  <advance width="550"/>
  <unicode hex="00EB"/>
  <outline>
    <contour>
      <point x="222" y="635" type="curve" smooth="yes"/>
      <point x="222" y="665"/>
      <point x="198" y="690"/>
      <point x="167" y="690" type="curve" smooth="yes"/>
      <point x="137" y="690"/>
      <point x="113" y="665"/>
      <point x="113" y="635" type="curve" smooth="yes"/>
      <point x="113" y="605"/>
      <point x="137" y="580"/>
      <point x="167" y="580" type="curve" smooth="yes"/>
      <point x="198" y="580"/>
      <point x="222" y="605"/>
    </contour>
    <contour>
      <point x="436" y="635" type="curve" smooth="yes"/>
      <point x="436" y="665"/>
      <point x="412" y="690"/>
      <point x="381" y="690" type="curve" smooth="yes"/>
      <point x="351" y="690"/>
      <point x="327" y="665"/>
      <point x="327" y="635" type="curve" smooth="yes"/>
      <point x="327" y="605"/>
      <point x="351" y="580"/>
      <point x="381" y="580" type="curve" smooth="yes"/>
      <point x="412" y="580"/>
      <point x="436" y="605"/>
    </contour>
    <contour>
      <point x="285" y="499" type="curve" smooth="yes"/>
      <point x="122" y="499"/>
      <point x="47" y="404"/>
      <point x="47" y="245" type="curve" smooth="yes"/>
      <point x="47" y="106"/>
      <point x="92" y="-6"/>
      <point x="285" y="-6" type="curve" smooth="yes"/>
      <point x="428" y="-6"/>
      <point x="477" y="40"/>
      <point x="477" y="40" type="curve"/>
      <point x="477" y="122" type="line"/>
      <point x="477" y="122"/>
      <point x="402" y="66"/>
      <point x="285" y="66" type="curve" smooth="yes"/>
      <point x="172" y="66"/>
      <point x="138" y="131"/>
      <point x="138" y="217" type="curve"/>
      <point x="502" y="217" type="line"/>
      <point x="502" y="405"/>
      <point x="424" y="499"/>
    </contour>
    <contour>
      <point x="285" y="427" type="curve" smooth="yes"/>
      <point x="390" y="427"/>
      <point x="413" y="359"/>
      <point x="413" y="282" type="curve"/>
      <point x="139" y="282" type="line"/>
      <point x="139" y="356"/>
      <point x="170" y="427"/>
    </contour>
  </outline>
</glyph>
<glyph name="igrave" format="1">
  <advance width="600"/>
  <unicode hex="00EC"/>
  <outline>
    <contour>
      <point x="342" y="573" type="line"/>
      <point x="259" y="573" type="line"/>
      <point x="123" y="675" type="line"/>
      <point x="242" y="675" type="line"/>
    </contour>
    <contour>
      <point x="418" y="69" type="curve" smooth="yes"/>
      <point x="348" y="69"/>
      <point x="341" y="145"/>
      <point x="341" y="218" type="curve" smooth="yes"/>
      <point x="341" y="228"/>
      <point x="341" y="238"/>
      <point x="341" y="248" type="curve" smooth="yes"/>
      <point x="341" y="479" type="line"/>
      <point x="170" y="479" type="line"/>
      <point x="170" y="411" type="line"/>
      <point x="258" y="411" type="line"/>
      <point x="258" y="283" type="line" smooth="yes"/>
      <point x="258" y="136"/>
      <point x="259" y="-6"/>
      <point x="406" y="-6" type="curve" smooth="yes"/>
      <point x="431" y="-6"/>
      <point x="453" y="-2"/>
      <point x="476" y="5" type="curve"/>
      <point x="476" y="75" type="line"/>
      <point x="457" y="71"/>
      <point x="437" y="69"/>
    </contour>
  </outline>
</glyph>
<glyph name="iacute" format="1">
  <advance width="545"/>
  <unicode hex="00ED"/>
  <outline>
    <contour>
      <point x="383" y="71" type="curve" smooth="yes"/>
      <point x="319" y="71"/>
      <point x="313" y="121"/>
      <point x="314" y="254" type="curve"/>
      <point x="313" y="490" type="line" smooth="yes"/>
      <point x="68" y="490" type="line"/>
      <point x="68" y="420" type="line"/>
      <point x="229" y="420" type="line"/>
      <point x="229" y="289" type="line" smooth="yes"/>
      <point x="229" y="114"/>
      <point x="216" y="-6"/>
      <point x="370" y="-6" type="curve" smooth="yes"/>
      <point x="454" y="-6"/>
      <point x="510" y="31"/>
      <point x="510" y="31" type="curve"/>
      <point x="510" y="105" type="line"/>
      <point x="510" y="105"/>
      <point x="455" y="71"/>
    </contour>
    <contour>
      <point x="230" y="586" type="line"/>
      <point x="333" y="690" type="line"/>
      <point x="454" y="690" type="line"/>
      <point x="315" y="586" type="line"/>
    </contour>
  </outline>
</glyph>
<glyph name="icircumflex" format="1">
  <advance width="550"/>
  <unicode hex="00EE"/>
  <outline>
    <contour>
      <point x="390" y="586" type="line"/>
      <point x="301" y="586" type="line"/>
      <point x="259" y="636" type="line"/>
      <point x="217" y="586" type="line"/>
      <point x="130" y="586" type="line"/>
      <point x="216" y="690" type="line"/>
      <point x="298" y="690" type="line"/>
    </contour>
    <contour>
      <point x="369" y="71" type="curve" smooth="yes"/>
      <point x="305" y="71"/>
      <point x="299" y="121"/>
      <point x="300" y="254" type="curve"/>
      <point x="299" y="490" type="line" smooth="yes"/>
      <point x="54" y="490" type="line"/>
      <point x="54" y="420" type="line"/>
      <point x="215" y="420" type="line"/>
      <point x="215" y="289" type="line" smooth="yes"/>
      <point x="215" y="114"/>
      <point x="202" y="-6"/>
      <point x="356" y="-6" type="curve" smooth="yes"/>
      <point x="440" y="-6"/>
      <point x="496" y="31"/>
      <point x="496" y="31" type="curve"/>
      <point x="496" y="105" type="line"/>
      <point x="496" y="105"/>
      <point x="441" y="71"/>
    </contour>
  </outline>
</glyph>
<glyph name="idieresis" format="1">
  <advance width="550"/>
  <unicode hex="00EF"/>
  <outline>
    <contour>
      <point x="369" y="71" type="curve" smooth="yes"/>
      <point x="305" y="71"/>
      <point x="299" y="121"/>
      <point x="300" y="254" type="curve"/>
      <point x="299" y="490" type="line" smooth="yes"/>
      <point x="54" y="490" type="line"/>
      <point x="54" y="420" type="line"/>
      <point x="215" y="420" type="line"/>
      <point x="215" y="289" type="line" smooth="yes"/>
      <point x="215" y="114"/>
      <point x="202" y="-6"/>
      <point x="356" y="-6" type="curve" smooth="yes"/>
      <point x="440" y="-6"/>
      <point x="496" y="31"/>
      <point x="496" y="31" type="curve"/>
      <point x="496" y="105" type="line"/>
      <point x="496" y="105"/>
      <point x="441" y="71"/>
    </contour>
    <contour>
      <point x="206" y="635" type="curve" smooth="yes"/>
      <point x="206" y="665"/>
      <point x="182" y="690"/>
      <point x="151" y="690" type="curve" smooth="yes"/>
      <point x="121" y="690"/>
      <point x="97" y="665"/>
      <point x="97" y="635" type="curve" smooth="yes"/>
      <point x="97" y="605"/>
      <point x="121" y="580"/>
      <point x="151" y="580" type="curve" smooth="yes"/>
      <point x="182" y="580"/>
      <point x="206" y="605"/>
    </contour>
    <contour>
      <point x="420" y="635" type="curve" smooth="yes"/>
      <point x="420" y="665"/>
      <point x="396" y="690"/>
      <point x="365" y="690" type="curve" smooth="yes"/>
      <point x="335" y="690"/>
      <point x="311" y="665"/>
      <point x="311" y="635" type="curve" smooth="yes"/>
      <point x="311" y="605"/>
      <point x="335" y="580"/>
      <point x="365" y="580" type="curve" smooth="yes"/>
      <point x="396" y="580"/>
      <point x="420" y="605"/>
    </contour>
  </outline>
</glyph>
<glyph name="ntilde" format="1">
  <advance width="545"/>
  <unicode hex="00F1"/>
  <outline>
    <contour>
      <point x="96" y="617"/>
      <point x="134" y="689"/>
      <point x="203" y="689" type="curve" smooth="yes"/>
      <point x="272" y="689"/>
      <point x="300" y="635"/>
      <point x="343" y="635" type="curve" smooth="yes"/>
      <point x="383" y="635"/>
      <point x="407" y="682"/>
      <point x="407" y="682" type="curve"/>
      <point x="407" y="682"/>
      <point x="449" y="642"/>
      <point x="449" y="642" type="curve"/>
      <point x="449" y="642"/>
      <point x="403" y="572"/>
      <point x="342" y="572" type="curve" smooth="yes"/>
      <point x="281" y="572"/>
      <point x="239" y="625"/>
      <point x="200" y="625" type="curve" smooth="yes"/>
      <point x="161" y="625"/>
      <point x="138" y="578"/>
      <point x="138" y="578" type="curve"/>
      <point x="96" y="617" type="line"/>
    </contour>
    <contour>
      <point x="153" y="0" type="line"/>
      <point x="153" y="490" type="line"/>
      <point x="69" y="490" type="line"/>
      <point x="69" y="0" type="line"/>
    </contour>
    <contour>
      <point x="475" y="237" type="line" smooth="yes"/>
      <point x="475" y="430"/>
      <point x="394" y="499"/>
      <point x="294" y="499" type="curve" smooth="yes"/>
      <point x="201" y="499"/>
      <point x="125" y="369"/>
      <point x="125" y="369" type="curve"/>
      <point x="134" y="308" type="line"/>
      <point x="134" y="308"/>
      <point x="185" y="422"/>
      <point x="283" y="422" type="curve" smooth="yes"/>
      <point x="352" y="422"/>
      <point x="392" y="363"/>
      <point x="392" y="234" type="curve" smooth="yes"/>
      <point x="392" y="0" type="line"/>
      <point x="475" y="0" type="line"/>
    </contour>
  </outline>
</glyph>
<glyph name="ograve" format="1">
  <advance width="550"/>
  <unicode hex="00F2"/>
  <outline>
    <contour>
      <point x="317" y="586" type="line"/>
      <point x="232" y="586" type="line"/>
      <point x="93" y="690" type="line"/>
      <point x="214" y="690" type="line"/>
    </contour>
    <component base="o"/>
    <component base="o"/>
  </outline>
</glyph>
<glyph name="oacute" format="1">
  <advance width="600"/>
  <unicode hex="00F3"/>
  <outline>
    <contour>
      <point x="227" y="573" type="line"/>
      <point x="328" y="675" type="line"/>
      <point x="446" y="675" type="line"/>
      <point x="310" y="573" type="line"/>
    </contour>
    <component base="o"/>
  </outline>
</glyph>
<glyph name="ocircumflex" format="1">
  <advance width="545"/>
  <unicode hex="00F4"/>
  <outline>
    <contour>
      <point x="270" y="429" type="curve" smooth="yes"/>
      <point x="395" y="429"/>
      <point x="412" y="341"/>
      <point x="412" y="250" type="curve" smooth="yes"/>
      <point x="412" y="158"/>
      <point x="395" y="65"/>
      <point x="270" y="65" type="curve" smooth="yes"/>
      <point x="146" y="65"/>
      <point x="135" y="158"/>
      <point x="135" y="250" type="curve" smooth="yes"/>
      <point x="135" y="341"/>
      <point x="146" y="429"/>
    </contour>
    <contour>
      <point x="268" y="499" type="curve" smooth="yes"/>
      <point x="100" y="499"/>
      <point x="47" y="389"/>
      <point x="47" y="250" type="curve" smooth="yes"/>
      <point x="47" y="111"/>
      <point x="100" y="-6"/>
      <point x="268" y="-6" type="curve" smooth="yes"/>
      <point x="436" y="-6"/>
      <point x="499" y="111"/>
      <point x="499" y="250" type="curve" smooth="yes"/>
      <point x="499" y="389"/>
      <point x="436" y="499"/>
    </contour>
    <contour>
      <point x="404" y="586" type="line"/>
      <point x="315" y="586" type="line"/>
      <point x="273" y="636" type="line"/>
      <point x="231" y="586" type="line"/>
      <point x="144" y="586" type="line"/>
      <point x="230" y="690" type="line"/>
      <point x="312" y="690" type="line"/>
    </contour>
  </outline>
</glyph>
<glyph name="otilde" format="1">
  <advance width="545"/>
  <unicode hex="00F5"/>
  <outline>
    <contour>
      <point x="270" y="429" type="curve" smooth="yes"/>
      <point x="395" y="429"/>
      <point x="412" y="341"/>
      <point x="412" y="250" type="curve" smooth="yes"/>
      <point x="412" y="158"/>
      <point x="395" y="65"/>
      <point x="270" y="65" type="curve" smooth="yes"/>
      <point x="146" y="65"/>
      <point x="135" y="158"/>
      <point x="135" y="250" type="curve" smooth="yes"/>
      <point x="135" y="341"/>
      <point x="146" y="429"/>
    </contour>
    <contour>
      <point x="268" y="499" type="curve" smooth="yes"/>
      <point x="100" y="499"/>
      <point x="47" y="389"/>
      <point x="47" y="250" type="curve" smooth="yes"/>
      <point x="47" y="111"/>
      <point x="100" y="-6"/>
      <point x="268" y="-6" type="curve" smooth="yes"/>
      <point x="436" y="-6"/>
      <point x="499" y="111"/>
      <point x="499" y="250" type="curve" smooth="yes"/>
      <point x="499" y="389"/>
      <point x="436" y="499"/>
    </contour>
    <contour>
      <point x="96" y="617"/>
      <point x="134" y="689"/>
      <point x="203" y="689" type="curve" smooth="yes"/>
      <point x="272" y="689"/>
      <point x="300" y="635"/>
      <point x="343" y="635" type="curve" smooth="yes"/>
      <point x="383" y="635"/>
      <point x="407" y="682"/>
      <point x="407" y="682" type="curve"/>
      <point x="407" y="682"/>
      <point x="449" y="642"/>
      <point x="449" y="642" type="curve"/>
      <point x="449" y="642"/>
      <point x="403" y="572"/>
      <point x="342" y="572" type="curve" smooth="yes"/>
      <point x="281" y="572"/>
      <point x="239" y="625"/>
      <point x="200" y="625" type="curve" smooth="yes"/>
      <point x="161" y="625"/>
      <point x="138" y="578"/>
      <point x="138" y="578" type="curve"/>
      <point x="96" y="617" type="line"/>
    </contour>
  </outline>
</glyph>
<glyph name="odieresis" format="1">
  <advance width="550"/>
  <unicode hex="00F6"/>
  <outline>
    <contour>
      <point x="272" y="429" type="curve" smooth="yes"/>
      <point x="397" y="429"/>
      <point x="414" y="341"/>
      <point x="414" y="250" type="curve" smooth="yes"/>
      <point x="414" y="158"/>
      <point x="397" y="65"/>
      <point x="272" y="65" type="curve" smooth="yes"/>
      <point x="148" y="65"/>
      <point x="137" y="158"/>
      <point x="137" y="250" type="curve" smooth="yes"/>
      <point x="137" y="341"/>
      <point x="148" y="429"/>
    </contour>
    <contour>
      <point x="270" y="499" type="curve" smooth="yes"/>
      <point x="102" y="499"/>
      <point x="49" y="389"/>
      <point x="49" y="250" type="curve" smooth="yes"/>
      <point x="49" y="111"/>
      <point x="102" y="-6"/>
      <point x="270" y="-6" type="curve" smooth="yes"/>
      <point x="438" y="-6"/>
      <point x="501" y="111"/>
      <point x="501" y="250" type="curve" smooth="yes"/>
      <point x="501" y="389"/>
      <point x="438" y="499"/>
    </contour>
    <contour>
      <point x="222" y="635" type="curve" smooth="yes"/>
      <point x="222" y="665"/>
      <point x="198" y="690"/>
      <point x="167" y="690" type="curve" smooth="yes"/>
      <point x="137" y="690"/>
      <point x="113" y="665"/>
      <point x="113" y="635" type="curve" smooth="yes"/>
      <point x="113" y="605"/>
      <point x="137" y="580"/>
      <point x="167" y="580" type="curve" smooth="yes"/>
      <point x="198" y="580"/>
      <point x="222" y="605"/>
    </contour>
    <contour>
      <point x="436" y="635" type="curve" smooth="yes"/>
      <point x="436" y="665"/>
      <point x="412" y="690"/>
      <point x="381" y="690" type="curve" smooth="yes"/>
      <point x="351" y="690"/>
      <point x="327" y="665"/>
      <point x="327" y="635" type="curve" smooth="yes"/>
      <point x="327" y="605"/>
      <point x="351" y="580"/>
      <point x="381" y="580" type="curve" smooth="yes"/>
      <point x="412" y="580"/>
      <point x="436" y="605"/>
    </contour>
  </outline>
</glyph>
<glyph name="divide" format="1">
  <advance width="550"/>
  <unicode hex="00F7"/>
  <outline>
    <contour>
      <point x="333" y="459"/>
      <point x="307" y="489"/>
      <point x="275" y="489" type="curve" smooth="yes"/>
      <point x="242" y="489"/>
      <point x="216" y="463"/>
      <point x="216" y="431" type="curve" smooth="yes"/>
      <point x="216" y="398"/>
      <point x="242" y="372"/>
      <point x="275" y="372" type="curve" smooth="yes"/>
      <point x="307" y="372"/>
      <point x="333" y="398"/>
      <point x="333" y="431" type="curve"/>
    </contour>
    <contour>
      <point x="333" y="118" type="curve" smooth="yes"/>
      <point x="333" y="150"/>
      <point x="307" y="176"/>
      <point x="275" y="176" type="curve" smooth="yes"/>
      <point x="242" y="176"/>
      <point x="216" y="150"/>
      <point x="216" y="118" type="curve" smooth="yes"/>
      <point x="216" y="85"/>
      <point x="242" y="59"/>
      <point x="275" y="59" type="curve" smooth="yes"/>
      <point x="307" y="59"/>
      <point x="333" y="85"/>
    </contour>
    <contour>
      <point x="449" y="251" type="line"/>
      <point x="101" y="251" type="line"/>
      <point x="101" y="300" type="line"/>
      <point x="449" y="300" type="line"/>
    </contour>
  </outline>
</glyph>
<glyph name="ugrave" format="1">
  <advance width="600"/>
  <unicode hex="00F9"/>
  <outline>
    <contour>
      <point x="320" y="573" type="line"/>
      <point x="237" y="573" type="line"/>
      <point x="101" y="675" type="line"/>
      <point x="219" y="675" type="line"/>
    </contour>
    <component base="u" xOffset="9"/>
  </outline>
</glyph>
<glyph name="uacute" format="1">
  <advance width="600"/>
  <unicode hex="00FA"/>
  <outline>
    <contour>
      <point x="228" y="573" type="line"/>
      <point x="329" y="675" type="line"/>
      <point x="447" y="675" type="line"/>
      <point x="311" y="573" type="line"/>
    </contour>
    <component base="u"/>
  </outline>
</glyph>
<glyph name="ucircumflex" format="1">
  <advance width="600"/>
  <unicode hex="00FB"/>
  <outline>
    <contour>
      <point x="398" y="573" type="line"/>
      <point x="311" y="573" type="line"/>
      <point x="270" y="622" type="line"/>
      <point x="229" y="573" type="line"/>
      <point x="144" y="573" type="line"/>
      <point x="228" y="675" type="line"/>
      <point x="308" y="675" type="line"/>
    </contour>
    <component base="u"/>
  </outline>
</glyph>
<glyph name="udieresis" format="1">
  <advance width="545"/>
  <unicode hex="00FC"/>
  <outline>
    <contour>
      <point x="391" y="490" type="line"/>
      <point x="391" y="0" type="line"/>
      <point x="475" y="0" type="line"/>
      <point x="475" y="490" type="line"/>
    </contour>
    <contour>
      <point x="69" y="256" type="line"/>
      <point x="69" y="63"/>
      <point x="150" y="-6"/>
      <point x="250" y="-6" type="curve" smooth="yes"/>
      <point x="343" y="-6"/>
      <point x="419" y="124"/>
      <point x="419" y="124" type="curve"/>
      <point x="410" y="185" type="line"/>
      <point x="410" y="185"/>
      <point x="359" y="71"/>
      <point x="261" y="71" type="curve" smooth="yes"/>
      <point x="192" y="71"/>
      <point x="152" y="130"/>
      <point x="152" y="259" type="curve" smooth="yes"/>
      <point x="152" y="490" type="line"/>
      <point x="69" y="490" type="line"/>
    </contour>
    <contour>
      <point x="220" y="635" type="curve" smooth="yes"/>
      <point x="220" y="665"/>
      <point x="196" y="690"/>
      <point x="165" y="690" type="curve" smooth="yes"/>
      <point x="135" y="690"/>
      <point x="111" y="665"/>
      <point x="111" y="635" type="curve" smooth="yes"/>
      <point x="111" y="605"/>
      <point x="135" y="580"/>
      <point x="165" y="580" type="curve" smooth="yes"/>
      <point x="196" y="580"/>
      <point x="220" y="605"/>
    </contour>
    <contour>
      <point x="434" y="635" type="curve" smooth="yes"/>
      <point x="434" y="665"/>
      <point x="410" y="690"/>
      <point x="379" y="690" type="curve" smooth="yes"/>
      <point x="349" y="690"/>
      <point x="325" y="665"/>
      <point x="325" y="635" type="curve" smooth="yes"/>
      <point x="325" y="605"/>
      <point x="349" y="580"/>
      <point x="379" y="580" type="curve" smooth="yes"/>
      <point x="410" y="580"/>
      <point x="434" y="605"/>
    </contour>
  </outline>
</glyph>
<glyph name="yacute" format="1">
  <advance width="550"/>
  <unicode hex="00FD"/>
  <outline>
    <contour>
      <point x="220" y="586" type="line"/>
      <point x="323" y="690" type="line"/>
      <point x="444" y="690" type="line"/>
      <point x="305" y="586" type="line"/>
    </contour>
    <component base="y"/>
  </outline>
</glyph>
<glyph name="ydieresis" format="1">
  <advance width="545"/>
  <unicode hex="00FF"/>
  <outline>
    <contour>
      <point x="441" y="490" type="line"/>
      <point x="284" y="107" type="line"/>
      <point x="129" y="490" type="line"/>
      <point x="44" y="490" type="line"/>
      <point x="241" y="1" type="line"/>
      <point x="240" y="0" type="line"/>
      <point x="240" y="0"/>
      <point x="180" y="-135"/>
      <point x="79" y="-135" type="curve"/>
      <point x="79" y="-211" type="line"/>
      <point x="260" y="-211"/>
      <point x="329" y="0"/>
      <point x="329" y="0" type="curve"/>
      <point x="526" y="490" type="line"/>
    </contour>
    <contour>
      <point x="220" y="635" type="curve" smooth="yes"/>
      <point x="220" y="665"/>
      <point x="196" y="690"/>
      <point x="165" y="690" type="curve" smooth="yes"/>
      <point x="135" y="690"/>
      <point x="111" y="665"/>
      <point x="111" y="635" type="curve" smooth="yes"/>
      <point x="111" y="605"/>
      <point x="135" y="580"/>
      <point x="165" y="580" type="curve" smooth="yes"/>
      <point x="196" y="580"/>
      <point x="220" y="605"/>
    </contour>
    <contour>
      <point x="434" y="635" type="curve" smooth="yes"/>
      <point x="434" y="665"/>
      <point x="410" y="690"/>
      <point x="379" y="690" type="curve" smooth="yes"/>
      <point x="349" y="690"/>
      <point x="325" y="665"/>
      <point x="325" y="635" type="curve" smooth="yes"/>
      <point x="325" y="605"/>
      <point x="349" y="580"/>
      <point x="379" y="580" type="curve" smooth="yes"/>
      <point x="410" y="580"/>
      <point x="434" y="605"/>
    </contour>
  </outline>
</glyph>
<glyph name="Lslash" format="1">
  <advance width="600"/>
  <unicode hex="0141"/>
  <outline>
    <contour>
      <point x="373" y="480" type="line"/>
      <point x="79" y="166" type="line"/>
      <point x="79" y="264" type="line"/>
      <point x="280" y="480" type="line"/>
    </contour>
    <component base="L" xOffset="42"/>
  </outline>
</glyph>
<glyph name="Lslash" format="1">
  <advance width="545"/>
  <unicode hex="0141"/>
  <outline>
    <contour>
      <point x="476" y="0" type="line"/>
      <point x="70" y="0" type="line"/>
      <point x="70" y="71" type="line"/>
      <point x="476" y="71" type="line"/>
    </contour>
    <contour>
      <point x="167" y="0" type="line"/>
      <point x="70" y="0" type="line"/>
      <point x="70" y="640" type="line"/>
      <point x="167" y="640" type="line"/>
    </contour>
    <contour>
      <point x="302" y="491" type="line"/>
      <point x="2" y="170" type="line"/>
      <point x="2" y="270" type="line"/>
      <point x="207" y="491" type="line"/>
    </contour>
  </outline>
</glyph>
<glyph name="OE" format="1">
  <advance width="545"/>
  <unicode hex="0152"/>
  <outline>
    <contour>
      <point x="271" y="72" type="curve" smooth="yes"/>
      <point x="138" y="72"/>
      <point x="107" y="211"/>
      <point x="107" y="319" type="curve" smooth="yes"/>
      <point x="107" y="418"/>
      <point x="146" y="568"/>
      <point x="271" y="568" type="curve" smooth="yes"/>
      <point x="291" y="568"/>
      <point x="310" y="564"/>
      <point x="325" y="557" type="curve"/>
      <point x="325" y="82" type="line"/>
      <point x="310" y="76"/>
      <point x="293" y="72"/>
    </contour>
    <contour>
      <point x="329" y="83" type="line"/>
      <point x="329" y="83" type="line"/>
    </contour>
    <contour>
      <point x="329" y="0" type="curve" smooth="yes"/>
      <point x="536" y="0" type="line"/>
      <point x="536" y="70" type="line"/>
      <point x="399" y="70" type="line"/>
      <point x="399" y="292" type="line"/>
      <point x="510" y="292" type="line"/>
      <point x="510" y="355" type="line"/>
      <point x="399" y="355" type="line"/>
      <point x="399" y="570" type="line"/>
      <point x="536" y="570" type="line"/>
      <point x="536" y="640" type="line"/>
      <point x="326" y="640" type="line"/>
      <point x="309" y="644"/>
      <point x="291" y="646"/>
      <point x="271" y="646" type="curve" smooth="yes"/>
      <point x="81" y="646"/>
      <point x="16" y="449"/>
      <point x="16" y="319" type="curve" smooth="yes"/>
      <point x="16" y="179"/>
      <point x="73" y="-6"/>
      <point x="271" y="-6" type="curve" smooth="yes"/>
      <point x="292" y="-6"/>
      <point x="311" y="-4"/>
    </contour>
  </outline>
</glyph>
<glyph name="OE" format="1">
  <advance width="600"/>
  <unicode hex="0152"/>
  <outline>
    <contour>
      <point x="289" y="61" type="curve" smooth="yes"/>
      <point x="184" y="61"/>
      <point x="119" y="155"/>
      <point x="119" y="312" type="curve" smooth="yes"/>
      <point x="119" y="471"/>
      <point x="184" y="565"/>
      <point x="289" y="565" type="curve" smooth="yes"/>
      <point x="309" y="565"/>
      <point x="327" y="562"/>
      <point x="342" y="555" type="curve"/>
      <point x="342" y="70" type="line"/>
      <point x="326" y="64"/>
      <point x="308" y="61"/>
    </contour>
    <contour>
      <point x="346" y="71" type="line"/>
      <point x="346" y="71" type="line"/>
    </contour>
    <contour>
      <point x="346" y="0" type="curve" smooth="yes"/>
      <point x="560" y="0" type="line"/>
      <point x="560" y="62" type="line"/>
      <point x="414" y="62" type="line"/>
      <point x="414" y="293" type="line"/>
      <point x="535" y="293" type="line"/>
      <point x="535" y="347" type="line"/>
      <point x="414" y="347" type="line"/>
      <point x="414" y="564" type="line"/>
      <point x="560" y="564" type="line"/>
      <point x="560" y="626" type="line"/>
      <point x="343" y="626" type="line"/>
      <point x="326" y="630"/>
      <point x="308" y="632"/>
      <point x="289" y="632" type="curve" smooth="yes"/>
      <point x="127" y="632"/>
      <point x="40" y="520"/>
      <point x="40" y="312" type="curve" smooth="yes"/>
      <point x="40" y="105"/>
      <point x="127" y="-6"/>
      <point x="289" y="-6" type="curve" smooth="yes"/>
      <point x="309" y="-6"/>
      <point x="328" y="0"/>
    </contour>
  </outline>
</glyph>
<glyph name="oe" format="1">
  <advance width="550"/>
  <unicode hex="0153"/>
  <outline>
    <contour>
      <point x="149" y="439" type="curve" smooth="yes"/>
      <point x="242" y="439"/>
      <point x="243" y="343"/>
      <point x="243" y="250" type="curve" smooth="yes"/>
      <point x="243" y="154"/>
      <point x="245" y="55"/>
      <point x="149" y="55" type="curve" smooth="yes"/>
      <point x="53" y="55"/>
      <point x="52" y="154"/>
      <point x="52" y="250" type="curve" smooth="yes"/>
      <point x="52" y="343"/>
      <point x="56" y="439"/>
    </contour>
    <contour>
      <point x="147" y="499" type="curve" smooth="yes"/>
      <point x="21" y="499"/>
      <point x="-4" y="376"/>
      <point x="-4" y="250" type="curve" smooth="yes"/>
      <point x="-4" y="121"/>
      <point x="18" y="-6"/>
      <point x="147" y="-6" type="curve" smooth="yes"/>
      <point x="276" y="-6"/>
      <point x="298" y="121"/>
      <point x="298" y="250" type="curve" smooth="yes"/>
      <point x="298" y="376"/>
      <point x="273" y="499"/>
    </contour>
    <contour>
      <point x="411" y="437" type="curve" smooth="yes"/>
      <point x="487" y="437"/>
      <point x="499" y="358"/>
      <point x="499" y="282" type="curve"/>
      <point x="315" y="282" type="line"/>
      <point x="315" y="359"/>
      <point x="334" y="437"/>
    </contour>
    <contour>
      <point x="411" y="499" type="curve" smooth="yes"/>
      <point x="281" y="499"/>
      <point x="243" y="375"/>
      <point x="243" y="245" type="curve" smooth="yes"/>
      <point x="243" y="113"/>
      <point x="299" y="-6"/>
      <point x="431" y="-6" type="curve" smooth="yes"/>
      <point x="462" y="-6"/>
      <point x="492" y="-3"/>
      <point x="522" y="5" type="curve"/>
      <point x="522" y="74" type="line"/>
      <point x="492" y="67"/>
      <point x="462" y="56"/>
      <point x="431" y="56" type="curve" smooth="yes"/>
      <point x="345" y="56"/>
      <point x="314" y="141"/>
      <point x="314" y="227" type="curve"/>
      <point x="558" y="227" type="line"/>
      <point x="558" y="365"/>
      <point x="549" y="499"/>
    </contour>
  </outline>
</glyph>
<glyph name="Scaron" format="1">
  <advance width="600"/>
  <unicode hex="0160"/>
  <outline>
    <contour>
      <point x="396" y="777" type="line"/>
      <point x="306" y="675" type="line"/>
      <point x="226" y="675" type="line"/>
      <point x="142" y="777" type="line"/>
      <point x="227" y="777" type="line"/>
      <point x="268" y="728" type="line"/>
      <point x="309" y="777" type="line"/>
    </contour>
    <component base="S"/>
  </outline>
</glyph>
<glyph name="Scaron" format="1">
  <advance width="550"/>
  <unicode hex="0160"/>
  <outline>
    <contour>
      <point x="405" y="794" type="line"/>
      <point x="313" y="690" type="line"/>
      <point x="231" y="690" type="line"/>
      <point x="145" y="794" type="line"/>
      <point x="232" y="794" type="line"/>
      <point x="274" y="744" type="line"/>
      <point x="316" y="794" type="line"/>
    </contour>
    <component base="S"/>
  </outline>
</glyph>
<glyph name="scaron" format="1">
  <advance width="550"/>
  <unicode hex="0161"/>
  <outline>
    <contour>
      <point x="407" y="690" type="line"/>
      <point x="315" y="586" type="line"/>
      <point x="233" y="586" type="line"/>
      <point x="147" y="690" type="line"/>
      <point x="234" y="690" type="line"/>
      <point x="276" y="640" type="line"/>
      <point x="318" y="690" type="line"/>
    </contour>
    <component base="s"/>
  </outline>
</glyph>
<glyph name="Ydieresis" format="1">
  <advance width="550"/>
  <unicode hex="0178"/>
  <outline>
    <contour>
      <point x="433" y="640" type="line"/>
      <point x="269" y="361" type="line"/>
      <point x="286" y="361" type="line"/>
      <point x="117" y="640" type="line"/>
      <point x="26" y="640" type="line"/>
      <point x="240" y="302" type="line"/>
      <point x="231" y="339" type="line"/>
      <point x="231" y="0" type="line"/>
      <point x="324" y="0" type="line"/>
      <point x="324" y="342" type="line"/>
      <point x="317" y="304" type="line"/>
      <point x="524" y="640" type="line"/>
    </contour>
    <contour>
      <point x="221" y="745" type="curve" smooth="yes"/>
      <point x="221" y="775"/>
      <point x="197" y="800"/>
      <point x="166" y="800" type="curve" smooth="yes"/>
      <point x="136" y="800"/>
      <point x="112" y="775"/>
      <point x="112" y="745" type="curve" smooth="yes"/>
      <point x="112" y="715"/>
      <point x="136" y="690"/>
      <point x="166" y="690" type="curve" smooth="yes"/>
      <point x="197" y="690"/>
      <point x="221" y="715"/>
    </contour>
    <contour>
      <point x="435" y="745" type="curve" smooth="yes"/>
      <point x="435" y="775"/>
      <point x="411" y="800"/>
      <point x="380" y="800" type="curve" smooth="yes"/>
      <point x="350" y="800"/>
      <point x="326" y="775"/>
      <point x="326" y="745" type="curve" smooth="yes"/>
      <point x="326" y="715"/>
      <point x="350" y="690"/>
      <point x="380" y="690" type="curve" smooth="yes"/>
      <point x="411" y="690"/>
      <point x="435" y="715"/>
    </contour>
  </outline>
</glyph>
<glyph name="Zcaron" format="1">
  <advance width="550"/>
  <unicode hex="017D"/>
  <outline>
    <contour>
      <point x="406" y="794" type="line"/>
      <point x="314" y="690" type="line"/>
      <point x="232" y="690" type="line"/>
      <point x="146" y="794" type="line"/>
      <point x="233" y="794" type="line"/>
      <point x="275" y="744" type="line"/>
      <point x="317" y="794" type="line"/>
    </contour>
    <component base="Z"/>
  </outline>
</glyph>
<glyph name="Zcaron" format="1">
  <advance width="545"/>
  <unicode hex="017D"/>
  <outline>
    <contour>
      <point x="404" y="794" type="line"/>
      <point x="312" y="690" type="line"/>
      <point x="230" y="690" type="line"/>
      <point x="144" y="794" type="line"/>
      <point x="231" y="794" type="line"/>
      <point x="273" y="744" type="line"/>
      <point x="315" y="794" type="line"/>
    </contour>
    <contour>
      <point x="151" y="82" type="line"/>
      <point x="489" y="558" type="line"/>
      <point x="489" y="558" type="line"/>
      <point x="489" y="640" type="line"/>
      <point x="57" y="640" type="line"/>
      <point x="57" y="558" type="line"/>
      <point x="379" y="558" type="line"/>
      <point x="48" y="82" type="line"/>
      <point x="48" y="0" type="line"/>
      <point x="498" y="0" type="line"/>
      <point x="498" y="82" type="line"/>
    </contour>
  </outline>
</glyph>
<glyph name="zcaron" format="1">
  <advance width="545"/>
  <unicode hex="017E"/>
  <outline>
    <contour>
      <point x="463" y="420" type="line"/>
      <point x="81" y="420" type="line"/>
      <point x="81" y="490" type="line"/>
      <point x="463" y="490" type="line"/>
    </contour>
    <contour>
      <point x="475" y="0" type="line"/>
      <point x="69" y="0" type="line"/>
      <point x="69" y="70" type="line"/>
      <point x="475" y="70" type="line"/>
    </contour>
    <contour>
      <point x="463" y="420" type="line"/>
      <point x="123" y="25" type="line"/>
      <point x="70" y="70" type="line"/>
      <point x="410" y="465" type="line"/>
    </contour>
    <contour>
      <point x="404" y="690" type="line"/>
      <point x="312" y="586" type="line"/>
      <point x="230" y="586" type="line"/>
      <point x="144" y="690" type="line"/>
      <point x="231" y="690" type="line"/>
      <point x="273" y="640" type="line"/>
      <point x="315" y="690" type="line"/>
    </contour>
  </outline>
</glyph>
<glyph name="circumflex" format="1">
  <advance width="600"/>
  <unicode hex="02C6"/>
  <outline>
    <contour>
      <point x="462" y="537" type="line"/>
      <point x="375" y="537" type="line"/>
      <point x="298" y="622" type="line"/>
      <point x="222" y="537" type="line"/>
      <point x="137" y="537" type="line"/>
      <point x="256" y="675" type="line"/>
      <point x="336" y="675" type="line"/>
    </contour>
  </outline>
</glyph>
<glyph name="caron" format="1">
  <advance width="600"/>
  <unicode hex="02C7"/>
  <outline>
    <contour>
      <point x="462" y="675" type="line"/>
      <point x="375" y="675" type="line"/>
      <point x="298" y="590" type="line"/>
      <point x="222" y="675" type="line"/>
      <point x="137" y="675" type="line"/>
      <point x="256" y="537" type="line"/>
      <point x="336" y="537" type="line"/>
    </contour>
  </outline>
</glyph>
<glyph name="uni02C9" format="1">
  <advance width="545"/>
  <unicode hex="02C9"/>
  <outline>
    <contour>
      <point x="400" y="596" type="line"/>
      <point x="100" y="596" type="line"/>
      <point x="100" y="646" type="line"/>
      <point x="400" y="646" type="line"/>
    </contour>
  </outline>
</glyph>
<glyph name="endash" format="1">
  <advance width="550"/>
  <unicode hex="2013"/>
  <outline>
    <contour>
      <point x="400" y="200" type="line"/>
      <point x="100" y="200" type="line"/>
      <point x="100" y="250" type="line"/>
      <point x="400" y="250" type="line"/>
    </contour>
  </outline>
</glyph>
<glyph name="emdash" format="1">
  <advance width="550"/>
  <unicode hex="2014"/>
  <outline>
    <contour>
      <point x="500" y="200" type="line"/>
      <point x="51" y="200" type="line"/>
      <point x="51" y="250" type="line"/>
      <point x="500" y="250" type="line"/>
    </contour>
  </outline>
</glyph>
<glyph name="quoteleft" format="1">
  <advance width="600"/>
  <unicode hex="2018"/>
  <outline>
    <contour>
      <point x="251" y="675" type="line"/>
      <point x="287" y="390" type="line"/>
      <point x="349" y="390" type="line"/>
      <point x="349" y="675" type="line"/>
    </contour>
  </outline>
</glyph>
<glyph name="quoteright" format="1">
  <advance width="550"/>
  <unicode hex="2019"/>
  <outline>
    <contour>
      <point x="341" y="690" type="line"/>
      <point x="240" y="690" type="line"/>
      <point x="240" y="399" type="line"/>
      <point x="304" y="399" type="line"/>
    </contour>
  </outline>
</glyph>
<glyph name="quotesinglbase" format="1">
  <advance width="550"/>
  <unicode hex="201A"/>
  <outline>
    <contour>
      <point x="339" y="290" type="line"/>
      <point x="205" y="290" type="line"/>
      <point x="239" y="0" type="line"/>
      <point x="309" y="0" type="line"/>
    </contour>
  </outline>
</glyph>
<glyph name="quotedblright" format="1">
  <advance width="600"/>
  <unicode hex="201D"/>
  <outline>
    <contour>
      <point x="226" y="675" type="line"/>
      <point x="128" y="675" type="line"/>
      <point x="128" y="391" type="line"/>
      <point x="196" y="391" type="line"/>
    </contour>
    <contour>
      <point x="471" y="675" type="line"/>
      <point x="372" y="675" type="line"/>
      <point x="372" y="390" type="line"/>
      <point x="435" y="390" type="line"/>
    </contour>
  </outline>
</glyph>
<glyph name="quotedblbase" format="1">
  <advance width="600"/>
  <unicode hex="201E"/>
  <outline>
    <contour>
      <point x="471" y="284" type="line"/>
      <point x="373" y="284" type="line"/>
      <point x="373" y="0" type="line"/>
      <point x="442" y="0" type="line"/>
    </contour>
    <contour>
      <point x="128" y="284" type="line"/>
      <point x="164" y="-1" type="line"/>
      <point x="227" y="-1" type="line"/>
      <point x="227" y="284" type="line"/>
    </contour>
  </outline>
</glyph>
<glyph name="bullet" format="1">
  <advance width="600"/>
  <unicode hex="2022"/>
  <outline>
    <contour>
      <point x="188" y="111" type="line"/>
      <point x="424" y="111" type="line"/>
      <point x="424" y="347" type="line"/>
      <point x="188" y="347" type="line"/>
    </contour>
  </outline>
</glyph>
<glyph name="guilsinglleft" format="1">
  <advance width="600"/>
  <unicode hex="2039"/>
  <outline>
    <contour>
      <point x="369" y="405" type="line"/>
      <point x="369" y="318" type="line"/>
      <point x="284" y="241" type="line"/>
      <point x="369" y="164" type="line"/>
      <point x="369" y="80" type="line"/>
      <point x="230" y="199" type="line"/>
      <point x="230" y="279" type="line"/>
    </contour>
  </outline>
</glyph>
<glyph name="guilsinglright" format="1">
  <advance width="600"/>
  <unicode hex="203A"/>
  <outline>
    <contour>
      <point x="230" y="405" type="line"/>
      <point x="369" y="279" type="line"/>
      <point x="369" y="199" type="line"/>
      <point x="230" y="80" type="line"/>
      <point x="230" y="164" type="line"/>
      <point x="315" y="241" type="line"/>
      <point x="230" y="318" type="line"/>
    </contour>
  </outline>
</glyph>
<glyph name="B" format="1">
  <advance width="550"/>
  <outline>
    <contour>
      <point x="246" y="573" type="curve" smooth="yes"/>
      <point x="338" y="573"/>
      <point x="380" y="543"/>
      <point x="380" y="476" type="curve" smooth="yes"/>
      <point x="380" y="398"/>
      <point x="348" y="363"/>
      <point x="276" y="363" type="curve" smooth="yes"/>
      <point x="239" y="363"/>
      <point x="178" y="363"/>
      <point x="156" y="363" type="curve"/>
      <point x="156" y="573" type="line"/>
      <point x="174" y="573"/>
      <point x="218" y="573"/>
    </contour>
    <contour>
      <point x="264" y="71" type="curve" smooth="yes"/>
      <point x="228" y="71"/>
      <point x="165" y="71"/>
      <point x="156" y="71" type="curve"/>
      <point x="156" y="293" type="line"/>
      <point x="165" y="293"/>
      <point x="236" y="293"/>
      <point x="282" y="293" type="curve" smooth="yes"/>
      <point x="365" y="293"/>
      <point x="402" y="258"/>
      <point x="402" y="180" type="curve" smooth="yes"/>
      <point x="402" y="105"/>
      <point x="359" y="71"/>
    </contour>
    <contour>
      <point x="353" y="334" type="curve"/>
      <point x="427" y="334"/>
      <point x="460" y="376"/>
      <point x="460" y="470" type="curve" smooth="yes"/>
      <point x="460" y="587"/>
      <point x="406" y="640"/>
      <point x="285" y="640" type="curve" smooth="yes"/>
      <point x="285" y="640"/>
      <point x="60" y="640"/>
      <point x="60" y="640" type="curve"/>
      <point x="60" y="334" type="line"/>
      <point x="60" y="332" type="line"/>
      <point x="60" y="0" type="line"/>
      <point x="60" y="0"/>
      <point x="267" y="0"/>
      <point x="302" y="0" type="curve" smooth="yes"/>
      <point x="432" y="0"/>
      <point x="490" y="57"/>
      <point x="490" y="183" type="curve" smooth="yes"/>
      <point x="490" y="287"/>
      <point x="447" y="334"/>
    </contour>
  </outline>
</glyph>
<glyph name="F" format="1">
  <advance width="545"/>
  <outline>
    <contour>
      <point x="175" y="1" type="line"/>
      <point x="80" y="1" type="line"/>
      <point x="80" y="638" type="line"/>
      <point x="175" y="638" type="line"/>
    </contour>
    <contour>
      <point x="486" y="570" type="line"/>
      <point x="80" y="570" type="line"/>
      <point x="80" y="640" type="line"/>
      <point x="486" y="640" type="line"/>
    </contour>
    <contour>
      <point x="380" y="293" type="line"/>
      <point x="80" y="293" type="line"/>
      <point x="80" y="363" type="line"/>
      <point x="380" y="363" type="line"/>
    </contour>
  </outline>
</glyph>
<glyph name="G" format="1">
  <advance width="550"/>
  <outline>
    <contour>
      <point x="426" y="31" type="line"/>
      <point x="514" y="31" type="line"/>
      <point x="514" y="361" type="line"/>
      <point x="426" y="361" type="line"/>
    </contour>
    <contour>
      <point x="299" y="571" type="curve" smooth="yes"/>
      <point x="403" y="571"/>
      <point x="486" y="540"/>
      <point x="486" y="540" type="curve"/>
      <point x="486" y="609" type="line"/>
      <point x="486" y="609"/>
      <point x="422" y="646"/>
      <point x="291" y="646" type="curve" smooth="yes"/>
      <point x="134" y="646"/>
      <point x="36" y="520"/>
      <point x="36" y="319" type="curve" smooth="yes"/>
      <point x="36" y="119"/>
      <point x="134" y="-6"/>
      <point x="291" y="-6" type="curve" smooth="yes"/>
      <point x="456" y="-6"/>
      <point x="514" y="31"/>
      <point x="514" y="31" type="curve"/>
      <point x="514" y="114" type="line"/>
      <point x="514" y="114"/>
      <point x="431" y="72"/>
      <point x="305" y="72" type="curve" smooth="yes"/>
      <point x="202" y="72"/>
      <point x="138" y="167"/>
      <point x="138" y="319" type="curve" smooth="yes"/>
      <point x="138" y="474"/>
      <point x="200" y="571"/>
    </contour>
    <contour>
      <point x="514" y="292" type="line"/>
      <point x="514" y="362" type="line"/>
      <point x="331" y="362" type="line"/>
      <point x="331" y="292" type="line"/>
    </contour>
  </outline>
</glyph>
<glyph name="H" format="1">
  <advance width="550"/>
  <outline>
    <contour>
      <point x="502" y="0" type="line"/>
      <point x="405" y="0" type="line"/>
      <point x="405" y="640" type="line"/>
      <point x="502" y="640" type="line"/>
    </contour>
    <contour>
      <point x="144" y="0" type="line"/>
      <point x="47" y="0" type="line"/>
      <point x="47" y="640" type="line"/>
      <point x="144" y="640" type="line"/>
    </contour>
    <contour>
      <point x="455" y="292" type="line"/>
      <point x="47" y="292" type="line"/>
      <point x="47" y="362" type="line"/>
      <point x="455" y="362" type="line"/>
    </contour>
  </outline>
</glyph>
<glyph name="I" format="1">
  <advance width="545"/>
  <outline>
    <contour>
      <point x="306" y="0" type="line"/>
      <point x="209" y="0" type="line"/>
      <point x="209" y="637" type="line"/>
      <point x="306" y="637" type="line"/>
    </contour>
    <contour>
      <point x="460" y="569" type="line"/>
      <point x="54" y="569" type="line"/>
      <point x="54" y="640" type="line"/>
      <point x="460" y="640" type="line"/>
    </contour>
    <contour>
      <point x="460" y="0" type="line"/>
      <point x="54" y="0" type="line"/>
      <point x="54" y="71" type="line"/>
      <point x="460" y="71" type="line"/>
    </contour>
  </outline>
</glyph>
<glyph name="J" format="1">
  <advance width="550"/>
  <outline>
    <contour>
      <point x="497" y="640" type="line"/>
      <point x="160" y="640" type="line"/>
      <point x="160" y="569" type="line"/>
      <point x="303" y="569" type="line"/>
      <point x="303" y="183" type="line" smooth="yes"/>
      <point x="303" y="98"/>
      <point x="275" y="71"/>
      <point x="188" y="71" type="curve" smooth="yes"/>
      <point x="108" y="71"/>
      <point x="52" y="114"/>
      <point x="52" y="114" type="curve"/>
      <point x="52" y="31" type="line"/>
      <point x="52" y="31"/>
      <point x="102" y="-6"/>
      <point x="188" y="-6" type="curve" smooth="yes"/>
      <point x="348" y="-6"/>
      <point x="400" y="55"/>
      <point x="400" y="245" type="curve" smooth="yes"/>
      <point x="400" y="569" type="line"/>
      <point x="497" y="569" type="line"/>
    </contour>
  </outline>
</glyph>
<glyph name="K" format="1">
  <advance width="550"/>
  <outline>
    <contour>
      <point x="381" y="0" type="line"/>
      <point x="494" y="0" type="line"/>
      <point x="226" y="338" type="line"/>
      <point x="477" y="640" type="line"/>
      <point x="374" y="640" type="line"/>
      <point x="150" y="358" type="line"/>
      <point x="150" y="639" type="line"/>
      <point x="55" y="639" type="line"/>
      <point x="55" y="0" type="line"/>
      <point x="150" y="0" type="line"/>
      <point x="150" y="246" type="line"/>
      <point x="174" y="275" type="line"/>
    </contour>
  </outline>
</glyph>
<glyph name="M" format="1">
  <advance width="545"/>
  <outline>
    <contour>
      <point x="142" y="0" type="line"/>
      <point x="142" y="640" type="line"/>
      <point x="50" y="640" type="line"/>
      <point x="50" y="0" type="line"/>
    </contour>
    <contour>
      <point x="312" y="222" type="line"/>
      <point x="142" y="639" type="line"/>
      <point x="97" y="577" type="line"/>
      <point x="234" y="222" type="line"/>
    </contour>
    <contour>
      <point x="449" y="577" type="line"/>
      <point x="404" y="640" type="line"/>
      <point x="234" y="222" type="line"/>
      <point x="312" y="222" type="line"/>
    </contour>
    <contour>
      <point x="403" y="640" type="line"/>
      <point x="403" y="0" type="line"/>
      <point x="495" y="0" type="line"/>
      <point x="495" y="640" type="line"/>
    </contour>
  </outline>
</glyph>
<glyph name="O" format="1">
  <advance width="545"/>
  <outline>
    <contour>
      <point x="271" y="72" type="curve" smooth="yes"/>
      <point x="138" y="72"/>
      <point x="107" y="211"/>
      <point x="107" y="319" type="curve" smooth="yes"/>
      <point x="107" y="418"/>
      <point x="146" y="568"/>
      <point x="271" y="568" type="curve" smooth="yes"/>
      <point x="396" y="568"/>
      <point x="435" y="418"/>
      <point x="435" y="319" type="curve" smooth="yes"/>
      <point x="435" y="214"/>
      <point x="404" y="72"/>
    </contour>
    <contour>
      <point x="271" y="646" type="curve" smooth="yes"/>
      <point x="81" y="646"/>
      <point x="16" y="449"/>
      <point x="16" y="319" type="curve" smooth="yes"/>
      <point x="16" y="179"/>
      <point x="73" y="-6"/>
      <point x="271" y="-6" type="curve" smooth="yes"/>
      <point x="469" y="-6"/>
      <point x="526" y="182"/>
      <point x="526" y="319" type="curve" smooth="yes"/>
      <point x="526" y="449"/>
      <point x="461" y="646"/>
    </contour>
  </outline>
</glyph>
<glyph name="Q" format="1">
  <advance width="550"/>
  <outline>
    <contour>
      <point x="530" y="319" type="curve" smooth="yes"/>
      <point x="530" y="530"/>
      <point x="440" y="646"/>
      <point x="275" y="646" type="curve" smooth="yes"/>
      <point x="110" y="646"/>
      <point x="20" y="530"/>
      <point x="20" y="319" type="curve" smooth="yes"/>
      <point x="20" y="109"/>
      <point x="110" y="-6"/>
      <point x="275" y="-6" type="curve" smooth="yes"/>
      <point x="314" y="-6"/>
      <point x="352" y="2"/>
      <point x="382" y="17" type="curve"/>
      <point x="479" y="-74" type="line"/>
      <point x="530" y="-3" type="line"/>
      <point x="449" y="68" type="line"/>
      <point x="501" y="126"/>
      <point x="530" y="215"/>
    </contour>
    <contour>
      <point x="111" y="319" type="curve" smooth="yes"/>
      <point x="111" y="480"/>
      <point x="169" y="568"/>
      <point x="275" y="568" type="curve" smooth="yes"/>
      <point x="381" y="568"/>
      <point x="439" y="480"/>
      <point x="439" y="319" type="curve" smooth="yes"/>
      <point x="439" y="159"/>
      <point x="381" y="72"/>
      <point x="275" y="72" type="curve" smooth="yes"/>
      <point x="169" y="72"/>
      <point x="111" y="159"/>
    </contour>
  </outline>
</glyph>
<glyph name="R" format="1">
  <advance width="550"/>
  <outline>
    <contour>
      <point x="155" y="562" type="line"/>
      <point x="225" y="562" type="line" smooth="yes"/>
      <point x="312" y="562"/>
      <point x="356" y="534"/>
      <point x="356" y="465" type="curve" smooth="yes"/>
      <point x="356" y="394"/>
      <point x="324" y="356"/>
      <point x="225" y="356" type="curve" smooth="yes"/>
      <point x="155" y="356" type="line"/>
    </contour>
    <contour>
      <point x="316" y="308" type="curve"/>
      <point x="398" y="321"/>
      <point x="438" y="382"/>
      <point x="438" y="460" type="curve" smooth="yes"/>
      <point x="438" y="550"/>
      <point x="404" y="637"/>
      <point x="226" y="637" type="curve"/>
      <point x="226" y="637" type="line"/>
      <point x="59" y="637" type="line"/>
      <point x="59" y="0" type="line"/>
      <point x="154" y="0" type="line"/>
      <point x="154" y="284" type="line"/>
      <point x="225" y="284" type="line" smooth="yes"/>
      <point x="282" y="284"/>
      <point x="386" y="0"/>
      <point x="386" y="0" type="curve"/>
      <point x="491" y="0" type="line"/>
      <point x="491" y="0"/>
      <point x="357" y="308"/>
    </contour>
  </outline>
</glyph>
<glyph name="V" format="1">
  <advance width="550"/>
  <outline>
    <contour>
      <point x="435" y="640" type="line"/>
      <point x="285" y="132" type="line"/>
      <point x="114" y="640" type="line"/>
      <point x="29" y="640" type="line"/>
      <point x="246" y="0" type="line"/>
      <point x="334" y="0" type="line"/>
      <point x="520" y="640" type="line"/>
    </contour>
  </outline>
</glyph>
<glyph name="W" format="1">
  <advance width="550"/>
  <outline>
    <contour>
      <point x="478" y="640" type="line"/>
      <point x="396" y="135" type="line"/>
      <point x="323" y="361" type="line"/>
      <point x="323" y="361"/>
      <point x="244" y="361"/>
      <point x="244" y="361" type="curve"/>
      <point x="167" y="127" type="line"/>
      <point x="72" y="640" type="line"/>
      <point x="-7" y="640" type="line"/>
      <point x="119" y="0" type="line"/>
      <point x="126" y="0" type="line"/>
      <point x="191" y="0" type="line"/>
      <point x="192" y="0" type="line"/>
      <point x="283" y="260" type="line"/>
      <point x="373" y="0" type="line"/>
      <point x="374" y="0" type="line"/>
      <point x="439" y="0" type="line"/>
      <point x="446" y="0" type="line"/>
      <point x="557" y="640" type="line"/>
    </contour>
  </outline>
</glyph>
<glyph name="X" format="1">
  <advance width="550"/>
  <outline>
    <contour>
      <point x="524" y="640" type="line"/>
      <point x="423" y="640" type="line"/>
      <point x="277" y="392" type="line"/>
      <point x="127" y="640" type="line"/>
      <point x="26" y="640" type="line"/>
      <point x="229" y="320" type="line"/>
      <point x="26" y="0" type="line"/>
      <point x="127" y="0" type="line"/>
      <point x="277" y="248" type="line"/>
      <point x="423" y="0" type="line"/>
      <point x="524" y="0" type="line"/>
      <point x="326" y="320" type="line"/>
    </contour>
  </outline>
</glyph>
<glyph name="Z" format="1">
  <advance width="550"/>
  <outline>
    <contour>
      <point x="153" y="82" type="line"/>
      <point x="491" y="558" type="line"/>
      <point x="491" y="558" type="line"/>
      <point x="491" y="640" type="line"/>
      <point x="59" y="640" type="line"/>
      <point x="59" y="558" type="line"/>
      <point x="381" y="558" type="line"/>
      <point x="50" y="82" type="line"/>
      <point x="50" y="0" type="line"/>
      <point x="500" y="0" type="line"/>
      <point x="500" y="82" type="line"/>
    </contour>
  </outline>
</glyph>
<glyph name=".notdef" format="1">
  <advance width="546"/>
  <outline>
    <contour>
      <point x="483" y="690" type="line"/>
      <point x="63" y="690" type="line"/>
      <point x="63" y="-201" type="line"/>
      <point x="483" y="-201" type="line"/>
    </contour>
    <contour>
      <point x="429" y="638" type="line"/>
      <point x="429" y="-149" type="line"/>
      <point x="118" y="-149" type="line"/>
      <point x="118" y="638" type="line"/>
    </contour>
    <contour>
      <point x="249" y="183" type="line" smooth="yes"/>
      <point x="249" y="263"/>
      <point x="352" y="276"/>
      <point x="352" y="330" type="curve" smooth="yes"/>
      <point x="352" y="407"/>
      <point x="262" y="402"/>
      <point x="262" y="402" type="curve"/>
      <point x="203" y="402"/>
      <point x="141" y="366"/>
      <point x="141" y="366" type="curve"/>
      <point x="141" y="417" type="line"/>
      <point x="141" y="417"/>
      <point x="181" y="453"/>
      <point x="262" y="453" type="curve" smooth="yes"/>
      <point x="330" y="453"/>
      <point x="408" y="416"/>
      <point x="408" y="331" type="curve" smooth="yes"/>
      <point x="408" y="262"/>
      <point x="304" y="240"/>
      <point x="304" y="183" type="curve" smooth="yes"/>
      <point x="304" y="159" type="line"/>
      <point x="249" y="159" type="line"/>
    </contour>
    <contour>
      <point x="304" y="77" type="line"/>
      <point x="249" y="77" type="line"/>
      <point x="249" y="0" type="line"/>
      <point x="304" y="0" type="line"/>
    </contour>
  </outline>
</glyph>
<glyph name="b" format="1">
  <advance width="550"/>
  <outline>
    <contour>
      <point x="72" y="86" type="line"/>
      <point x="72" y="86"/>
      <point x="155" y="60"/>
      <point x="243" y="60" type="curve" smooth="yes"/>
      <point x="344" y="60"/>
      <point x="395" y="107"/>
      <point x="395" y="234" type="curve" smooth="yes"/>
      <point x="395" y="363"/>
      <point x="354" y="422"/>
      <point x="286" y="422" type="curve" smooth="yes"/>
      <point x="188" y="422"/>
      <point x="137" y="308"/>
      <point x="137" y="308" type="curve"/>
      <point x="128" y="369" type="line"/>
      <point x="128" y="369"/>
      <point x="204" y="499"/>
      <point x="297" y="499" type="curve" smooth="yes"/>
      <point x="397" y="499"/>
      <point x="478" y="430"/>
      <point x="478" y="237" type="curve" smooth="yes"/>
      <point x="478" y="44"/>
      <point x="373" y="-6"/>
      <point x="247" y="-6" type="curve" smooth="yes"/>
      <point x="156" y="-6"/>
      <point x="72" y="13"/>
      <point x="72" y="13" type="curve"/>
    </contour>
    <contour>
      <point x="72" y="690" type="line"/>
      <point x="156" y="690" type="line"/>
      <point x="156" y="13" type="line"/>
      <point x="72" y="13" type="line"/>
    </contour>
  </outline>
</glyph>
<glyph name="c" format="1">
  <advance width="550"/>
  <outline>
    <contour>
      <point x="72" y="245" type="curve"/>
      <point x="78" y="73"/>
      <point x="146" y="-6"/>
      <point x="287" y="-6" type="curve" smooth="yes"/>
      <point x="411" y="-6"/>
      <point x="477" y="31"/>
      <point x="477" y="31" type="curve"/>
      <point x="477" y="108" type="line"/>
      <point x="477" y="108"/>
      <point x="404" y="71"/>
      <point x="313" y="71" type="curve" smooth="yes"/>
      <point x="213" y="71"/>
      <point x="166" y="126"/>
      <point x="164" y="245" type="curve" smooth="yes"/>
      <point x="166" y="366"/>
      <point x="213" y="422"/>
      <point x="314" y="422" type="curve" smooth="yes"/>
      <point x="405" y="422"/>
      <point x="478" y="384"/>
      <point x="478" y="384" type="curve"/>
      <point x="478" y="461" type="line"/>
      <point x="478" y="461"/>
      <point x="412" y="499"/>
      <point x="288" y="499" type="curve" smooth="yes"/>
      <point x="147" y="499"/>
      <point x="79" y="419"/>
    </contour>
  </outline>
</glyph>
<glyph name="degree.001" format="1">
  <advance width="600"/>
  <outline>
    <contour>
      <point x="-306" y="502" type="move"/>
      <point x="-281" y="502"/>
      <point x="-261" y="474"/>
      <point x="-261" y="449" type="curve"/>
      <point x="-261" y="424"/>
      <point x="-287" y="400"/>
      <point x="-305" y="400" type="curve" smooth="yes"/>
    </contour>
  </outline>
</glyph>
<glyph name="e" format="1">
  <advance width="545"/>
  <outline>
    <contour>
      <point x="283" y="499" type="curve" smooth="yes"/>
      <point x="120" y="499"/>
      <point x="45" y="404"/>
      <point x="45" y="245" type="curve" smooth="yes"/>
      <point x="45" y="106"/>
      <point x="90" y="-6"/>
      <point x="283" y="-6" type="curve" smooth="yes"/>
      <point x="426" y="-6"/>
      <point x="475" y="40"/>
      <point x="475" y="40" type="curve"/>
      <point x="475" y="122" type="line"/>
      <point x="475" y="122"/>
      <point x="400" y="66"/>
      <point x="283" y="66" type="curve" smooth="yes"/>
      <point x="170" y="66"/>
      <point x="136" y="131"/>
      <point x="136" y="217" type="curve"/>
      <point x="500" y="217" type="line"/>
      <point x="500" y="405"/>
      <point x="422" y="499"/>
    </contour>
    <contour>
      <point x="283" y="427" type="curve" smooth="yes"/>
      <point x="388" y="427"/>
      <point x="411" y="359"/>
      <point x="411" y="282" type="curve"/>
      <point x="137" y="282" type="line"/>
      <point x="137" y="356"/>
      <point x="168" y="427"/>
    </contour>
  </outline>
</glyph>
<glyph name="eight" format="1">
  <advance width="550"/>
  <outline>
    <contour>
      <point x="275" y="646" type="curve" smooth="yes"/>
      <point x="412" y="646"/>
      <point x="485" y="582"/>
      <point x="485" y="462" type="curve" smooth="yes"/>
      <point x="485" y="353"/>
      <point x="366" y="290"/>
      <point x="366" y="290" type="curve"/>
      <point x="338" y="305" type="line"/>
      <point x="281" y="326" type="line"/>
      <point x="281" y="326"/>
      <point x="393" y="371"/>
      <point x="393" y="462" type="curve" smooth="yes"/>
      <point x="393" y="534"/>
      <point x="352" y="573"/>
      <point x="275" y="573" type="curve" smooth="yes"/>
      <point x="198" y="573"/>
      <point x="157" y="537"/>
      <point x="157" y="469" type="curve" smooth="yes"/>
      <point x="157" y="288"/>
      <point x="498" y="412"/>
      <point x="498" y="183" type="curve" smooth="yes"/>
      <point x="498" y="60"/>
      <point x="424" y="-6"/>
      <point x="284" y="-6" type="curve" smooth="yes"/>
      <point x="133" y="-6"/>
      <point x="52" y="61"/>
      <point x="52" y="186" type="curve" smooth="yes"/>
      <point x="52" y="317"/>
      <point x="213" y="343"/>
      <point x="213" y="343" type="curve"/>
      <point x="242" y="333" type="line"/>
      <point x="286" y="313" type="line"/>
      <point x="286" y="313"/>
      <point x="136" y="279"/>
      <point x="136" y="188" type="curve" smooth="yes"/>
      <point x="136" y="109"/>
      <point x="187" y="67"/>
      <point x="284" y="67" type="curve" smooth="yes"/>
      <point x="369" y="67"/>
      <point x="414" y="106"/>
      <point x="414" y="180" type="curve" smooth="yes"/>
      <point x="414" y="376"/>
      <point x="66" y="228"/>
      <point x="66" y="467" type="curve" smooth="yes"/>
      <point x="66" y="584"/>
      <point x="139" y="646"/>
    </contour>
  </outline>
</glyph>
<glyph name="five" format="1">
  <advance width="545"/>
  <outline>
    <contour>
      <point x="101" y="303" type="line"/>
      <point x="101" y="639" type="line"/>
      <point x="426" y="640" type="line"/>
      <point x="426" y="569" type="line"/>
      <point x="194" y="569" type="line"/>
      <point x="194" y="371" type="line"/>
      <point x="306" y="371" type="line" smooth="yes"/>
      <point x="423" y="371"/>
      <point x="500" y="278"/>
      <point x="500" y="191" type="curve" smooth="yes"/>
      <point x="500" y="69"/>
      <point x="393" y="-6"/>
      <point x="245" y="-6" type="curve" smooth="yes"/>
      <point x="146" y="-6"/>
      <point x="80" y="5"/>
      <point x="80" y="5" type="curve"/>
      <point x="80" y="82" type="line"/>
      <point x="80" y="82"/>
      <point x="138" y="68"/>
      <point x="224" y="68" type="curve" smooth="yes"/>
      <point x="316" y="68"/>
      <point x="410" y="93"/>
      <point x="410" y="186" type="curve" smooth="yes"/>
      <point x="410" y="295"/>
      <point x="298" y="303"/>
      <point x="264" y="303" type="curve" smooth="yes"/>
    </contour>
  </outline>
</glyph>
<glyph name="four" format="1">
  <advance width="545"/>
  <outline>
    <contour>
      <point x="514" y="224" type="line"/>
      <point x="383" y="224" type="line"/>
      <point x="383" y="640" type="line"/>
      <point x="299" y="640" type="line"/>
      <point x="31" y="224" type="line"/>
      <point x="31" y="153" type="line"/>
      <point x="299" y="153" type="line"/>
      <point x="299" y="0" type="line"/>
      <point x="383" y="0" type="line"/>
      <point x="383" y="153" type="line"/>
      <point x="514" y="153" type="line"/>
    </contour>
    <contour>
      <point x="118" y="224" type="line"/>
      <point x="299" y="505" type="line"/>
      <point x="299" y="224" type="line"/>
    </contour>
  </outline>
</glyph>
<glyph name="g" format="1">
  <advance width="545"/>
  <outline>
    <contour>
      <point x="388.0" y="84.0" type="curve" smooth="yes"/>
      <point x="388.0" y="490.0" type="line"/>
      <point x="472.0" y="466.0" type="line"/>
      <point x="472.0" y="466.0"/>
      <point x="472.0" y="163.0"/>
      <point x="472.0" y="84.0" type="curve" smooth="yes"/>
      <point x="472.0" y="-91.0"/>
      <point x="435.0" y="-211.0"/>
      <point x="281.0" y="-211.0" type="curve" smooth="yes"/>
      <point x="157.0" y="-211.0"/>
      <point x="91.0" y="-174.0"/>
      <point x="91.0" y="-174.0" type="curve"/>
      <point x="91.0" y="-97.0" type="line"/>
      <point x="91.0" y="-97.0"/>
      <point x="178.0" y="-134.0"/>
      <point x="269.0" y="-134.0" type="curve" smooth="yes"/>
      <point x="349.0" y="-134.0"/>
      <point x="388.0" y="-75.0"/>
    </contour>
    <contour>
      <point x="472.0" y="407.0" type="line"/>
      <point x="472.0" y="407.0"/>
      <point x="389.0" y="433.0"/>
      <point x="301.0" y="433.0" type="curve" smooth="yes"/>
      <point x="200.0" y="433.0"/>
      <point x="149.0" y="386.0"/>
      <point x="149.0" y="259.0" type="curve" smooth="yes"/>
      <point x="149.0" y="130.0"/>
      <point x="190.0" y="71.0"/>
      <point x="258.0" y="71.0" type="curve" smooth="yes"/>
      <point x="356.0" y="71.0"/>
      <point x="407.0" y="185.0"/>
      <point x="407.0" y="185.0" type="curve"/>
      <point x="416.0" y="124.0" type="line"/>
      <point x="416.0" y="124.0"/>
      <point x="340.0" y="-6.0"/>
      <point x="247.0" y="-6.0" type="curve" smooth="yes"/>
      <point x="147.0" y="-6.0"/>
      <point x="66.0" y="63.0"/>
      <point x="66.0" y="256.0" type="curve" smooth="yes"/>
      <point x="66.0" y="449.0"/>
      <point x="171.0" y="499.0"/>
      <point x="297.0" y="499.0" type="curve" smooth="yes"/>
      <point x="388.0" y="499.0"/>
      <point x="472.0" y="480.0"/>
      <point x="472.0" y="480.0" type="curve"/>
    </contour>
  </outline>
</glyph>
<glyph name="i" format="1">
  <advance width="550"/>
  <outline>
    <contour>
      <point x="317" y="630" type="curve" smooth="yes"/>
      <point x="317" y="668"/>
      <point x="290" y="695"/>
      <point x="252" y="695" type="curve" smooth="yes"/>
      <point x="214" y="695"/>
      <point x="186" y="668"/>
      <point x="186" y="630" type="curve" smooth="yes"/>
      <point x="186" y="592"/>
      <point x="214" y="564"/>
      <point x="252" y="564" type="curve" smooth="yes"/>
      <point x="290" y="564"/>
      <point x="317" y="592"/>
    </contour>
    <contour>
      <point x="378.0" y="71.0" type="curve" smooth="yes"/>
      <point x="296.0" y="71.0"/>
      <point x="298.0" y="172.0"/>
      <point x="299.0" y="254.0" type="curve"/>
      <point x="299.0" y="490.0" type="line" smooth="yes"/>
      <point x="125.0" y="490.0" type="line"/>
      <point x="125.0" y="420.0" type="line"/>
      <point x="215.0" y="420.0" type="line"/>
      <point x="215.0" y="289.0" type="line" smooth="yes"/>
      <point x="215.0" y="139.0"/>
      <point x="216.0" y="-6.0"/>
      <point x="366.0" y="-6.0" type="curve" smooth="yes"/>
      <point x="391.0" y="-6.0"/>
      <point x="414.0" y="-2.0"/>
      <point x="437.0" y="5.0" type="curve"/>
      <point x="437.0" y="77.0" type="line"/>
      <point x="418.0" y="73.0"/>
      <point x="398.0" y="71.0"/>
    </contour>
  </outline>
</glyph>
<glyph name="k" format="1">
  <advance width="545"/>
  <outline>
    <contour>
      <point x="374" y="0" type="line"/>
      <point x="485" y="0" type="line"/>
      <point x="259" y="314" type="line"/>
      <point x="200" y="251" type="line"/>
    </contour>
    <contour>
      <point x="79" y="690" type="line"/>
      <point x="79" y="0" type="line"/>
      <point x="163" y="0" type="line"/>
      <point x="163" y="690" type="line"/>
    </contour>
    <contour>
      <point x="374" y="490" type="line"/>
      <point x="111" y="226" type="line"/>
      <point x="162" y="167" type="line"/>
      <point x="485" y="490" type="line"/>
    </contour>
  </outline>
</glyph>
<glyph name="m" format="1">
  <advance width="550"/>
  <outline>
    <contour>
      <point x="285" y="394" type="curve"/>
      <point x="317" y="309" type="line"/>
      <point x="317" y="309"/>
      <point x="317" y="422"/>
      <point x="374" y="422" type="curve" smooth="yes"/>
      <point x="421" y="422"/>
      <point x="429" y="366"/>
      <point x="429" y="309" type="curve" smooth="yes"/>
      <point x="429" y="252"/>
      <point x="429" y="0"/>
      <point x="429" y="0" type="curve"/>
      <point x="505" y="0" type="line"/>
      <point x="505" y="0"/>
      <point x="505" y="191"/>
      <point x="505" y="312" type="curve" smooth="yes"/>
      <point x="505" y="452"/>
      <point x="471" y="499"/>
      <point x="404" y="499" type="curve" smooth="yes"/>
      <point x="339" y="499"/>
      <point x="285" y="394"/>
    </contour>
    <contour>
      <point x="96" y="394" type="curve"/>
      <point x="129" y="309" type="line"/>
      <point x="129" y="309"/>
      <point x="126" y="422"/>
      <point x="182" y="422" type="curve" smooth="yes"/>
      <point x="231" y="422"/>
      <point x="241" y="366"/>
      <point x="241" y="309" type="curve" smooth="yes"/>
      <point x="241" y="252"/>
      <point x="241" y="0"/>
      <point x="241" y="0" type="curve"/>
      <point x="317" y="0" type="line"/>
      <point x="317" y="0"/>
      <point x="317" y="191"/>
      <point x="317" y="312" type="curve" smooth="yes"/>
      <point x="317" y="462"/>
      <point x="286" y="499"/>
      <point x="220" y="499" type="curve" smooth="yes"/>
      <point x="155" y="499"/>
      <point x="96" y="394"/>
    </contour>
    <contour>
      <point x="45" y="490" type="line"/>
      <point x="45" y="0" type="line"/>
      <point x="129" y="0" type="line"/>
      <point x="129" y="490" type="line"/>
    </contour>
  </outline>
</glyph>
<glyph name="nine" format="1">
  <advance width="550"/>
  <outline>
    <contour>
      <point x="235" y="66" type="curve" smooth="yes"/>
      <point x="164" y="66"/>
      <point x="94" y="102"/>
      <point x="94" y="102" type="curve"/>
      <point x="93" y="26" type="line"/>
      <point x="93" y="26"/>
      <point x="147" y="-6"/>
      <point x="230" y="-6" type="curve" smooth="yes"/>
      <point x="409" y="-6"/>
      <point x="493" y="98"/>
      <point x="493" y="317" type="curve" smooth="yes"/>
      <point x="493" y="540"/>
      <point x="422" y="646"/>
      <point x="272" y="646" type="curve" smooth="yes"/>
      <point x="126" y="646"/>
      <point x="57" y="582"/>
      <point x="57" y="446" type="curve" smooth="yes"/>
      <point x="57" y="312"/>
      <point x="117" y="248"/>
      <point x="244" y="248" type="curve" smooth="yes"/>
      <point x="347" y="248"/>
      <point x="417" y="299"/>
      <point x="417" y="299" type="curve"/>
      <point x="421" y="372" type="line"/>
      <point x="421" y="372"/>
      <point x="372" y="312"/>
      <point x="267" y="312" type="curve" smooth="yes"/>
      <point x="180" y="312"/>
      <point x="139" y="355"/>
      <point x="139" y="447" type="curve" smooth="yes"/>
      <point x="139" y="534"/>
      <point x="180" y="575"/>
      <point x="267" y="575" type="curve" smooth="yes"/>
      <point x="363" y="575"/>
      <point x="408" y="496"/>
      <point x="408" y="330" type="curve" smooth="yes"/>
      <point x="408" y="151"/>
      <point x="353" y="66"/>
    </contour>
  </outline>
</glyph>
<glyph name="o" format="1">
  <advance width="550"/>
  <outline>
    <contour>
      <point x="272" y="429" type="curve" smooth="yes"/>
      <point x="368" y="429"/>
      <point x="414" y="346"/>
      <point x="414" y="250" type="curve" smooth="yes"/>
      <point x="414" y="152"/>
      <point x="370" y="65"/>
      <point x="272" y="65" type="curve" smooth="yes"/>
      <point x="176" y="65"/>
      <point x="137" y="154"/>
      <point x="137" y="250" type="curve" smooth="yes"/>
      <point x="137" y="344"/>
      <point x="178" y="429"/>
    </contour>
    <contour>
      <point x="270" y="499" type="curve" smooth="yes"/>
      <point x="129" y="499"/>
      <point x="49" y="391"/>
      <point x="49" y="250" type="curve" smooth="yes"/>
      <point x="49" y="107"/>
      <point x="127" y="-6"/>
      <point x="270" y="-6" type="curve" smooth="yes"/>
      <point x="416" y="-6"/>
      <point x="501" y="104"/>
      <point x="501" y="250" type="curve" smooth="yes"/>
      <point x="501" y="394"/>
      <point x="414" y="499"/>
    </contour>
  </outline>
</glyph>
<glyph name="onesuperior" format="1">
  <advance width="550"/>
  <outline>
    <contour>
      <point x="294" y="394" type="line"/>
      <point x="294" y="640" type="line"/>
      <point x="252" y="640" type="line"/>
      <point x="203" y="629" type="line"/>
      <point x="203" y="597" type="line"/>
      <point x="252" y="604" type="line"/>
      <point x="252" y="394" type="line"/>
      <point x="186" y="394" type="line"/>
      <point x="186" y="364" type="line"/>
      <point x="362" y="364" type="line"/>
      <point x="362" y="394" type="line"/>
    </contour>
  </outline>
</glyph>
